<mxfile host="app.diagrams.net" modified="2022-07-21T06:29:21.452Z" agent="5.0 (Macintosh; Intel Mac OS X 10_15_7) AppleWebKit/605.1.15 (KHTML, like Gecko) Version/14.1 Safari/605.1.15" etag="Eg4FrifTysZSlGNRxZLl" version="20.1.2" type="github">
  <diagram id="ecxEaGqwJ6rMhj0Ag31n" name="Page-1">
    <mxGraphModel dx="1346" dy="645" grid="0" gridSize="10" guides="1" tooltips="1" connect="1" arrows="1" fold="1" page="0" pageScale="1" pageWidth="200" pageHeight="160" math="0" shadow="0">
      <root>
        <mxCell id="0" />
        <mxCell id="1" parent="0" />
        <mxCell id="y-mU1MTox-dUx8l6JhDk-2" value="&lt;font color=&quot;#000000&quot;&gt;&lt;br&gt;&lt;br&gt;&lt;br&gt;&lt;br&gt;&lt;br&gt;Hubert&lt;/font&gt;" style="rounded=0;whiteSpace=wrap;html=1;fillColor=#d5e8d4;strokeColor=#82b366;horizontal=0;fontFamily=Times New Roman;" parent="1" vertex="1">
          <mxGeometry x="-274" y="176.75" width="100" height="100" as="geometry" />
        </mxCell>
        <mxCell id="y-mU1MTox-dUx8l6JhDk-3" style="edgeStyle=none;html=1;exitX=0.5;exitY=0;exitDx=0;exitDy=0;strokeColor=#000000;strokeWidth=2;fontFamily=Times New Roman;" parent="1" source="y-mU1MTox-dUx8l6JhDk-19" target="y-mU1MTox-dUx8l6JhDk-6" edge="1">
          <mxGeometry relative="1" as="geometry">
            <mxPoint x="-95.38999999999987" y="252.75" as="targetPoint" />
            <mxPoint x="-97.85499999999979" y="268.75" as="sourcePoint" />
          </mxGeometry>
        </mxCell>
        <mxCell id="y-mU1MTox-dUx8l6JhDk-4" style="edgeStyle=orthogonalEdgeStyle;html=1;entryX=0.5;entryY=1;entryDx=0;entryDy=0;fontFamily=Times New Roman;fontColor=#000000;strokeColor=#000000;strokeWidth=2;dashed=1;" parent="1" source="y-mU1MTox-dUx8l6JhDk-19" target="y-mU1MTox-dUx8l6JhDk-15" edge="1">
          <mxGeometry relative="1" as="geometry">
            <mxPoint x="-59.72999999999979" y="291.5999999999999" as="sourcePoint" />
          </mxGeometry>
        </mxCell>
        <mxCell id="y-mU1MTox-dUx8l6JhDk-5" style="edgeStyle=none;html=1;exitX=0.5;exitY=0;exitDx=0;exitDy=0;entryX=0.5;entryY=1;entryDx=0;entryDy=0;fontColor=#000000;strokeColor=#000000;strokeWidth=2;fontFamily=Times New Roman;" parent="1" source="y-mU1MTox-dUx8l6JhDk-6" target="y-mU1MTox-dUx8l6JhDk-9" edge="1">
          <mxGeometry relative="1" as="geometry" />
        </mxCell>
        <mxCell id="y-mU1MTox-dUx8l6JhDk-6" value="" style="shape=image;verticalLabelPosition=bottom;labelBackgroundColor=#ffffff;verticalAlign=top;aspect=fixed;imageAspect=0;image=data:image/png,iVBORw0KGgoAAAANSUhEUgAAAdIAAAFwCAYAAAAMtPrTAAAgAElEQVR4AezdaaxmV3Um4BspobtDcNUthhhj4wEPeHbhCU/lGWMChmAwxCnPNraxXaNrcrmq7nUQCQLRSRPRoCAEShshEDQdhIIQCISgQQgEAoGCQIAgiEBCBkIS0mnptJ597nt9E3X+RAmdpN8fR+ecPaz57P3tvdda38LCwsLUqzKoDdQGagO1gdrAP9EGrlq3fXre4oPT8xd3TZ43HbZlOv+we6dz1r1iOmvdbdNFh903yi9ft23auO6O6cqVNmevu2u0O239TaM+7/qftP6GAcezfpcdtnW01ebcw+6eLj7sgemCw1454F2zfudoow585Vev2zHa6ecdHHdt9EWDOjSiFY0nrn/pqFMGpzLw3LXxrK93l3ZggAUuHN7Rp15b5WRy/9P3Tb95yt7p7iP3TfcetW/I6leesnd60+l7phcu7p5ueNLegfOlT9oz3fbUvatleb/58L3TLYc/Vk7WeCR38MEgh5T/j3O3Tx84b+v0PzfdM/33c7ZP73jWg9Mvb9g9vWBx18AF30ueuGcC99Un7Zt2HPPQKPeu7vYj9k13PW3f9OIn7hn9wEWLOnx5VoaHG5+yd7R52ZNnmOqU66tOH3i9v+rEfdNrT947ZIFm9eTnDrdLX/fNvzjDQzdawQ3NnuEDG52hNzSQDXxw0MmdR+wb8iMvciIzfdWvletafuACA59oQaNn/ZRfu/7BUf5fT9s7veWM3YMebbRVrx3Y4X3fcfum/7bxwekNp+5d/V6CD1y0e0cjnl34ZA/qQw+42mkf2jxr7/7wM2a94TkwQ4N+eAbX3QWGO7iRa+wkfHhPH7KD676j9g06Imtw6EEfcoAbze6hQ3l4AgPeyBLf6Isdu6tTDgc9a688svGsDnz4wc6VtvorU48eOPQHGy++dXB8m/h0qWeD+qKZriN/9Z7BY7tg6+8dTvX0ro++8HinD23JGc0uOEKHe/BoB4f+2i+fsG/c0YVX9WAaU3xTxpe7nza3UY9udog3NIYvZWj1TYChHl5t0sc7utidNvqgQTmcse/IHF7ttQlcMiZbfdCMF32NfS70gs9eyEV79WAdPH7fsC3PcIC9/xmzbsCCBw1gqscb2avbe9xDgz9t9KNT5ejQng1pizayVq4t/MpdZK5P+oUv7/gjP/3omnzcwVZOjurQhcbYnnf8/edT9o7xzxhgHDSvuP+XU/dOC9eu3zu9cMP+6Zc3PDx5vmLdrumiddumZ6+/fzp7/d3Tpet2jPKr1++Zzll/73TNSpvz1t832p25eMeoz7v+pyxuHnA863fVut2jrTYXrNsyXbbuwemSddsHvOcvPjTaqANf+fPW7xvt9PMOjrs2+qJBHRrRisaTF28cdcrgVAaeuzae9fXu0g4MsMCFwzv61GurnEx2HrM8vfn0pWnL05enbUcvD1ndcvih6e1nHZxe8sQD0+anHBo4b3zKwenupy2tluX9ziOWpruOeKycrPFI7uCDQQ4p//AFe6ePXbh7+uIVW6cPPXvv9L5z9083POnA9OInPjxwwfcrTz44gfv6U5anfcc9Msq9q7vnyOXpvqOWp5c9+eDoBy5a1OHLszI83Hr40mhz0y/OMNUp11edPvB6f93Jy9Nvn7Y0ZIFm9eTnDrdLX/fbn7o0aEQ3WsENzZ7hAxudoTc0kA18cNDJK49cHvIjL3IiM33Vr5XrWn7gAgOfaEGjZ/2UX7e4f5S/7cxD0zs2Hhj0aKOteu3ADu/LJyxP7z1n//SWMw6tfi/BBy7avaMRzy58sgf1oQdc7bQPbZ61d3/VibPe8ByYoUE/PIPr7gLDHdzINXYSPrynD9nBtePo5UFHZA0OPehDDnCj2T10KA9PYMAbWeIbfbFjd3XK4aBn7ZVHNp7VgQ8/2LnSVn9l6tEDh/5g48W3Do5vE58u9WxQXzTTdeSv3jN4bBds/b3DqZ7e9dEXHu/0oS05o9kFR+hwDx7t4NBf+9c8c3nc0YVX9WAaU3xTxpcHjprbqEc3O8QbGsOXMrT6JsBQD6826eMdXexOG33QoBzO2HdkDq/22gQuGZOtPmjGi77GPhd6wWcv5KK9erBefdLysC3PcID9ayfOugELHjSAqR5vZK9u6YRHBn/a6EenytGhPRvSFm1krVxb+JW7yFyf9Atf3vFHfvrRNfm4g62cHNWhC42xPe/4e9PpS2P8MwYYB80r7r9zxqFOpITXiXT+wBkU42KYDCoDAWP33om0Eyn7MIgamAxC7MKgZtBhN5mUMmAp70TaidQYwmY6kXZF2hVpV6RdkXYi7Yq0K9KuSLu1263drKJs33Rrd95Gty3Wrd1u7WZHqlu73dodZwcmzJ6R9ozUBGHCtE3t2dZSJ9KekbIFxzomjmxH94x0Pnu1Rd+JtBNpJ9I6Gw0HAhNmJ9LZocOEYaIwQDqrqrNRJ1LfRp2N6mxUr9167Q5vOhNEvPfitcdxqhPp7NXI0aMT6WwPZME2uiKdPV07kf4zTaRcgg1EtkI9CzOx5SFMQoiIsBCXd79meeGp1z5hMoxS2Ij22iS0JCEr3LRdyvVJqIkyz2ClLuEu8PEGTNgKz1rP2rnU25LRHk0bF+9aDVtRhx5XaIVDOR7BcoV+z+p4F4LtPaE/aHCO9u6zH55+46Tl6eDxjwwXb27fn960c3gw2jq0HeLi0YiebCHGFX33scvDWSlhDWSOFhc+vBvs9P3cZdunL1y+dfrBDbdNn79s2/SZTTvGL0eTBBzcwOHhiv6ecx4e7vUGCG7paFHOdRxMbtvct/UDX7u4u4PnXEw9evFqteIdfO0zQelDBkJAXMrVky/97zp2duGHb60sQkO2V8EJPrToZ3XkgwYztGqPBv2F9+DZAAi2di4TZej8h7xEVuTpGa3aw0nP4OD90Y0Hh361cQlzgQed6tGhL4/lT1y8a4TKwK1Oe+3cI1f0u/RBm7Zo184zvGxAnWd9tVXn/vAzHhl3PJMlmskAHWCkDz3hAy4w3EO3Z+3A1E5fZd7h9k7uaEi9Mjwp04ZOwKUXd/DQg0a2pRw+bdWhRZ+UweUZTP1Sx1YCK7pBGz6Vo4P96os2ZerZpjt85KkdHGCTi3I00AMalaNbGxdY2uUe+sBUBr8+8KE1tKCDTny/+e6ir+CAx3NgqPdMlugU/kIO8OMNHGPJu84+MOzpjafN+tBPe7DI17sxCk+RFZhoSrgPmHBpixfyBYP9wKmdcvXg7n/GI2OcCL2hBz598YJXfTyDDw75aqu/MBX2A0/4gsf481unLo9vBU/CXsDSFn48kDt6yZfc0RGdaOtZm73HPSZvtIFv7EVH2sONTjIBX11krlx9+AKTDRlryc+ljUsd3mObsZvQSV9gC3cUivjOZx0Yz2g3FgqfWzCQ+1A7kXYi7UTaidRAZNDoRPpYvGMn0k6knUhXVs9dkc6/SrNy8ivML6/8qssvNr/21v7KU+7Xo1+mXZF2ReqXv9WBX/p+1Rtg2EdXpF2RdkXaFWm3dru1O35YdGu3K9Ju7XZr1wKiW7s9Ix2rhpxPWmFaNVhNdEXaM1JnWz0jfSwFol0Yg6YzL99JJ9JOpJ1I1z04Vpd1NqqzkUExThp+RBgs/ZCwDanOtnadjWZnpDiO9Iy0E2mdjWYnta5IuyLtinTF07QTab12rS7i6Zm7snhudkX6mHdrvXZn35GuSLsibfjLiiNVV6TzBGK1GTd/zkHd2p1XHJ1ID66G4yRMpBNpJ9LGkTaOdHXCMCB0Iu1EamXRFWnjSNlA40hX/hu0CRnmySGB4QKkm5BhDsb+h6E8nUgfm0C6Iu3WLh8BzlRNyPAvlJBBZqFkMjp98baR1Uf2h2QP4rSjjQxCshbJRqRM5h9ZN5ItSGIHsZra+rNvMD1rawL0rK/22nnWJ5mKtEs9XC4ZhsBJG/fUBYY+rtCJRm20Ve4dHrQG3gkbXjpo8I5XsPTxi4UjCt68K1cvq40/rLU9ZlCSNcT94xftGsksDNo8ZLV1yZABFl79EuLAYevEnYOLczvtQxdc+ijX75MXPzh99tLt07df8IqRTUcGFB+CPu54AtfdH8vKNEJO4rgckKNNWzK3feVKX+dBcbaJAw68yiMH7+iJty8HHTDIwB+Jy8oirlR/7cDOORP8+qNNnXI8BWbaZbWoPdje4QnMtEMr/tS5wAzd+NTXe+7kEn0EN/roBR36kwu45E9+/qhXPxdc4OnDexOf4MjS8v7zHppkbEGzeu3Vod17aANbHf3TC3i2VPUjU3zoR0bq0cYu9Bej6W7QC5/gKdNPe309o59cIzvv4ONfezTBAW9goUO9dzLTJ3yApUxf9Gjngh9OfcIbe9YebHL1raEZPnrRDq3e0QqHtniNzPKM5shTG21dKQ8/4RW/4K/tgwb49HepCz/qtKdLbcDGIzqjD3d2oY9nd320YQf41R/NwQOHK7KFJ7giL/KMPNAV2JI8+K5lAnrtyp97k5V++NXOs8szWtCEdjSkjGzh9A4XHNp6Nt4Yq5SFRjryQ1wZfPScem3YB57QAF/gkzn+ZRzijORHfPDCrQ6f/qzcn9P7Xkza4LFpdJObi5zhiP3Cg0904Q3t0blysocf7Z4zrsGbcnd8RG/GMjoGizw84zfjPNzo1wdN6IFb/8AEPzCV+WPv3z3r4PTWMw8NHtEi653xYwFRAPnoO5F2ImVojInhxVB9TAyyE2knUoOSQdEgwk4MNAakTqSzHMiCjEwAJibfTSfSTqSrKz0DrBk9q7+uSLsiNVCYcP2aM3AYVPMLjq2oU25wyeScdn7hZSA22Hg3YQdm2hmUuiLtipQtsRd24mIX7M6knsncgiA2qE57tpXJrSvSeXu3K9L9YzXMLthLV6Qr27qZ3K2us3zv1m63djOJZ9vGh2NAZicGYts73drt1q4fcHZf2IXJ17M7G+nW7rx17MdLt3a7tdsz0pWzHJOLAcKHYfWXFaTynpH2jNQKzo+NnpF2IvVjomek87mr8bJnpHU2GttgJs5OpF2RcuRgCybNOhvNRwpdkc4OSXU2qrPR2Jrp1m69dk0UObe1ndut3ce8Nuu1W6/dnpH2jHS4L3N8sg3pbDRXw18a/mKVxfmkE2nDX+ps1PAXRxR2XRxlec4iy4/rhr+sxJh2Im0cKUcQH0q2KTuRNo60XruNIzVxmh9+qhPp2pWcONKNi3etJmNAjFnc3SqQV5vkCp61TZIDd8QrF4/qApfnrDv3Yr8AHF67JEIAU7kwGm3A1SZCUJeA9rXttNdfH/jQF9zec+EDPO08o1eiCLSetnjLgKGfXydowZt6fdzhRr82AqZd/quS55oYOgP47507x88l2BhvaAUrd/Rp62zSwT34VtFwekaPCz794HvfufunT2/aOX3h8q3TB8/fN7IXodMlaDhB1AYNwc7+Eks/dzDh1g48uILTOzyu4E57Rhda0EZu5KQ/2Pq84dSlcQlAhkOZPurDL914pwcw1IMR2GSkXpk26CQjsqZb9fCn7pTFzYNH/eEAUz15Rvf64A0P4R1fLnDgUw+HMjTCr0zwuCQTdKOMDMFzeYZDOd1/7MLdI/gazWgwccOHlvzi9aw93YCvPx5sp4VeerRiIj940AgO2hKUrr824Ts8uOuvfXAqA4f8XN59T+mvTnswcz4aJxKyAAdMuCI37dg1XvDqjp/YVeqUu8Bwzkg/8LvjFx1wp507XNpEPnBqo8yzPmlHNugPXHi0dWlLB9Er+skUHHRqSwbagUE34RFufIU2bY7fcP3QBccSNGqjXxJzKCNftIHvHX341BYd7nBE5mjx/WuvHXyeJSsQzP+bpyxPr3nm8tB75Aw+2rVPH/TRGdnAmzptXeHZPWXhWXu8e3fhDx3o9WMULv3oFK3etQsdeFRHvxJJSPzimT3lGwBPwgRjhIQt+GPLaI6to5n83CM7PJMZXMZWdfkWwVaPHvzTLbxwoUk5WeIN/dF/xiV94AZfPVsHX1+8e1aHJn3h0seYyv6jM23QYtx7x8YDIyEDOcDrXRKKBQaqIaCdSDuRxqDYRSfSTqQGuAzwxgmDi3sn0k6knUg7kXZFurIa9gvMLzy/7kyinUi7ImUTXZF2RdoV6byL0BVpt3bHlomB0UfBIGx7uJSZNDuRdmvXjyhbbbGHTqTd2u3Wbrd2xx54z0h7RmpCcB7ifMSPiJyl9Yz04DiHMnn2jHQ+v2UrPSPtGSk76BlpnY1WV5g5y7ISZRxdkXYirbNRnY3qbFRno+G5x8PKr2jOMFYbnKSsODyvvboi7Yq0K9J54jB4OgfvRNqJtBNpJ9JOpA1/GTbAi5TreX5EGRxs3TrrM2FYjZtEO5F2Im34y/zvSw1/afjLGBytRK1CuyJtHGkn0saR+sHkh1LjSBtH+q8ijpSnnl/27uJI84vehMU5w+Rlm1T52iBudbZSeYC6WwUoA8fqwMXQ3XM+591zPEfBtk2rjbtECNmGAlMco7b6eE97ZXChUZ0ruEMTOmz5gqc93NqctOHlIy4Oz8pyluhdPT7Roj9YcPhXeP/47hJ07DBaOwkZDOq2zOCwIkKjfhw54NfOpZ781IEPH77hURcatX3POQ9Pn7pk5/SZTTumD5z30PT2sw6OdmCiV6CzwGl4Dx7/yKAJL0kmEBmgjWzgIIfw5T1B79rAmR8odJBnek9/8AWPS0whMBm96MEHGHj1DK47mPhTp513z+mHHu2ib3XwRR/6eoZXAgpwtQndge89bcEjY33g8Y4XetXm5MUbR51ysOHzX6eCq7275KINXXjVj17ZAL288bSlVd2iBx14xyO5o8d7dK1/eCZ3sPCsnq3Aqd6zC5zwQ/ZwgOdON+rxpA9YaFWH5+BKP3c0KUenAUcfqzR4lWvDLiI3ZfCxL33CU571F0MKv77wusAU3G8MwR847tp5XquTDHzKIofYJpj6xPbwrN2R668avONXH+3RpC256Qc3XN7pIXRoE/ozTqh3xTbxqQ25wIdPsLz73nzzZELWLjDRAoZ2ZKZMHdqiMzBd6NM+9LG5RzfOQf7sTJvQEztQRq7g4g2N7viHJ7jBxKt6ctNfH7zBSd7hE13e2SI4kiCoiz2AlX7kEHlpKxmC5BT0D78+YIUvIVMSMhgn9x33yGinHhztwTame4YDDeCjiZ7Rgm64JI2Q+EbbyBAcuPBJxi5leKcv8NDkrlw7sL2DoSx2ok5bV2hDnyvy19azejy/81kHpnedfWDojc7wJiHD75xxaFqABHHulAQh4BmAAKIc5RgkAAwQAGIwHqIi9BCEcM8Icg8j+rjABkudO2ESClxgdiLtRMpmOpF2Iu1E2onUWNCJtBPp+CHiB4IfDfkV5wdMflgwFD8iuiKdfxn6QdeJtCtSNtCJtBNpJ9KuSFe3LDqRzltOdh78mMgOhO0TOx8mz+xodCLt1m63dru1a3Hh6kTaibQTac9Ix/GJsxw/HhyTONrwYyHHHN4dnfghodyRiB8YOW8zqajvGWnPSNlFz0h7Rro6ePSMtFu7fm12RVpnI8ccfjz4YVFno9lXpM5GdTYaS3G/rutsVK/dTJYGSauqbu12RWqrLitzP6g7kc5exNmZ8M10Iu1E2om04S9jpWni7EQ6u/t3a3cOx7Bd3Ym04S8Nf2n4S+NIG0c6fiCYFPxY4Ejm3Mq7lZZ3OzJZhVtxdSLtRGrF2TjSf2dxpJR6yuLmcSZhMOBJ6bzKVos7xwYDgGdtXer8mhR3atvWu77aWHm4DCD66a9t+ikPXHj10waMbANnK1i5wchApB6MDEzK9Fdm8PKe2Fb30KM/eMrQmz6hCS0u79qC53wGPvj1FWgsg4p/hpcEwWDo/a1nHhpbL8rwDAae0eh5La3goFH5CRteOu7e4zCQcBh0S8LwyYsfHEkZPAsEjnzgERyMBnRKFGDg5pzi47Rl6l1AM37gUwauNhxW1IcWvKPNhXb1+NbGsz7kpr8ga/98/1unLg+48OORzLSDz7tLf3dwlduiyiSDHhcaBDW7awt/6CAPkxF9SZJAf5JpxAa0QxP+wicacoEJh3dtAjvl6shSQgsyjA4FnWuLfs9wuNDwtjMPjfZ4IX+yQ6ckHd7RhE6yx5f68OY58LTzjufwA462bC22BFZkqb0rtqkt/bijHY8u/OqvLZvBi2f0oQvu0OoZPHjQG7sgd3j10x9MbcmB3PAveJ7co3P0K1+LH2/6w6eeLt3BB1tf7fHgXZ13ePRzpc4zmuBXL7bYXZ/ISxsw8aNM28jFe2StHq/qck8ZOaAv/eCUGID+3dEHDngu9MEZ2aPH9+IiDxe9g4tefeF60+lLI5BfshU2qB1ayDnfqGdlkRHYyuALHDzTM/y+L3WRmb6RvTbqtMHfWn2GX7wa1ySeIDt4k8TEO3hsiI2yORe64WNH3o0Rdz9taVzoTeIY9drBT9fohQ+v5GjM0R6N3uEDj8y0VabeM168oyc8xhbIIzjA1xa+2Js7WsDxTI5we8YvePRFbuilK/DQI4HGhy/YO/3++fumN58+J7J47zn7x/i8ABADBzzEABoCIEFckGqvDiGMhUK866sNBl2Y0E9/bdNPuXbK4dXPMxjqwHN5Vh7DUA+Gcgy69FeG0TCtPeZDj3fwlKE3fUITWlzetQWPLOCDX99OpJ1IO5F2Iu1E2om0E2kn0vGLK792/fDw48GPiPx48cNHvR8Qfpl59ivNDxA/TLoi7YrUL3OrkK5IuyLtinT/1BXpyiq5K9JOpN3a7dauHSs/Hru1263dbu2uOEB1a7dnpFbcVk9W1FbeVttW3ilX5wiiZ6Q9I2UfnUjnM8uekfaMdHwMPSN9zCmALAwSJg1bsyaVbu3OE2wn0tkXgT+ASaTORl2R8j/pRNqJtBNpvXbHjwU/GLLy7Iq0Xrt+TNp9iLNiVp/Kbed2RTp7KXcirdduvXYb/rI6iXYibfiLidOug0myE+n8H8t2qEQ4NPyl4S8Nf2kc6WqYlO1qg2S2sE2guboibRxpJ9LGkQpjjEOpccJz40gbRzq2qJqQYY437kTahAyC9K0+/aDiUGawtHXbFen8r0FNyPBTmkgNRgzP5Vc8Q3SWYCZnnJnNj128bjp+w/UjxjAJEBir9uIO/fEuQ/YrMOcO4Kjn4AKeZ/CUw+XuXT+xivboXaHF3a+H4FOnPVgucOHTXx284IRm+IJHNiF06hMY2ge2u3c0wRkafaiy+SSrEXnJqnL7U5emd2w8MDJ3OKCHHz40g6VfVkdwowv80BYa0K4cbWCQuQwaH3r23pHhSADwu86eM8bgVeyWNqFVNiNbNWL7dh27PJxG1EsioRwN6ky+9EUeZAe/ejS7Ime0e4ZH8go0yW4io8mrTlyeXn3S8vTak5cHLDQn20hgkxuefMBgBT546I981nrQ6qs9eHDrr8yd3MhbPTrQjqdMovDBox6t6vTVjhzw6wLX/bTFW1bLwMePWLAdRy8PXgTd60de9CpekqyXT1geevm1E5eHztVHtujjMo8WNKANHDImH3fOPC441aMF3PADljpw1Ic/9ekDVmTumWzJlB7JNfznmyAXZehiD8nA5Bk+OgBfe/DSnr2o04Zc0YqetIUPLHLWDn0ubV3qjRXKIgO0hhb4PLvA1k69fmiLTNS51KGF/NzZku8PnWC4o4XetCULdHgOb8GjTjvlbAsuvCt30Tde2Yn+9Myz2yVjD51pDx868A8XusAkQzqCL3akne8HXPRq84ZTl0ZGHBlyPLM/fOgXmYZmMgTLO1ie0QqW8Yx+0aMezfrrgx7v6ImsfQfkHN2RaXTmjl82yPbB0BcuOtJWpiJtctdWGzzpT05snx6jL7pSh27tyBZM7+hyR2eetSVPSVA8Kycb/JAjWshSGxf+6cQzGQQ2XZGP/voYz9TjHT590KKOzNABBz3DDS6YyvEpG9WnLtk5shsZM8hBlqN3n/3wtIAgiF1RBAAMDADCdHUindPIkVcn0k6kPiIfmQ+8E2knUrbQibQTaSfSrkjHr0W/GLsi7YrUL3STgxWBH9h+QHZF2hVpVqK5d0XaFenYpjFxGCjcbQVYjZtI3JVb/ndrt1u73drtRNqt3W7tdmu3Z6Sr5yhWFrbrnZU4K3D58eDHRFekPSO1Xd0Vac9Ie0baM9IxUZggrCqtLutsVGcjtlBno9mhx7atyTLbtXZe/IiKY0cn0k6knUg7kXYirdfucJYzebqsuDuRzt6T9dqt1269duu1O35F+yXd8Jct48+8bdHajmv4S8Nf4j3KpT8rTDsyJs+Gv2xbDY3gYdvwlz0jRIVDmTHEveEvDX8ZzkI+DlsSrm7tNo60K9LGkdq2Zgd+XCTGsBPpHAPcONJ/xjhSv0QE1Zp84q3qjMRElPcYoV+5jFC5MkbqWbl3WwbK4sACpnKXZ2dU2tpqg0MZb1l372JX1YOhXD+rT3cfgWf4UqctXC4u+urwov6kDS8f/by7wHeHw4S7Nn4WPvXoIg+rXTiVSXqw+9jl8YveL3vee37dC8QVICyO0IfqfCn0ZAD3Cw/NaLNqTHCwd+e22itDC1zkIEj7ExfvGoG/X7h86/TB8/eN/gmI1s6Fjy1PXx6XX5T+eBtt9JOAas/qBEV7dsHnHlmgzyVgmVzIEnx3fNCp/hIxSMrwu2cdXJUruaGDzNAODrmRf8rAAsddG8/4lmBBO670eIOP3NWDG/rIV3t1cCmnZ+3hIDtw9KE/79Gftt7xtlbe4Wvb0csjqJo+yYXc1JGP4He0KWcDkmQIylYHFx2607F2aMMfeXuPHNCuLOeS5ODSV5l+eCHnpRMeGfCVsRfyxAOawEtbMPUBA3/agYk27+q1dXnWDg3sFW3agYlecLVxd+mvH5ni0bO2gacc3eSSdnAHLhzgog9d+rrQ4J2u4Ymt0SU4aPJ9eQYbnsgJTWhxqSMrz8rBBR8+cN3BDkxyhCPy1BZcMLR1V49msFS5lGQAACAASURBVNChzLs+9x21PC6hHvqxEbCDL7JQx6bZYOCQOZ7ACf3qJfZ4+1kHp7edeWh642lLI+ELOOiInOBAq/b6eicTuoIrMtRHffhhL/ChU3t0KtNfH9+y/mCjjd6iMwkpfAtkoL38AdrhAywXuGShH9tHH1kpwwsPd2NRklsYk/Ckr/EfXHagv35oUgYn3pSxEe/4UKev9uhQjl9l4KrXB53sgRzAdLEVd/jcyUo7z+7eySL0gYluCRnUxzaMBRLwuCRjkIgBv8YDehwJGQxGBI2YIAKcAvIOMSIxihHlyhDgOR8ixMr0jYC1c4HfiXRWLENYO7CTLZmTUSfSTqQGB4OIAaAT6fxjwTfj6kTaibQTaVek40dFJ9KuSP3g7Ip0/rGeFUlXpF2RWkx0RdoV6ViN2xZwdWt33rIni6y4PdvB6NZuJ9LsenUiXR4/quzu+YFlJ4JMfCvd2u3W7tiq7NZuz0g7kfaMNBNEz0h7Rtoz0p6R1tmozkZj1WB73uRQZ6PZKYgzCP+JOK5YbRow/YhydSKdz3itMOtsVGejOhvVa3ec83KCMTjagoqHroHTDgTvt5TZ0u2KtCvSTqSdSOu1W6/dhr80/KXhLyuhCAn58CPKjyY/lroibfhLw18a/jIGA9suVlKJQzRANI60caSNI20caeNIG0f6j8aR2oqz5SJg3ZmG7ToTia04dWLZlJtQ/Pq0badOmdhH79qJ7XKZgMBQblLSR7u0zy9Z74HFgxP8wLL8h0NbMLhDgwFuYsiyhehdW/Rrl6DkxOAp5x2qP484eLQXsA328RuuX4Wbd/JAHxzOfPYetzwSMkh+IFBXcgbP7zt3/wje9YwObd1d+rsLXuZckUQJAorBd+EbXWjCq6Bf5b937v4BW+DvRy7YM9796hdIDb+AYXyCn794g2fH0csDjyQDnp3dpVwferVqgE9fd/ohi+jQuzqygINM4caD4HGByOhDJznSiXboQr92ysOL/mRBNnjEszudgEFP4KuPrZCJOnA9S1Lgzi70BRN97EVf9OsPr3axJ/rWXhkawNTOM7x0IZjaXyM9cNQcgH3w+EeGjAyaO49ZHvwIUH/1ScvTxy/aNT26cQ5eRxtYaJEwwkXWaKAn8tfG90DOzlPJJvzSA32gibzxgW4fqnZgwEsm4ICtDX601w9cPKAVXnHJYGpHL+SFRrj1F1qiPbtw1w4MuieT4xZfNGSKxtBGhvCrj15zNowWz3CA5zugd/TgBXzl0SU4YKiHI9+XsvAo+YH29IvP1MHjna7hgNtF/uTkvlaWbCN86AsOvuFRDhbelMNFzup9O/jRRh35vOaZ8/eObjjhdw6sjXe8sjFtwYGb/MBxkYu25KFeO8lN3nX2gXH91qnLE7uDT5vAhENbdLrAxaMLHDjg9S1FP+RD5voac9AKpnZsAg8SJuiPNrJz4ZuNkAFaPINDrmQGRmCybXpiT+BnXNb385dtm37jpOXpnc86MMYmcH1b7J3M8Qav58gjYw+7xyM5gO37gwct6ECPPuq1BYduyZacwMy3Dyb7RxteXeHFnc7VeVYXOeqPXjIiK7jQbMz/4hVbp09e/OC4f2bTjjEOf/iCvWP8WICQYjqRzpOHiZU8GGY+9E6knUg7kXYi7UQ6T86dSLdOnUi7Il399ZZf0F2RdkXaFWlXpF2R3jhWtF2Rdmu3W7vd2h3bX7aturU7b1F3a7dbu93a7Rlpz0h7RjrOiZwPOa9xFuT4wY6Cc6Oc5fSM9LHz5p6R9oy0Z6R1NqqzUZ2N6mxUZ6M6G9XZqF67Vg7OHXiY1Wu3XrvsIN6b9dqt1269dmcv5nrtNvyl4S8Nf2n4S8NfGv6ybtcInWn4S+NIR2xRw18aR2q16NyxcaTzfw2LI0ycorhBzjvOaJ3XehbP56y2caSNI/3/diIVcOpgPgGsAlO9C1RNIPBJG14+HByU+6gSTMvZwZXAZvUOeNX7yMDykSlLW95TnCZ8mGJX4zShXBhGYIMJBrpCozIBs8q1T1t39Ca4VjtlPBf1D836wa3eJVheYG7aKAMDzfq40C3AWFC2yz+/C9aV6UYwv61bQcfgogl97uDoa0AWXC8hgsBngfsJPIZfW3IDx2Vg+t2zDk7ffN490xcu3zp99tLtIxGALUHbw3ALmAZXQPYHz983gp/BfsOpcxDz605enl5/yvJIIiBhA/olNfAs0FngNNrgxT9dCOpeKz/P6snEIIl+QdYfu3D39NEL94wtSrSTnTuY+KIrcqNX8geDbNCvPnJiG94FeeMFfBMYWtBEjnCzHfyACwae0Y6+2Ab84YdMXfSvD1jsCj34AIMdkBea8SPQmny0FXitnJ7IWcwc2tRLRvHWMw8NGaI78MiVXaAfnledONsKOeBTOxc+tZG8gk2YlGKH5KItXZELOtzJDx/0hndy8a4fnvGBFn2PWfyl1SB1PJIlGtizdzT6cYAv/cAHw3foAoN80EUG4MIPBtmQOTrBU+8ZDDyhS9iAOt8DO2ZTYOgHvzLwyUJ/sJXhBw54dx07Jy9AOx1Gj2CATdf604k+6IcjcNGkTDs4kyjDe+QQuerPRuFCA534rsmaHsnb5bunF7agHL/kiA74QqM6uCW2oGv4vIOHxrRFq6T1EptIusK+wUdHbJl+wfOu3HeARjzpT3bsX50LHvwod9EFO5PQAB3g4fXNpy9Nv3PGoZFkRn/y1k57MiUvMdPoh18b8PBMVxJJsO83nb40eNDPuEVOvoOvPue+MS6So3c/ruDQDo1gkBd94geOvOPNRa6x03x/GR8z1sbuyVZ79eCgFR7PxoGMI2TExuHNuJRxAY/K9SFv9Bo/6Qy9bJV+vnbNK8dY/OWrHhhjBnv50LP3jjF6ATOQA0ZZPibvABO+qxNpJ1IfWSfSTqQmAwNzJ9JOpH4MdCLtRNoVaVekXZF2RTpWdF2RdkXaFWm3dsdWXbd2t40fR93anbdybWfZ7suWZrd2Z7l0a7dbu3Zdu7XbM9JxhuFcomek87+SOBfxcfSMdE7k7aypE2nPSHtGOvta9Iy0zkZ1NqqzUZ2N6mxUZ6M1jp11NqrX7qo3ptUTLzErqXil8RKr1269duu1W6/deu0+5jWf8bFeuyuhMiYOnn9ZajMW23LKG/7S8Bd20fCXhr+wA84fLo5Aogic9RonGv7S8JeuSDuRdkW68ke6nD7EajWO9I7x47JxpI0j9UPBwqJxpH8/jvtf/YpU/CjF+dUXDz+/Bl3KOC34NZhgXwGu+bWo3DsYtimtNNcG9qe/ASLtwGEsLtuY2sRwrEjBijHZ8tQGPs/aMrAE1gauOhc4frWGDriUhWb0eodDbKz+/jHj2MXrBmy/fuHS369ebT37E9dPXbJzev95D42AZP+SzgPSFqxAXf9wLzjXryQKBzM0i79ULpmC4GIByoKIxeGJ28WruzITCn4/ftGu6fsvuX0E/coUwqFInbgtAdFvOWNOCkA3H7lgzwjsFqT9m6fMgd0CyD3HS1MfwdGSOQishltfKz8yEKBMJuQFDr7jrBKXcHTLDSoAWWIC8tafzshIPdqVudMTmC7P8OZjsAsRXZCLyVR98LMletQOfAHioYcu1bEFdeTsGZ3a0Kv+SXagLIMSugLXFpEkC5/etHP67ovuXA22pysB2R8476Ghb4HnYuXomR4E0dMpfvFNlrZhXegAn37eeNrSkCW6yAqPbEQ/web+LJ5O1ZMZ3smEjtEJL3nBwanMjw7y0JZtshuB/PigWzjIxj3y9ewCD150sVW2oQ84aHb5BugdLuUC8+nEu3K0aecdfPywFbC9syO69MzO0M2utNEPL4FPvmShHg4yB98zz3PB/OBqz37wCgZdage3Cxy27tvBJ7r1o2+wyZezDbrghwddZO7CC7hoJn/1dMMuQi8YEljQi+8XTexBUgLtwdAGXfnmjYGBBw+bCG3awfe2Mw8Ne2JTErvgQx/0waGNcUQ/vIFBFuyaLYCj3DdA9urgJyMJIej6t09bGnYs4QK56PPoxoOjnIz1xwu+2Dca8OmKffqWyFM7NKBbPT2xcXbkG6BPcvI9STIBNznSP5mSFRrQ5w4uul3g0wMY3n1LEp984uJdA857zpkTcIDlu8hYyfaTeIaN4McFtjubBo+M6GQtLt8KeSinI7J3kS/+jO14Ixt8kY2xGH/mAs8SWxirJahZoACKwwhAhEUhGaBivOoQl0kJcoR4BwPxjKATaSfSDGbswuVDMUganFwGCbbD7jqRdiI1yLKHTqSdSDuRdiIdv7pMFF2RdkXaFWlXpH4gdEXaFenf207pirRbu93a7dZut3a7tdut3W7tju1E2409I+0Zac9Ie0baM9KekfaMdMWJKYfMztyc8eas1ipaWc51cy7XibTORnU2qrNRnY3qbFRno3U7hheWSbIT6fz3VPXardeubyHOXPkuOH/Va7deuxYS9dqdPYTNG+TRibQT6XAlb/hLw18a/tLwF7tsDX9p+MsIkRDvwyDEBNmS9Yvar2kG4tl5hlCKxpE2jpQtNI60caSNI20cqTjzxpE2IUMTMjQhw4jhttXEI9KPxyZkaEKGJmT4N5SQwS97yRR4sfqQna/InmIPWXCsmd6KkOOO5yRoUMbbSRC1VaK67Dnr5wJbuVWmFaX6eEiBk5Um2DJ4qOcAwFlIX/0MKur1Ux84aFYWZyJORmgHB86sZj3LcgKmu1UM3sCH312dVa7+YLrrDz/cslfYQhX+IQOIjBtixGS2SAYO2Vxk5MAXGPDoK1sH71D1fj2LL5TpQ0YO+GVF0U65X1ay5nzswt3T16555fTZS7ePTELwgvPusx+e3vmsA5PMSrK6oF1mlC9duWVkennz6UvjHSxZb8CW1Ug2nvedu3/0Dy10Rh4uckVLzpvJFP3awEEeBngZS8hBJo/U6S/zh0wnbEEmGfIEU8amyBHvdOusDkzl8Ii7lRnFna7oG2wXnWpLxtqSU3SjXHv6VqZeH/JHExqcfyjPu/50A65sMuB+4fKt03euu2vIVx292ir9xrX3TD+88Zbpq8+5b2RXkdFFWzrRP4klyJje9Alf79h4YGQQIlMwlUs8wcEJTnIETz+yA0NGFXSql4lGG7IiRzBksyFf7/DjnS2yJbi9x+bxTibu4GoHj2wz7DDhC3RFZto9df2lA4/sMWRIbrIHgQ8G3dENO0SH7DLawoN+7bWRAQdv6CVvsNHlPXqQcYss0Ewu+kffbJit6Kufy7cOPrxo8I3gAx7ZxshsLT500Y82vhlyltHJt4AedeCi3WWsgg98MvLtyOxE1mQrs050RfZ8EXyTYMLlwgs9GzOid3SSJRmSG7zwa5+sQ75N37TvWR16jL/gwR/aPIPtW/Gdkj88xm20w81OwHAHV3Ye3yo7Ag9sNBsD6BZstsBejSOyecmI5B19cJA9fGzI+EY/zlnRDJYMSWSPLnKD73OXbR9jmDEh2Yf0RSeZRC7eXXQPh/5olDmNbo1z6MMH+4VDuexq2qKFftXjh4yMW7EZ3z/4eKcHlzZkRcZwGT+8sys2hh9yMOYb3+maLNCUbHNfvGLrGB/QIsORcWEBkE6knUg7kc7B851IO5F2Iu1E2om0K9KxujUY+KXfFWlXpF2RdkXaFWlXpGN5brvCstyy3b1bu93aNTh0a7dbu93a7dZut3bXbRsTpQHRBOmcxT6/LeeekfaMlB0YKJ1fOO9wruHHlPJOpD0j7Rlpz0h7RroS1mKA7ERaZyMTY52N6mxUZ6M6G9XZaOV/3+q1W6/deu3Wa9fukh2Eeu3Wa9eCqV67a9yIbcHGxZvLOPdlqwnlXI5Nop1IO5F2Iu1E2om04S9C/Rr+0jjSxpE2jnTErzWOtHGkjSNtHOn/NY6UN+yxi9etrjATtOqXpJVmAozdGZF6S3T9vLusTp1xehYQ6xLwaoWqrT4p08/qlbOIeoG4tn2U88TVD94EzHIyAd8KVyCzoG4OSe7qwACbEwo8OWdTB6ZEC/prAxd64HEWp9y2k0uZev296+t+/IbrR7CyA23BvwJ0JSUQYC3oWVDwpy7ZOQKGxSCiO3DhsmIXAC2gW4CyvX/vgnzJbMfRy4N/Qd9wCManKNcPbrhtJH/49KadI5RFILT+8AmyJhOB0RI42DKRDUe9IHKhLwKY/RLUT5C1UBjB9YKkyY1OwYgjjzJydB23+KIhAzIhC0H0cAmGhi/yoUdw86tz73FzYDkdaUOedCBQHz2C0umXjOhT0Df9C8ynI7SQOTq1QYvAb7rQTz09k2tsUTu0J3GAd7jR5k63yqyQ6R1tdAE3uX/4gnnLCT1kRwfiyARbC8Qmw1eduDySWkhsAS7duuOLDQj+D156pGO0kzH87EUbiSA4yGhDbsrQwRbAI2d3diYpABje0YZf/NCZS5A6m8uZonbkSFbw+Yb1EwrlEtyOP+0F3sOrD/oE9qMfPvoiZzDohmzBYgv0l2QK5KgdXWgnwYN6+uJFGV2hR71vA048SkBg3FFOb9rihUzoBl3GE/ZD72jUBn3oog/2SJZsG5/0q51vwTs8dENOLt+g/oELP970wQucvku6QQtayQ0M+qBTOsAnGskysiE/u3FkSE5kQlfuEjKAlwQbbBDtxg8Xunw38OMRv2RGD8qMdfSNbt+1iz6Ua6cNe8Sb71adcQAvvn3t9UUPnsjPO3rZgm/AmIZvYxwb90wvYOGJvPEPrjYcANkuW9AGbjz4br5y9f3j2zFWSHAAXhLRkJ3viRzZA/nF7owh+JeIgcyNM74v7cH2jaBXMgy6Zc/0kjGHHMBjM5ElnvNM7vgGh61krEc7GryDaxyVlAHPQsfIkL6+9fy7J2MxulwSNhiLPS9A1Im0E6kPkREyqnyQbKMTaSfSTBadSDuRdiLtRDomBROGX6BdkXZF6td5V6RdkXZF2hVpV6Td2h1bC93a7dauLaxu7XZrt1u73dod++bOCHpG2jPSnJ30jLRnpFaNPSPtGWnPSFcckJy75TDY2YtzFw4Hyn0sJtBOpHU2qrNRnY04hhgr6mxUZ6M6G9Vrd3i71Wu3Xrv12q3XrsVDvXbrtbsacmAF6RejyxYcl2LPQhhccW3m3MPVOWVdkTb8xQqDzQhR4PBjR6LhLw1/afhLw18a/tKJdMSK+QFhkhDf5UeEODLxV12RdkXaFWlXpF2R/juNIzXwiyO1UrRyFJjs3NIvgxM2vHQE2yYwmFeg9gkyV+5c0wpDPxOHSxyiYGFtBf065zC5MCJ9tfVsJZIy+LUXKAu/u1UuOLZClAlKRgOcPNOUe7faNXFZ4WhnZQx2+HAHB08u9OiD/qyO1KMRDeq864cOwcHvPWf/CNIViC0IXMC5QGPBwgKfwUSffnghA/JEl9UWr1oBxAK8BTELzjbJaoMPwb0mW3AlAfjaNa+cvv2CV0xffc5905eu3DJ4EtwsSFjIhqQB+gp0Bh9fnrVxIA++BAjaoVmQseBmfawCow93V2SCFnTRE13ih4wkByAHOATA41FbF5oF4jvX1Jd+6I6O3OmYTuDQjkzQAYY+2pAXncGnHbjq2Yqga/XaaQ+W/tGXcs9sAc/wxlaU0SFbBhd9dMGByf2D5+8bAd6C1OGmn4TFkJl3dXRD7nTDzgS5h2+B+SZJfKMvwetooBfl6MC7VZcAfe29o5edkTc5wYl3eosNg6MPPWsX3uDHOxmRKTxsCx90FzmCh0bB5WhjB+yDrWt3xPorBm7yJkd0gIkXcMk++kCvyzs5w0EW2gu2J190qQ8c9WCTBXzkpz28vh/v9AmPdxe8ZEYG+HXpg3+6IA8Xe8ebtuokJKBvtLETiR/o2Tu60IQO73iNLPFBlmAKytcOzWyerUgW4LtSri/ZoNs7nsAEDw2x5ehakgk0Sr6CJvbElnzbkhYYRySMAIdOJHdgr+wCLHCNVfBFJsrhjH7gJZ/oE90u4wrefMPh27cMDvh0gzb8JWEHG8mZpHZkhHeyBFMyBvWuJB4Bk9wkN5Fk4qMX7hm42SP+wWQ3aISTDNkp+t3xQz7kCY4xS5IINuUCR39265skL3r1nbjIh5zAc187J7EJPERXbPQp6y4aMoCX3snPuG98kxBCkgXfIlrZ2KMbD06fu2z79NlLt08ynOFPuQQN3hcorhPp9qFMCuhE2om0E2knUoNuJ9L5uKETaSfS8SvMLy+/evwic/mF1hXpvPLw48EVmVhJ+MXmF5pft+TWFWlXpF2RdkXaFWlXpJ1Iu7U7fix0a7dbu9ni9AOyW7vd2u3Wbs9Ie0a6eNc44zAoOs9xjuL8JQOksp6R9oyUTfSMdD4b7hlpz0jHYMmpwodhu8lAaZvWIbPDeNu4DvTjqOHXZ7d262xUZ6M6G3Ui7UTquKrORvXardduvXZXV9smhnrt1muX52m9duu1O4yAhxyPWdtwVpDuBgnOLlaeyrJd1xVpw18a/vLg2KrsRNqJtBNpw19GbI9fU51IG0faONLGkTaOtHGk/ybjSLP6E9Bq/1j8VIJwTXCcOKwArRadQwqFUObMSZng4ZxDWiVYPWqnrxWkFaU2Jkpl6pxhggmXYNkEC2sLN3hiW/3S0t67O/rAOXzdJas0BgdYCfLFk3AOwb/6aaMMHgkinKmqc8cDetR7Vo9OOMGA74tXbB3/+i4g17/Df2bTjrHP7p/aBbn7N3mwwcOD/vjAI3kIgBdgLPBaMgfPgnnBxhM8YAgsFnT/9efeO/3ghtumP3zhndP3X3L7SM4gtlFSCIHcApUFQ6P77WcdHAHsniWGECD8iYt3jXYCrQUYf+/Fd4x/cpfYQNCzoPPoh4zRgFbPdKtOGdmhEQ/okowAnS76IS/n0uTOgUEbdOAHDJe+4ArIFkyNJvXaxQFEG8/6o88zfcZuyEryAn0EwtvSJA8B2eQMrno6xRseTMrwKIMfLZ4FdnPjJ0syJC/B1fSIVwHs9EXHbzljTucIr3J/aiyAnkOTQHQB2wLUBaB/4LyHBj446VgAN1sAE40GBwHvgtPB8ex7EZzP5vDrm4IH/+A7y9EfHHpkH3ijG+2VmXjIAo++YfLVH//goxU/kgoIlmezkkGQI7q0iZ7ZvL7uAtHJmX7JDV/w0hE66Jv+tdWO/MH0Tr7o1keZd8kJ6IDO8Eanvjn0aoN+dLJRtoLPjBFotEPFNsDAizb60gG7JwO0u9gTOuCiB8kG6FpSATyjC8+RpWdwfZfak6kxA3/0yz58d/SGf7zSJ5xkA5+dAbKCFyz8sEt8ope+8a2eTgT8/+Vdm8e3KgGAbwo+4wh94wMN9OzyTM6e8+2wF3jQb+yhH3JS7ltFNxvJuId3tEpw4A4WmUgy8AdX3z9o+fhFu4aNZww5fsP1Q2bGPXL0vRgHjTtkpZwe8ObbglPfbz7vntGGPtEAD3njC5/wsxG0o9k7u3QH0/WVq+8f8mezvguyJ3eygl9iDrjZBRvBP9njFw52tRaHcjrCd2SmPbmoU4Yn3wk+fet0zAbQQEafv2zb4M/4YKwhO/wuMGaMdCLtROqjZOyMi1EyLIbIuBlxJ9JOpJ1IO5F2It01fmh3Iu2KdEyWfuWaPE2aXZF2RWq1ZMXg3hVpV6RW4V2RdkU6tl2sqkwY3drdObbNurXbrd1u7XZr1y5Tt3ZvGwuKbu2uJLN2psAo/Jr2bNJ0DuL8ohNpz0itum1Xs4eekfaMtGekPSM1LzhX7hnpyr8SWG12Ip0dj+psVGcjzhd+UNbZqM5GdTaqs1G9duu1W6/deu2OnaZ67dZrt167DX9p+EvDXxr+0vCXhr80/KVxpGKaGkfaONLGkTaOtHGkjSNtHGkTMjQhQxMyjGB13opNyDDHS3M6aUKGXVMTMvwTEzIIuJfVgddrskOIKeSwoFx2GR5OyWQTj1htxB9qx5UaHBk3tOUdKclDPGbdweYYBA6vOZknwHLnPSUziKQQDDrwkoHCBw+X+DY0gQGfsnhegcXBQr3MHtqCGf4kGnj64rUj4YA2YKLHHb1wyTCDL33Q6K78x3dvHtd3rrtrZLL4o+tvH9lBOPcIJZAJI5lW9Eu4DdrwLTOGNjIkyYzxjo0HRiiKgF5ZRmQ6cQZw8PhHRjYUeP7i1pumP3n5rdO3nn/3WAlzIvn2C14xffmqByb1kiOQlSwf+pK9TDxfunLLyIqERpmUPnj+vgELbllB6EsIDNmgj8zJgI6UoV0bfHt2Jwd8yCYitkzmHrjJWb3sLWDiRfYV/cEFk47AkeVFvYsXLV2pkzkEXS6xi7KV0D/9sSG4ZR2SpQROmUmSsUR7eke/MvTDn8QSbBcOFztTLsOK7CUyl8gyJDOJX5ey2WhHnjK4kBv9am8FIsvQO591YGS3wTOZy1jz1jMPDf3IfMKu0OtZtiPv2pIz+PgwWINDVzL+4JsnMX7RqJ49wCsbEJrYpP7KE7YALvxsRnak2B07IA/1Ls9kzeZk0JHRyaoabm0jN/oFw7cAh7sMRugCRxlYaMCjrEHkj0ZwtJOZSDuwwcU/faOdTbAD5Xhm+8okeCBbcOlOhpy0p292FFjkJ6OSvuxNNqlPXbJzfFvwoBdt5BHayJlM0ZZsUvgMX3jLdyALD/2TD52TAVuxGyV7jTr2yZbBQg9a0YMn9oVnfKIBL+ikI8/u5MOGTVi+bTyAy470DV1odJHRUYvXjH7hjezVGdPg9J15pwfyUs6+jREyOsHpW+KUSc7GI7rUR7s/ftmt05/+6s3Tn91088ikJivRD2+8Zdiwfuzna9e8cownxiR1xiFjDT7Qb3xiY8rt3Bm/vvqc+wYM3xL5sXM42TkZoVOcKh2wczLFL5q++6I5q5vviPzxwq7QLsOUy3fkGyVbOtEXLLaMbt8NXMYFvBv/yYoc4Xdpbwxha57BRb9xwXdsXEc/G8LvFy7fOjLLeWZ72qJtAdB88AjIh4so5Z1IO5GykU6kuHwdwQAAIABJREFUnUg7kXYi7UTaibQr0q5IuyLtinSsirLyswrpirQr0q5IV4Jqu7Xbrd1u7d4/tvesHE0QLs/d2u3Wbrd2u7U7BgNbzn5F2m7uGWnPSG0394y0Z6Q9I+0Zac9I62w0nDE4ANTZqM5GdTaqs1G2nDnluOpsVGej4SHFM4qnFGcVz/XardcuT8N67dZr1yRRr9167TqCqNduw18a/tLwl+Eq79jBlnPDXxr+0vCXhr+M+JuGvzSONHFWDX9pHGnjSBtHKi694S//SPiLD4Trr+02Qau8/LINywuSN6xEBc5vLMHd1QvG9yyo1rIcHPUCgte2PWbxl0Zgc2A9df2lY4tXsCzYtn1z54aur7uzAgM5eGCLZ0WbZ7TCabIHJ//+ojxByZ6dMYBhpQCHMrzqC56Aa/UCwXm1aQMHnsDRH69/u/em6a+3bJ7+8IV3jqD2b1x7zwhId8gtIYMAbskKBHQLGNcH3XDhW7C1hAwClCVGYJCC/l938hygL6hbcgB38ARH/8FKELjAZH0EK3/9ufeOQGFl7z57TmBh9QM3OQpQRov+gqwFErs8f+SC+c+a8Ws7jZxd3vFOHmSrjOw945/uyU8wtcDjj124ewRhk1X0hjbB0gLTJWfQF99kiS76FMhOpnALSBfM/qbTlwbfZCG5AN7feNrS0KutX7TAQX505xns2Cj62CF5ezbhg41+eNmjZ/ZBp+rRKegaL4Lo8SPIGl3aPLpxTshArgLNleNF4gi0KSMvCRME29MZhxc6oG+00I3+8CUoHB2SFwgopxOJAgR7k51gdjbJZgTQkyE63PMjRlKCfGd4Y/v60oszdjzCBQ+dkpU7WZEN2xA8L6EGnvEu6QD4+KYj7ZPQAr/0Qm/oANcl6QEnL3VgoB3ebNNqSxbkgwbyc7Eh+qcfPMIDLz1LMAAf3UYe5Eh/6Iq+yZou0MBeBPn7hxNJJvCS7xs+MNHCdnyXkiF4Rwd5aI9fR01Hrr9qyF5CAbRL0MEWJXEAOzbPZvDlu6df35qEAGThwi968YVOukYnGn3/7Ae/ZKXMNykhA52Qs35kTCd0jVZJBNg42ZAHmeMPLu94Zjd0gC/l3skGfewjsMBBJz701V5iAYlevv+S20ciF0kiJF8w/tCF8VvCDEkSJEeQjEGyBWOQy5iGfvLyXelrvPrzW24e8NicMnB9e2SOHt+27+W4xReNbxUt8CkjG3i+9+I7xreiv2QiVvl8SeAhW4lh6BdP+CRX4xhYZJdnMiVb34hvxzM6lOujTHt2Bp6EN75p+nLRv2/auG+sQI9EDLmT4QIFIZ5CIIrRQsQYKKYTaSfSTqSdSDuRdiLtRNqJdPUXq19EXZF2RdoVaVekXZF2RdoVabd2xxZTt3a7tdut3W7tdmu3W7tjn9r5gr1zd9tItpft99t+toK07ezZNrRVpf1tZwMGkZwX9Iy0Z6Rsx69MNuGZfTgXcfbUM9KekZpwekbaM1JjQ89IO5GOHxl1NqqzUZ2N6mxUZ6M6Gw2HJiuIrkjrtctLzq/Eeu3Wa9eOgjEhDpD12q3Xbr12VzyAG/7S8JeGvzT8peEvDX9p+EvjSBtH2jjSxpE2jrRxpI0jHbG4CwKfbaXFQSMB+ZwzOO7YcvXLIY4+nH8ECTuwjwMHpyAOQAJ+xZ36R3fOQFzLtc/WjPZPWXfRqJMMgfOHgF9bONnjP+zxp46Ad/+cLlgXLjDB4nAktlU/sa2Hr7tkPKMdreDA5W7Vo52Lswl6PQu8xTO+0Oid44F+eEg7Tk3K8JZ/jxeAK8hZELI+ArwlFhB07NmvbOW2JckMvWAKBhdELMheYLbAb8HHAtMF5bvbsgBL8Dh8cDn/FBgsgFpwuEQOgqKVCU4mM+3BFCQuMFq5gH8BxPD5Z3f94cEzuQjul1SAbuiE/Nyjw7RzJwcyAhcuNCX4HH5tJBrQThuB8PSWZApwwCmQHV6B24Lv8Y8f8kSnO7kI8IePDMmP/CUTAJcd0KGEAHRHV7b+2AT8eIj+8KQsPGmvLx05UxTU7zny9C7wXKIEfcTNolMZOu47ak6gYXsRDvLz3bAtiRkE1LNldG95+pycQjtyICdl2pIRXeGHzXonH/DUk6V3gfxsig2iO9uaSSKiDT7wqJ5s8My2o0/lcLvjB0x2yB71pQ/yA9M3u/7xpw/ZKicPCUPwRVfkR87osP0uMQU+2K7+6iI3MoQjsolDx9pvEw6yIQf00in9wYMHNqC/NrEHfYwxkp4InGdT7Jqc2AnZkwsYaEKrdmgR6kQHaDG2wOmCwzgCD17xxs61BY+8JGj4/GXbxnfFJtgw2SSpBp2hATz04YNt6es7lNxA0D5bAxM/bF6gv++JfftO146zbIe8yIKOMkazQ3JWrz2ZsAH6M+6lXIIXujEesQHl6MIjXGyCnDxLCiEJgsvY4Z7kE/r4hn2rHPUkRtDGmEcuEhTQA/4lSZCMQZvPXrp9JJDRT8IH33dkj2Y84I+86AMv6DWekK9EF/rQGx3TiXbGHv19c9rRk28UPPKPHZAx+HCyBd9HxmTv+qinfzg945XNGF+NpXDBI3GMsRkv+KY3dkWH3tHZibQT6TBARsQYGTbDMiC5+0gZZSfSTqSdSPeNH1edSDuRdiLtinT8orMC6oq0K9KuSLsi7Yq0K9KxRWFJ363dbu1aVdvCsm3FJrq1263dbu12a7dbuz0j7Rlpz0jHD4Oekc5n+z0j7Rlpz0jrbFRnozob1dloxeGtzkZ1NqqzUb12h6davXbrtVuv3Xrt1mu3XrurrtW8NP1KdL7kvKnhLw1/qdduw18a/tLwl4a/NPxlxArFCUUoR+NIG0faONLGkVowNI60caT/LHGkCVwVRC+OkGEpsxoVwMoD0rvAVq7ykGrjXbIEIRSCXU1OVrPqFn/hzFEmHWASJ1jhCnwWMCtGUUyad+3BtFce7yq0eBYwDCcc8GmLRri0QZePQX8rJ7jATyCuAOWsrvECnnoBymj1rI06PMCZwHJtg1PQtOBqgci8AAVZo0HQswBuAbsCsNFgwgaTbBJILbhYsgFBzv5Znbu5gHZB6PgRHCwA2CXQW/A3nOAKolcGn3e/DAUMC7SWKEBQPHiCosHnlCJ4WTt9xbwJGn7vOftHkL1A/J3HLA+9otMFP7rx7x0fAsfhJL94RAuOFkBvEtI+A5GAaW3BJsuEVOBNmI1ydNz9tKURdA2eIHaB8oKayQYP+FRGn9rE3gS+w3nk+quGDgVug4UWuoYb3dqgmzOCvmzXXRs2hD/96JWeBZh/5II9I2CebPVDBxiCy+EhT7wK/KZrMiV7tgMvHiXLoGPvaCcP9sIe1W94wsaBl7zgJEf8oY9s2DX7Y3OOCsgGPRIPoBNMZe7agYNf24kpZ89gutDm24Ab7egQyI9X/KENbHr2Hfk29fHMjrWVGEPsMPjaohUtbEdiAUkE2C954oGM9WOHgv7JCI0SGNALXOgne1vh8Kg3FqATbHSQvXcyQTf7wQs+0OOZnmIr5OQ7RH/4hwu9aGE72roE2IPNRpMshSzBhAtfviE0+SbAkbDANyv5AFj4Zxfkg28y0F9bsNAPt3L6MV5IUOCbNW7E9owldEGOytGmX8Y6sNkDnsgSzfDgk9zISns2BybZRt/asAe2xl7xQ35kLPGLBC5o1Yd+fH9oDJ8SSBg/tIOTLvCPxu9cd9f0/vMeGn2MKfriVcIP8tNHX0kLJGsgMzLVl4zoE71od4GNFne2j2e0ai+5A/n7nnyH7Mh3CWfkRsfsAu/gs0M6wBs4+a6MA2RJLsZ/ssi4oEy9crsveDBmsmM2bexyxy9dScBg/EYXWozbCwQFoI8oBqwMUsrDrHfMQ4ZATHvvRNqJlC10Iu1E2om0E2kn0k6kXZF2RdoVaVekXZFu2jF2aLoi7Yp0rLCtmG2B2DawDWJ1bdvAtke3dru1a2unW7vd2jU+2HHr1m63dru12zPSnpH2jHT1jNCPRZNDzsx6Rtoz0p6R9ox09QDeeZzBwQF7nY3qbFRnozob1dmozkZ1NqrX7vhhUK/deu3Gu7Beu/XadSxVr9167Tb8peEvI9TE7kHDXxr+0vCXhr80/KXhLyOms3GkO0b8Y+NIG0faONLGkYqfbBxp40ibkGHdruHVzLO5CRnuHwkQmpChCRmakKHhL/+khAw8/JzPGFB5drkkXnDn+ZeMGhx8uIrbrpOUQbYNbYSWeE+WCAkcvGsbh6BkLZHhRX9nANrI4qE/Glz6BJZ2edfOJXOF7DRoicu6DCXcltEvQ4U2vBQ9c04K3ejDJ35sN7ork3gCLG2VweuKDNR/4uJdI0vHl67cMrJayEiCT9luZC+RkAAMPMj0oq9MTccs/tKYpGT3kFVGNpNPb5oznCR/KTgGcBkz/MITkiEriLMyGVu8y6KBb3hlC0EHnHjWTjYgGY4+euGeAUMWEvDeftbBkTnoq8+5b/rspdtHxhH9ZOogJ/KQ9cSFfjKLPtXjnVzoi2xkc7FNJxuKvtrjE53OdKIzbemRHuiQjmQ+kdGH3YCrnPzRL1uJTE6ylaCZ/NDDftBGfu5sgIzBsjKWbUQ5WrQne/SjJfZEbtrAJeOJLCz4ITN80O0PbrhtyAndBlLZa2SiITO0wQemrDCcW9g9+vEi8w+albM1eGRAoicy9H7s4nUjk4psPvQEjkwtZIRuFzmjk46TLUUbtgEXesHz7HsiC7pkf/gmA/LHN1jkQxZo5YzBHmSuwZfMNGTquwGHDUquQp/0i0b2Sb5gkAu8YJOHTC4yv+ir3MUOyIkerVjRcsT6K4YswUSD/miXMQaO8CJzUr7r8OMbRQ8ceGAT5EHmvgnfkmxSBj12Qz7kT4YyTYGnvS1F9u6ZneofG2df+uDfZdeJbmTToRsylcUo36zvk1zoh87hZEvsHL30Az8+yUyGMfaUjFLkwgbhpAP4ZB4Ch82xFTKhP23IMLZLV/kmyVqb6Ns4gCd40cKe3PFNz+xcPZi+N7jZDBie2fnXn3vv9I1r75m+/YJXTN9/ye3jm2Az+ggbNOawne+9+I7pm8+7Z7RlTy56oEN2j1fjj3LPZA4HmbIPukQvueGX3PChPGPaoxvn8VBmI9+Vi82gnczIlA5kGIq90Qudg02XeCMHZWT3lHUXrcpA5j36gVd7ekaHfnRmvIUbPexHdio2Bwd+ZFNiJ3SGJra1QPgAAYiZGK07QiB0J1BKhpyRMUhtYpSEko9SvbadSDuRsoNOpJ1IO5E+NH5gdCLtRNqJtCvSrki7Iu2KtCvSrki7Iu3Wbrd2u7Xbrd1tY8fMTlu3dru1263dnpGOM5aekfaMNGdmzod6Rtoz0p6R9ox0nMU6X3Pe6uzV5bA9Tgk5UK+zUZ2NnPGzhzob1dmozkZ1NqqzUb1267Vbr9167T5taXhR1mu3Xrv12q3XbsNfGv7S8Jdj5j9krtduvXYb/tLwl9X4TbFLjSNtHKljh8aRNo60caSNIx1xpAKdBdwKlDY4iCflrCCYWoypQFb1zifFjbo7k0o8aeJHnVElKJhxBY5nsPUVk2r/GlwwD193ycAJlzNQ+MHjSQdW4CkThOx8FBz9weFpJVZVf3icpwq+9Q42PlxwSQIAB9rhybka2PqJ70IfmMrwo9zzj26/afpfh26e/vKuzdO3nn/3JMEBuDuOXh6BwiZWAcNoEnSvH1rJ1l3AsyDmP37ZrdMfXX/7CFi2ZUGGaEGbAHeB7gKbBQAL9BeojXZBwJxHBEtLHvCnv3rzCERXJ8mBs0HKFAAN1x9cff+gUVAxWn905+ZRJnhZILGAYkHa6EUreZMN2ZIjGaDLRZ7akA09+lUpqQH+6cEZtSBmNOLV5BK+wNQGPPwKYJbEAixt0U9ugqzRhlZyUkf+cKANzc6+vKPPlQQQwcVO0UevaIJX+9gbe7QqwiMaBVpLFPD5y7ZNX77qgfFM134o0YG7wHJ0JdibTvBBx3QmEF1AtuBwfNA3WXHyEHyPTnzg1zPe1Wkr6JsO1LNtsoYfPerIRBB77ENiAMkZyIYs4EEHHugTr2QBj0QK+sLHbiQskLhAQL1EBuyEvfmW0ZZvk671Z0tggKf++A3XD37hQAe4dOKbcfkG0cnhLUk1fLsSUeDRd4JvuqQH9spm9JHk43UnzwkaksDAXTITuoRbcgF0CIrHF9kI8nfhx52Ojlx/1ZAJO2OjbJUuyYDs1toMWo5avGbQk29dMgh88WjGu/Zg0KUEDOrpDo/sh+5lBSOzjFVs2jNZaecPsvNNsjO0aOPbBo/MPJO5Pr4VPLNh7dCGf/SzZTbOXuiMLN3ZAt3B605WaGcXZMtuMx5LAMG+yNLWue/thzfeMv1k9+Zx/dV9m6cf37t5+s51dw3e6QB/xjjfp/q/3XfT9L9ff+dor61xCVxyJytjpO/H90FO+YZ8f3TuO8GTZ3Sxe8/shG377iRK8S3AazwDg+7ZBp2wG8lB4NPW+ONbID/yYD9kR5bkBh950jt7pV9jRPSWcYFO2ZPkEuCzBYk42DF+jLfw0EMS6LC1hU6knUgZVyfSObNMJ9JOpJ1IO5F2Iu2KtCvSrki7Iu2KtCvSrki7tdut3W7tdmu3W7vd2u3W7tjzt79uPznnMDmzsl/dM9KekfaMtGekPSPtGWnPSFeS1fvllINbk2cOtzuR1tmozkZ1Nqqz0f3Dqa3ORnU2GqvKeu3Wa7deu/XardduvXZ5+tZrd/YQr9duw18a/tLwlxEy0fCXhr80/KXhL6vxVI0jbRxp40gbR9o40saR/tTiSMUQcgASeOtcUzCv4HbB1A6AE2ytzuCUs1CBs8oSDJyAYYGvAp1zNqo+wbCCjMEHG04xrE8+7NnjPcHsiWtNwDGcfimDk3+GF7gMljNZsNCedmgivKcvXru6FS2IXeC4/ramBVGDBwb+nOGhC51g4i3wBO7++O7N008e3DwClwUHS3QgIF9QM0cJgbnuHKi0xwO5kpWgeQHZApwFPvv3+U9e/OAI+IUjwfVgCAAW7Cu4/IGj5gBnwesCnQUE+xf7777ozulPXn7rSN4g9pPcBZ1rJ2BYMLGAZkHRgu7hhlfQsmBjyQjA4hUc/GglR/STFVmQofKf/dknjRjT9Y8/fcgQf4L18Yg/bfyTvEB9vICvnP7pTT19oQ1vAqn1RbctYgHrguoFVgsOF4RN93RKR+CJ6QKPftgNPBzY6JStwQcX3dGLYGy2K9BbWzYBnvMp9ONfsLpAeMHpEmHEXuESJC+eVDC4d7JlN3CrAxNOweGcpQSLK0/yEsH1+sEl6F1fshaQrh3ctkbpACx2GVo/euGekZBDG4kP6ISswGAT+MOnd7J1kb125IMPck5/gfkSfEgaISkDfskcz3Stf2z25//jcUPmJiA8ky85kl2+GTyox4d+yvHomW7BJxP00F8SI6CbztgWnSpnB3hiT2yePPV3nqo/vGzHN0p+9CbAX5ynbwUPj248OOyaTNDBdvTFN/2iL3Imx8hMO/hzsX/t6YW3tP7oJQffNpwSKAjIZ8tkLgkB+GCijazYCFrp9N1nPzxsyLf/pSu3jO+evskV375begKTzDhfsisXXvCBL7Siw50ts3Xw4SJ3tGqXbwZ+8pU8hO6NU2jUjrzI2JjiG5ckQkKFJGT4m22bRwIXSTvQiRZ4yMTY8mc33Ty2c//u12+btP2LW2+avnL1/UNn5MzufcO+CfLEJ1she/XoB9PYS7dsBN3sn72jG27jFZn5HsCX3MJ3RV7sByzjDnx0Y2xjz/QJfuTkm1AOHxuER50yfD11/aVDrmDSHz2wK/Yl8Ue+ZTYKDxo9o9P4QEZ4WCBgADEDAUPvRNqJtBNpJ9JOpJ1IO5HOk3Un0pW/XjModEXaFalf8F2RdkXaFWlXpF2Rdmt3bD90a7dbu3aUurW7PLY2u7U7H4d0a7dbu2OP29lAzgMYRc9Ie0baM9KekfaMtGekPSNdv3cc+DqDrbNRnY3qbFRnozob1dmozkb12q3Xbr1267Vbr9167dZrt167DX85MAaChr/MOaG503PXb/hLw18a/tLwl4a/NI60caSNIx2xg40jneN1G0faONJ/sThSQaiCUjn18ALl6MO5x/kFh58ERTvbFPwufEAwa9oJSFanrZgjcPQR/Gr/213CA8G3YhPhg0eArLhVjAmaVebOC5H3nXpB50mWAKZLPVwCkIW0eE6grUB8Ls1wSPQg+FkfMLRBH5jK0Q832vGqHRq1UUcmfpGCJ7GBwUgihfzrvTqB6QJ3BbqTCdmAb3UHHzyCuQVGf+zC3SPI+HOXbR/tBStrK0gaT4KLBU57F+wrwNjKSCC2QHc8CVoXBCyoOgHg4QMt2sGVoGK/pgR7ww0euHiED33kjG5yP3L9VUNfdJTgdvqTiIF8/sPjjhyB/gYjNMGrTv/Ac1cOFt0mSFxyDHbiQiMZg4MmspOMQiC81SAa0SaWmew5GUlqgRawZa0Ch/yjZ/SxF7TYYaBLstWXDtClTDIB8AX8C6YXG7Y2SYSEDTuOXh66oGdB6OjVHw44vXtm5+h04UMyATSgEV684JNd68c2BJHDjw56UYYvNsjevLMBQd/0yxbwjnY4Y6t0xO7ZL/7AI296RI8+YJEH+HAKkOfdKxCfXeBTX3ywCXIlOzJHA1rxTU/w4AleSQSSTAKvcMCNT33xBR9ayYNc2Iv++ABPnTv7QKv+eFAGvjLt1YOhPrSQJdrQTneeBf2TNfzuqVOPX/gF3OMZbWSHBvS4jA8utEu6oD18cLMTCSzwjBf1vl06J09yDh/uYJOJy7eon+QC7sYrOqITuNgxGrVle8LzwMhYrMw3in9t3cFgK+hVxs7pXB0d0CGa2E/GBN+Jd3jJA+7QkoQGEs1IgOD69KadI+kEGcQT2jdjXJE4xW6N6+1nHRzt0EGeaHH5RoyXSdpBt/CzF3Sih37RCT4dGDPho196Qhdc8JKzOnjAzveRhAlJboF3cxd4YPtmyMmzOv3ZB1rhIY+0RZtxSrIKCWKM9fgjQ/bItuiT3tmcCy3q4VjAVCfSTqSdSG8bg1kn0k6knUg7kXYi7Yq0K9KuSMevcCudrki7Iu2KtCvSsWxeuw1jiW/7xBZIt3b3jO0SW2/ZxunWbrd2u7U7b/t2a3c+7ulE2om0E2nPSMcZhZWVc4yekd42zip7Rtoz0p6Rzknle0ZaZ6M6G9XZaDg/1NmozkZ1Nqqz0dhu5RFVr9167dZrt167jmPqtVuvXR6z9dpt+Mtwe274S8NfGv7S8JeGvzT8peEvjSMdMXSNI20caeNIG0faONLGkdZrtwkZRkA1b0SJN6wWbSMK9xB4Lci6CRmakKFeu/Xa/aklZHDA/fj/dPwIJ5EZQ2YIZ53CS9QZlGQKMWg94edPHp6TvCdl6NAu2URkqBCGwfXe+YgwFZmQ9OdpCbZyg53sFslcoj9mZbYAD5wNT9i42tYg6UrWCm1cybji2T68s1m0y7ZjEEU72HCDLZMFOGiQNcc72tzRoy36tUdbFKBMdqLXnrw8Mgr5NS/DBz6EnAjg/+iFe0bmFDTIeKEPGDLT+NsfGYlkKZGJQyafRzceXM3i4/zAr0NZMmRJSmYX/eBSR6b6owMMGXfoAx7emzxaZWCRCeTdZz88MtPIJJKMI7K6oFVGEDTKXCPonDzwTmYmIjTTK91buZIr26BLspUVhWwNUNEJuYEt44v+5EvXLu9olDGEvNBka4T9oI1cfvu0pZExJjzJToUn9NAbGDKxwE/n6IKbTYKJNrIgA/3w5xkddAuedsrxT87kSF7kgBflbIGcvSt/yxmHhj5kOpE5Bp5kM/EuExX9kInn15+yPOhgN3SILzCTGQbvtgbhB5+u0Zl6PJAJGvDGLmKX6KdDsiAHbV1o1Y7s8ake/NgUHdBXMjmh17M2+AcXDnQu/sKZQ7a+J/aNL3DwzA7Ik66VkY2sUGwTv/gg38jYt0JGcMsSA5cy+kCjfnB4RhN4dEKGviV3+OgTPZED/eNJdiL2S87sCXxZl+gILWhGP/sCK5lwPOOZTZKn9njSB230KBuPEDJyhtvzd19056Dx/ec9NPiQict3iAZ6pQdwwNCHfcvGQy9krd43BZ87GtDGlsmATGO7aFNu/MIHePmeyIHekx1JXzJXb6wlM5dyvMrA5NuB11ikDk1kw9bQjA5jjUxErmTz0g9uF5rBIxs2nBA7OvPt4ycXPODLpCWbExz66kdW7Ju88Yn2ZGUyRqBXHTr0kVlIexd6wTbeBrY7uPSPD7YInosM8U0X6Dd/gE1O5Kie3PI9sUnlv3/+vkmWpy9esXVktGKb+PZNsg/y80yn+KE738dCJ9JOpJ1IO5F2Iu1E2om0E+n4dePXRVekXZH65enXd1ekXZFa2XRF2hVpV6Td2h1bG93a7dauLbtsRXVrt1u73drt1u7Yx7d3bQ/d3nbPSHtGanLoGWnPSK0i7Sj0jLRnpD0jrbNRnY3qbLTqTFRnozob1dmozkbDW6xeuweHl2G9duu1W6/deu3Wa7deu/XabfhLw18a/tLwl4a/NPxl/Z4RktXwl8aRjliqxpE2jrRxpI0jbRzp/4M4UgHhSbzg7l2wqoB4Qaq8BAU+C2AWCO/wVwCqIG5BtZIneBfcKlBY0Kw+ZneOI+LTJEAAU9C0tgkoFuwLJmcj/37hDIGDAacTTkgcDrQXYAuW/voIzEaTZ6EOYKCbAXFaEuirL/rA0g6cx/3c4dPh6y4Z9OFNwDi+wEAznoIfX2gA47OXbh/Xl67cMsm7+5EL9ozQCls7AtMFJqNRsK8AZXTk777QKkBZG4HMj64kY4hLvuBeNHx6084JfAHG2gtgTzC1oHUD5DeuvWf69gteMX39ufeOBA3kmgBzAeKfuHjXgOFZEDE54E1QseBl5YK8BRWjE81kg1by8kx+YCojO3KILskXPXuZAAAgAElEQVRcMLxyctGW3N942tL0ucu2D1nQIVjczeEnT/LgdZxEBOQKFzwCqW2V41tAtv62S9zRTj6SF3iHk12SKbmzRX+hBIeLPug5gdnwo11QNtsmR/STh0QBcINBFsrR9b5z948gf/x86pKdQ9fk5YzTdq6+5CZw/UPP3jvk6o5+uNgR3Qnap1c2S0ZwS+4geFxfiQd8E3jidIc/8sCXdzYAJ5qUk7F+Qnq09ccAkiv43tBFLmRKx9q6lAtgZ7PvOefhwbMfW2yBrcX+wRQ2Bhfdkgv7lFTAd0J+dIoufKCRLaMryQbwoj+e2Tga6fHLVz0weIUTr/TElumUXN75rAPDdsgDnehSB1e+S98sO/ANoQlc8mHj9Kgfm4CT/tm49vDQF32wPTJBH5lF3ngwfuBPcge2CB5ewNFHQgby+8LlW0eSATYiWYC27JoNsXG4yZIdsCkyom8JD8ACE13oRwecZIkX5fh14YV+wQOLTmTwIj9ydsGJbnXgGru805fvQGIWSUE4brHX4CcHNCmjV+3wKwGB8cXY4v6B8x4a/KHH2K4NO//W8+8e9RIX6MsmfYN4wBO4njPmkL3LO1kZQ/CPR2M+/vDjm0UveRhfyVhiBHQoZ+tsDf10Dp64V0kyfFfv2Hhg2AO9smvfu+8BPWyOLMmPzOnI90J25KxenX7s1Lf/tWteOeyWzo2r5Od7olffBnrcydu1wJg7kXYiZWCdSDuRdiLtRNqJtBNpV6RXzquSrkj3jxWxX7xdkXZF2hXpvCLuirQr0m7tdmu3W7vd2u3Wbrd2u7Vrr7pnpEuracucjThb6Blpz0h7Rtoz0p6R9oy0zkZ1NhpOHM5b62xUZ6M6G9XZqM5G9dod3nC8ueq1O3tg12u3Xrv12j00PErrtVuv3XrtLt4xXJbj/m87peEv9doVRtDwl4a/NPyl4S8Nf2kc6YglrNduvXYbR9o40saR/pTiSAXbCoYVFCuO0J0zkHKBy5xhBEH7h3JhBAJphRRwGvILXmCrwHF1gs9thQq0dU4GhoDYJFJIogbwxa/qD5Zg4icddt5qQC+cyhPwL7ZNwDM64dEebWi1quSkIWgbPHSJi0WHdsrQrkxSh8f93BFjNaoOLwK/BeOjU5n+AnS19Sx4909efuv0ozs3j2Dk71x31/S9F98xgqzhFXxu61egrkBksiBHl/6CkD958YMjqPuHN94yuQSpC/KHn6ORgN4/fOGdw+HIv8oLAk8QsyBkiRnggVuM11/dNwdIk6FzKP21gUfAtEBmyQTAEHz9ZzfdPMq/cvX9I9hdMLV+tmrJNOeZZElvgprJlszojCzxQ/bk7sK7lTz5Car/o+tvH/hseYGLdwkj6I58BbTjTQA1PHQsWYCgeTQmgYCAbBf66E47gfgCotEigJpteAdHW4kXyJHsySS00R1dutgHHakTZC2xhSBuQfh+dLAR/AhM92v0j19269DVV59z36BdADwZCwYnB85hf37LzdMPbrht2IZEBwLi4ZIUQT9JGshTuSQHBjWyt+IR+I5/begJfnoU3O5OJuSFfzYk+FywOFmyG7IgazBtt9LDE59wzkgCgC/90Sq4HC3sC71swYU/uOiS3fuOwYQbPfQhQYbAc98/OsgXPiEUkhHY2iI/36a+eMAPHt0lBmDrn79s23hnU8oE07Pnwx5/6khcIeCdbbJt8mRPbI8s6Zr90bM+Lt8ZuiRx0M+FLjZBpuTCZsjrYxfuHncysduAVnB97y46Z6Pshg7RKgGD/i5261uib3Uu+mPH6CR7FxsCl5zYHTrYkm9SX/KkO3ZNBtp4Z1O+F7L1LUYH9IlvZe7oZLvsUH+2T2/qyIi89MGfH1Dow7OEBmRFl74RPNENerVlH99/ye3j+tHtNw0bYSfffN49Q15gsg3fBLv5i1tvmn7y4OZhT8YZ8mWbxim8+2YlacCz74y82INvgt7o0bfgG2IPaGfPvhN2wW6NtX+7/6ZhC2hDC13rRx/smVzR7s7G2Dr9sVXjF50ag9BPpuRL5uYk80+SWZChtnikP0k0PrNpx/g+8Ww8Ne6SIZs3XrlLAoE/34LvYKETaSfSTqSdSDuRdiLtRNqJtCvSrki7Iu2KtCvSrki7IrX1YLvFFoElf7d25y2Tbu12a7dbu93a7dZut3bHGZu9ahNkz0h7RurHUs9Ie0YquX/PSHtG2jPSOhvV2ajORsPRoc5GdTaqs1GdjcaqkSdVvXbrtVuv3Xrt1mu3Xrv12q3XbsNfGv4yXNq5tTf8peEvDX9p+EvDXxpH2jjSxpE2jrRxpI0j/dcYRyrQV0B7ApUF+AqqVebiRSsgXD1HIUGuZvUEH1v6q9dOmTbKBMUKdhUIe9TiNdMR668Y5Z4F1QuA5nyUgFnPzhfQI/hfuQNoF3zww81zTcwbGhNwq4/A5cVfOHOU6ZMEDfDoK1YSbfDrCwZeBQaHfu/g2NbUXqCuur/esnn68d2bx0QmOcOf/urNI9hZwLyAZEG7H75g7wh+xi++8UImgncFv/9k9+Zx/c22GY72gn8f3Xhw/CP8j+/dPAKQBVP7R3gJGwQx214TiOxZgLBkEGj5y7s2j6BsAd5odAmQFkytTuA02P7FHm40ClwW9PylK7eM4HWBxGRLXmRHZ3SIbvrw7pmc8SSYWtC7IGTt1LMRQdfwRh4CsunpZ37mcUOfgse1EVQteYUgfm0ENX/o2XtH4DdaBYtLBiBxAr2QPzvQllzR9PTFa4ce8S0IHG3o0EdyATrm/Y0+99g1OgWzK8M/WaKXXF/zzDkhApsQZE1+f33/5qFnAeGCwBNozjEGHrJkF+Qs/o5dJFGF5BT6CdhnT7zP8Sp4XCIG9iMxhzJ2AD6ZsjvB8uSTxA0CzPH+5tOXhlMOvsmTfCUiAJMMvbNZPOkrIJ+80YJOdvd3v3bLSObBHtik4PLIFZ1kzf4kHMAnRyC08RhGhzr0scfoSwC9QHs0+X70o2vJEOiHrPGMHjpi82gWTC9RCxolLiAPgfhsm27YJH276JSO4I6+JDiQVIPcyRo96CBTyQAE57M1+MkHfnjXjlNolsjA2bY7vdC9u+9GkgewyAONEkYIzkcj/Ut2IOkBmvDLZiW08O2TnW8Vbe74pFfJG9STle9J8gjfuG+RjdIDu2cLxjXjF/uWTIAtkyG9acMmjZW+YbpjAxLJ+IbojYz+T3t3HutnVeYBvGNQUKC0CK7ASEfGjFChGYeBEZBxVNQZlyjqRO/tctvSltuFLpQLhbaXJUiD2MGKQEVsmg4pIYQ0jASXEA2iIRJnxuA2Ro3jBBFXXKDtvb938nneey7j/zMGM98/3ry/5bznPOdZzvmdc57v98ef3dmPrZBLGCfIS19k4xtIFg5cMb/bf+lw9R/pi7HNuI1YhZ8jy/C9ix68VwYZgnEOukDf2Fi7xhzkCXyQPvSVf5KHHdhVfxF56Isy/JyfTmxf2j21rh8T6ZDt9F2/+If2+TD5EWg0W/ARPiPWjVmOKemVrens2JlndEcfOa/GAbrzubjXR/bjP2zKP/kx39WWMbkRfdA/OfgJXbPjDMbSUBtwGFinfObSYYO073XcwJWJNBNpJtJMpH74ZCLNRJqJNBNpVqRZkWZFOntxrQyyIs2KNCvSrEiztZut3WztZms3W7vZ2s3Wrq3mnJHmjDRnpD25fc5Ic0aaM9KckSbZKMlGdaCfZKMkGyXZKMlGSTZKslFlbyVrN1m7ydpN1m6ydpO1m6zdwF8Cfwn8JfCXwF8Cfwn8JThSGKjgSIMjDY40ONLgSHtMb3CkIWQIIUMIGULIEEKGEDL8MRIyYPRwYZdAxoAZw68bLBAurB/LjxuvO9YOTCjKYbDAHoGBBNuNcogc3BE3NNJzGWcycb33nLaOfMFf1PPIHRpDh9cyNd0xTWA98d5rz8jkRQqhDcwUrT51v/DI11ZZjEnaIwNGEHWpx2vPqwuThtfYZhBLqM/KTp8bi4q6td3a3D823E1ct6g7eM3CYrw5sGV+se1gP8HagWFFMg0GFAkVnqcb9Vst/GJ4foe5CFsIVhnMKBg5sKVgXMHUcWB8QU2kmGEwyQC7Y/TBhKJOjB+YX7DoYCHBRkLv5PT9spdvrbows7iwjmDdwGSENQYLCKYXrCNkUt7zGD3o6XnPfUn1H/MPPdAbe73/2M3TvoCYA3sKRhTt0qsyGF/0TyIBphNt0OsLDptTDFP84eFz1hWLD11hBcFEoq/k9DzGFQwx2IBWHf8MYxHZ1EdeTCXqxfJiJd50TS7sIsqQny3Jz7f4rvaRiyjjGW1gmtEPesYihXgEiwtdsQ92FWwuWFOwwNAV9hz942PumFuwxLAl2/pbOLKwDzthQuEL9ET3ymBMYjs+ga2lJWHpD3/D4EM2esEO4xe22MQqxF/ILgaxBtEb5h3sK/pKP/yJHwLJk5uMjbFm4oYl1T4f1De+Rb9sKI7cMbjoM5/EuqQ+9fBF5AtbT7qy6iYje/FVTC/8gk/ojzwCz2DrIRvbYodhR3y36tU3tsRAhBWrsUM1nftOHPOhw5//yrKR9mUxsxs9ff9ty+tZdZMTQxB59N97sugHPbMdthp2VDd5jV3GBGxnbIRJhxyuFoPsrC9ihg+zATvyY31gV0xS+iVW+Cad0o8y9K9/bMUm2I3IqQxd0jemKOMFG5CljUvuxjx6Nd4ap/ie18Zi/sLP2zjF75XXBh3TrT6LS37PhvpmrCGzNo0Vg9tWdgevXdRN3nhBN3nrhd3kztFiL6I79ZPD2GMMUY4PY4zSf/rho8Yn7eqXO7/EvCXOxZRYF/d0QB6yug455JiSX4w2Ji1YVu2JI8/xHzZg+8YixUf5CpnYRb18QhnzhThkZz4tBsUG3fkO2xE/8J4ezUftv6+Nl8ZN/SGPs3BtqZs+xTgWJ33gf/TqsxkqdmUizURqAs1Emok0E2kmUpNZJtJMpPUL068jv6iyIs2KNCvS4S4r0qxIsyLNijRbu9nazdZutnaztZut3dpuzdZuzkhzRpoz0pyR5ow0Z6Q5I02yUZKNkmyUZKMkGyXZKMlGSTZK1m5l2iVrN1m7ydpN1m6ydpO1W38YLqU58JfAXwJ/Cfwl8JfAXwJ/CY40ONLZl9VqOTjS4EhhfYMjDY70WYsjBQ05ZubpBSQGYEVYAAAM4A2wDIw7/OIthS8EJAYiBma9+MTxDnm3ckCtZv5jZ54xDeBVDyCsOkEPGngY4BgQF6hYvYDwLjhW7XnmJUedXeBk5bxXt+/gHGFeG5kCkC2QstWH+gCaydQIITzbnrdS9bn+kKURPWibjC7Pv/GojXX3uTb1CYB5cOeGbnD7qgJj2/4A/AXS/dE7lxQwGQAaaPjSOVdWfwGj6cD5CdCzOlxIHQC6G+Ae4BigGMgZgNmZG5IAAG/6Hj9pvLvh1eOd81ggZeDuBqgHOgYGRjSg3wgAAMDJpF0gfnL6Ze4zxAFAxmzXQN30SR90Skd0jpSDfujbd02v2gApgjX1HP2zDdA18DkgM9AyID49+v7Q5x1XZckDNE0GpAL6DdwOUE0+F8C2iy0A5l1k0i8ya5u9Acn5lDuZEAIAw/NbOiFf8wk+xg76grCB/7rUaXB2Afg3P0DGwF7A+UgmXI+fP1I6BsJmYzoC+GcTdqJzxAPkoXN1sDGZxQdd6Z96gcx/t7pvQx2A+0Dg9EXX5AVmB1PgU3RJjzedsrXKAsDzLfECLI58gN94jq//87wrCv/37TePlg+oHwGE/iAW4XfahxXlAwgEWt+9JgsfRKrAZogJdp+2uUD29KZ+QHx+5AcOX0XsoA761Sdt+I5N2Jjd+V97HkECggLxSH/05SITH6cru0rGFWQMxid9BoSnD+MPfeijWFA3vQDHK0MGtqJH7fhOH5AnqJMPtZUKnTc/JgM/FotIEpAlqKeRUdANIgJ1AuOrT1/UbYCnP30SO/yY35CNLvm98sgLyIiAQ3zzXc/xXbLotzGKr/NZcqpTHIgHstOBviqvrHhRxqUuPmhMYSPy0RX/8Dm/nNg2Uj7C52ps27O2PvP55M0rusHuNUWiQL/q1qZysKXGvv2bhkv3dPH5My+pMUqfxBKyEO3RFd+je/XwAb4jZvgV2fkfcgSxrK98wdjAB9gA8Q0dqoN+9Vu9/E/d/N74gRSHnrUr9pHMuNMh/TWdsr3YpWv69DkfPezQE8pm+ilmyegiMywtcnpyGdv4Hj36Uce3vUcgMyMTaSZSTp2JtPcDg2km0kykmUgX1ASYiTQTaf1Cz4o0K9KsSLMizYo0K9KsSLO1W1sN2drN1q5trmztZms3W7vZ2s0Zac5Ic0a6dKjO8nJGmjPSnJHmjDTJRkk2SrJRko2SbJRkoyQbJWs3WbtJNkqykZVRsnaTtZus3WTtBv4S+EvgL+ddWBmXYAaBvwT+EvhLDylKslGSjZJsFBzpNC4vyUZJNkqy0bMs2Qg49bhZb6z/7ARWbYBVIPzZR5xaYFlYIkBb2CokBECrwNUXHjden8MhAr/Omf2uArZ6j8xAwIMeNAKFo4+cVyBY4GDfuwPBAhIDB2sbQBchA4AuYgD1AiID7b7gsDn1D/IAt+2f5AHyyQpgq54GWlYe9EX/1Ns+V6/PgLDVDUgOlAsg3foPqEtud2Unrl9c/xoPyA78C5wMiA5M7T3QPvAzELZ6Tpj91pJXHYDKB66Y3x28akHVU//+PjJcIH5EBlYMwMbAvcD+APYAvz53Bwp3RyCgDLA6AgCgZPoHhtcPuvYsADHAOCD98uPGq4yy7XPyAoLTh19odNx0TY8vm/WGbtbhc6f/z5VdAMzpmY6141m68ZrN6cKWIN8AhldWGfWypzqA/Mkg8xjQ+ZFz11YffC4TtfX/M2f0NiGb+vmJOumRH/pM/fxP//SfjtjQezZBQkFWPsAXPcMXkGXwXQB7v9Lptfkx4gvPAM7/5zuWFiDd3zSxLUA9nSFuIKs69dV7NgAG1zdyqROxAOC7Z/gZUgYAeYD8n31gQREi/GJ4fvWJXfUBcJwdkWsAppNBvQg32OiWuVtLb/yMnbQNEE9fVp4IGmDC9cNzQPDu6gFuJ5P3fMNrQHagddu52qU/r5F/ALqzk7Jsy5eU0QYAPt/ka0DqQPJIMMQeYDrCAW17zudsjRhB/8U7+chMXyYD9ZCHnpGNkFF/mkwIB/gQ8L46tQf4TyaYX30TDwD06mdbekZmQX4EC3xLOwgsxDs56ZC++JTX2lMfwgwX2yEY4Sd07xmfqQsZA/m/fPb6Aulr80OvGi99igf1+owvIadgaz4kDn3OpsYJujCm0j0yD3HiWX02dhiXHbvpv1jiG2zE9l7rC5/l22JUzPE3sjQSBP6qvOe0Rb9w0u7a9B+1iA/0nW+6+C6biDu6ET9IPeh6sGt1kTbol9ilA7HQYkm/6K2RQfBleveZS/89IzbbeKIN7z3Djtono7GSHGzoGXHNHnyTLvXBmCxOn97Yk2mIJfrQX3Fn/Oab/If/8pE2XxnD6FB5+qY/44NxmI8ikNBH7RjbyWcM4Qf6S0a+yBYzNJSJNBOpwZpDZyLNRJqJNBNpJtJMpLXKzYo0K9KsSLMizYo0K9KsSLO1m63dbO1mazdbu9nazdZuzkhzRpoz0pyR5ow0Z6Q5I02y0c7ROthOslGSjZJslGSjJBsl2SjJRsnarQy1ZO0ma1d2Y8uQ9TpZu8naTdZusnZrggCpSbJRko2SbJRkoyQbJdkoyUZJNkqyUZKNkmyUZKMkGz3bk42AsoFRgVeBeoFvvQdUfeGRry1AK6Aq4CmwKjAxIC2AMgA6ELHyfv0DEr901uvre5hEYHr4RJfto1ce/Z6qHwC51Q1ojGABEBmm1TMNxK5eYFltqM/ZlDvCAwB2z5IfsNa2lPYBosniM2Brr11+lQA2+1x/Tjr6vSWnOvQDqNZdvQ0UrY9A5RPXLSqwOGwVYLDzEcBi4HAgcslEQOdA38qTj5x0AcD71LoeNOwO2Oz+3besKJIFpAwAwMDtAOdAx0DFgOzeAzHbgqV7xA3+VxHIuhFjkFHfyO0f3AHt1e25Bh4mr/18wHDgYnUse3kPDKcb/aVbdlUXe9E7Pbm3Fb5/g9cvxBXKsak7gDIiBOQC+qMP7KgcELQyQPOA7Pr+4FkXl77ozAXk3kDPvmsAdbKRCxAaIQP52JmP0j9QNEIEutA+Ughbk/oNGE5Wfsyv9EV5IHikAcoCqDc73jx3a/kZve+Zt7n7+QfnFzAc+Jv+6B8pCVnU19pBDAC0jSiDLYDcrYIkliAc4PP0wDcQBCBIePz8kSIN2PmaLUUsQC720y920x/18Td9YX9yIUJAIKEvfAQhw5fO2lAkCfSM+ISenOOTiRz64fIskDmQvT6QRft0Le7ZWNxpX71PjgwX0J0c/FAfgNr5GH9FzICogOzkYW+EGNpHtkGv3vMH/uo5RAHIAchBNn1DvkAWhABIC/SZrHxGrNILghaxTOd0rA71I3Egq7rpusWxPrrYgM/xMW3SCX/gr/xaG3zfa20gHGBvcQKMj+hDm/pI396TD9ECG6pb3Bob+Z+xiLzGFHIiN6BHhC7q5kd06Ttjh8treuLH9MjfPW/MU5f3x848o8Y2fqCffEzssQmf5I8uZXECkBchA3ID/WZjutEH9qSz/WPDpQfjEVsgTZAQ5zs+itRCfJCFf4hPdkLgMLlztEhpvNeO8UQc8E1ysU0jMKAzNuZz+klX7Gu+aWM+/euLcv908niRK9AvvyUX+RrJhzGwEVzwc+Ovsc0YjJgBAQQbk8O9jSGIGOiTjo39PqdjbTdfML6QUT/Iyz7iDrkHX0cGYdzkE+RkX3ZjwxmZSDORZiId7zKRZiLNRJqJNBNpVqRZkWZFmhXp8T1NZVakWZFmRTrFT5qt3WztZms3W7vZ2s3WbrZ2c0aaM9KckeaMNGekOSPNGWmSjRxqJ9koyUZJNkqyUZKNkmyUZKNk7SZrN1m7ydpN1m6ydpO1G/hL4C+Bv4AqBP4S+EvgL4G/FE4pONLgSIMjDY40ONLgSIMjDSFDCBlCyBBChhAyhJDh/yMhA7YSjA+YHrzG0oBFBNOJtHNsJ9gcsDxg1mjsP8pigsBIgZEFiwwmkuNnn1d1YcTAHIJFAtuQNjCvYKZRDptEY+/QBlYi5bECkYUMGHbAH3yPqcIWhmfAYsiHcUP7niOPtl826w3FmmGVi1XG1ZiUPKcMdgvlEBG41IVpQ/3ewx9pHwMKgK5EI6wb2D4wnmDxwNhCV9hKkDxjDMGgYsu1ya09ySmSE1yYOLByYO3A5IIJCCuIOhtzFBkaW4/6MZfoH1YhTDBYQzDLeI/lBAsHXWKWwSKCsURb5MMk49LmwasWFBsJGTCSYGTBdIIRR5/1nx4QdNBZ07W+0K2+YCxic7bAEqUMPamHLI3RBGvQrMPnlk9gYcG2gmXGqhPoHVsIvWC8IQ/9YSeR4o7lSDutX+TCwKPv5PKeD2Hg0R5GGRfGInXSP3kwVekPGclObqxcvqNrevcM/WAtwlaiT+rFjkKuA1vm14XpBWMVtqQ98zaXf5KJ3fRBEhqdYk8RH7Zc9ZHPk5dvY3rBrMNfsDdhnGEDPqZNZcWMX+TkUgemGbLRIfYez9KzfvENbbMzv9QunWNfwQjzk/ctKn1jX1EPwgl2IbM2+BDmG/0SX+LO875nA4w8T28YKqYs8tKbNvUDq5F26ZCd6IXf8FU+qD11s4E+0idGGt/pr2f1j1+Rhd3p+xtvWlmX78S28YJN+I+YxEhFBuMNW2PwIgM/UBcd8A19pV82YbtWr/L0jBnJuOQyFvFx/Rfn2sZYRD/q1W8+grEJ0w9Z+fD+TcPFrESn+qUf4kKszjz85HoWS5Jyg91ruoltfezrP/ld5G1+KeaNbWJRn9XDd+n1ec99WfkGPdApXRiL29jGx9THz4wD/Md4REf80FhhzBMbjgLoZfKm5eXz4hLrFn2xi/Leu9O18fWwQ0+o+MVIREfGmIntS4tJyFjGD+mo9Uv72JW0K+bokg28p3u+wYeNW238Zjf65i98T1sYsoy1/I1PiRPMUGQ1XpAFm5G+YGjyXlm6owf6NX+wsTs70zE70Zmxi174WZPD2OM5PuQuzsUUuY0zbewRh/TFRr6bwQE5VybSTKSZSDORZiLNRJqJNBNpVqRZkWZFmhVpVqRZkWZFmq3dnrjc1kq2drO1m63dbO3a9s/WbrZ2a/s4Z6Q5I80Zac5Ic0aaM9KckU791Ziz1SQbJdkoyUZJNkqyUZKNkmyUZKPKIJPFJQMrWbvJ2k3WbrJ2k7WbrN1k7c66pP4sXHp4SxH3R+JgEIG/BP4S+EvgL4G/BP4S+EtwpMGRBkcaHGlwpIWRD470WYAjBf5lCEBV4HwAWq9tcwK2AvkCCwPTeg3YCsQKe+p7oFqgYaBuzwE2K2cl6I6MAbgaKFY2LuIGz7XPnLM28LXvvVaX8u5+NQDXNsCs9tTr+7YN6072BmonIzIJ5VzOcMijT0DDnj36yHklrwQobZBdWa+15QxYtiQALsA78gTAY6sZoGBbP8DyQPaA3gDMQPOA28ge1OtXr23CL5+9vgDNwNCPvnFVgcQl3QAbA2gDMCMcQBzhEB5gmF6A5fVdn/VPGUBhFxnJB2RNn94DpzcSAWB69QPQe609JBCA0QDn+mLrAribbuheHe198wG6IlMDHpNRe/pGJv7T/INebpm7tfQD3M8e9C3b0B8tw6chL0B+AMQOfA3cDbRORqBqBALA3MDvZGETgGhkB3yJXsgKEE13APP0hzijlZPtDLiuP2Tgk3Yj9MHnznPgJdmUDZvfawsoHOkCYD6iiN+sGCqCAn1scqkXYBxJB7vzASQG2hI/dE4PiEzokdz6yz88g5xAGWBvZchDj/SM1IONkFcgE+B/dI74wOd8mf71l/wIAdRJz/oJtPfU28wAAB8zSURBVO45Pok8AOC+2UQ75NBHd3aQFU6ns484tXvBYXO6H779guozm7h+t3qoZGl9Apb3GZIPgH92IR9f1Z9GgkA/dMEn+SFZgd21zfe8538tliQg0QuwPjIBMSyuXzrr9bWLpB02Ux/yA31u8aNe/aAb8csv+Bt90YP6mj4QyyhDV/xLO3ycP9NXIyRga2WB7em0EX2oZ+L6xd3EdYvKZ+lFX8Q9kgR+xt/18emNPQfswWsXFSEKwgB+zX7GTLYlC6B/G5fI4nuX/tMtu/ief7b49BzduBtTjZXs6CKzGDfe0AFbswXd6+PkztEiiKCnFgeNeICvGNvoVmyZG7RP3+LV88YwsSFm+b6LDsjSfJO99JFf0J0xlK3pFWkC2xvX9Ev8iSnykJHPikE+JD7FtzGPPPpGRmUQjxjvEDI88f6FNb6RnZ7og23JQy7xpS2vxSQ9GffIp4w5zfggrpTzOV3zLbpjB3c2IYdx2VzQYn5GJtJMpJlI+yDJRJqJNBNpJtJMpFM0a1mRzq9fi1mRZkWaFWlWpFmRZkVaS/Fs7WZrN1u72drN1m62drO1mzPSOrPIGWnOSHNGmjPSnJHmjDTJRkk2SrJRko2SbLSh/1efJBsl2SjJRsnaTdbuVEZeko2SbJRkoyQbJdkoyUaBv7x4S/2PYuAvgb8E/hL4S+AvwZEWlik40uBIgyM9r/CqSTZKstGzNtkIgNg/hwMCA6kCiAOdIgWwxAUSR8aAoAAQHgDVZ77zjLvvDPgNQG+LDBWfu7//Ud5z2gIibqQLAMlev+io11XbyjbOW3UDODdAunYAaQFtydHkNsiQX1kyKKM+EBj1Af2SS/v6BGh7zMzTCyQPgAss79IHwGbAYHXThWfIYbsHYNkdKFdAAw4DtANeu4DdAXTVo011aQeYGAzFs4DEwMjK/8d5FxZAGYkAwDK9W0WRUV/Uoy1yAC8DCgPlkwOoGYBYOc+QU3vqR7zg3+snb15RwGokCAD0wOCA+oDvSCKc69AtndEVOwAre01+n7Nf0wNdAU67fKesdr1mM+B1pAUNhM0GdMmX2AfonA4A9smJSACgn2xPrRuqlXSRRqwYKr0in1C/X5TKk4tdmmzkYPsmE3nog6/yFTanf/Ijh+A3yvMP+qYDIO8GwNaeOrQFOA4MDsiPoIC9tr96vED3vmMPdgTG9/meeZtLn+oHIFcX0gB1862Zh59cZAHKIRRgR98jjqA3RAJ0RfYnlwwVkB/Y/Kf/uLCIBviCvnme7PStXwDsAP7qQyjA39VJz587c6z8lN59zz+RFvBRg1HTL334nL0QCSBa2H/pcPkQsgzAezbTNt9BRgDQz25sqG5tklG7SAgQfyBE8Jm7tsQLYgO+S29e8xV6oBOEBr6jT3Zhezrhd2RsccQufNdzCEkQc7iLB+3RjT6CfEjqevCsi8tWgPqIUXyHLhTJgOfYHDkLPL0+ikf9Eocu7WpLfLI9HfBX5CF0haSAH+sPG/E9siPoQF7BhuIO0QgyB/pibz6kftnoYlj7Ykms8F11+cxrd37Ph9WvnP4ifqEjn7vTk7HWuIT4hP3YA7kIv3FHsjHYd1n34/eM1FhIL2xD740QQ2zwLbFljDAGIsrwOcIQ9vMaaQiCBm3RAV8zNusf2xq/yMnH+Z+Lnh4+Z135hLlAXJOZHcQLf2Zf9vvMGWN19ww5+BmZ2IMt6daYQc90rH/kpgt10h1d0bHP6FxfzE3GJbEpZo0xjUBCLJCDTtlCnOmD/rAd/aub3MrxN34345RMpJlIM5FWYGcizUSaibSfJDORZiLNijQr0qxIsyLNijQr0qxIs7Wbrd1s7WZrN1u72drN1m7OSKfPdnJGmjNSZ3A5I80Zac5Ic0ZaB+kOWx26WjW6O2x1qOtwV4JKko2SbJRkoyQbJdkoyUZJNkrWbv1o8GPBajJZu8nalVmarN1k7SZrN1m7ydoN/CXwl8BfAn8J/CXwl8BfgiO1ZQJrFhxpjyUFXaGP4EiDIw2ONDjSPziO1MADMG6pCjsEmAukCpBqcAIaBrQFUgaUhrOyveWSTQVAC4ROcMBWQFeDPBBxAw+rx7kp0DjQdyNMMPD5U+nZR5xagFcAWWWBXAGQ1aN9mXteq/vYmWfUeSwCghNnv6Pk1JYyDVgLcAsfqzyiAdmf6gFY1rcTZr+15AFodrarHp8DEzeyCO058/UMQD4gsn+CB0wGMpc0Ql8+A0imN0BouvCMNgHk25YwgDYQf/tH+X1/tanA3OqyddxAyEC+ZJGQ4CIHkLDXygA+A0QDN+uT9ugVYBmZADA8EPaBK+YXWBqpAHA/kP1vVgwVGNoWpbIA6WxEVy66bwBk+tcP3/MNunTR8UuOOrv0pjx9aZsc/AQIG+Dfs4cdekLZks0B11G2AffrO2C9f8L51cIeNH7w2kXdwWsWdo+9e3HVBXzdzuDpVrvspk0XADXdINggI8C09/xRWTIrx8f+ZMZz6zVAtnM7AHQ2ZRvPsxP52Z+O+TrA+k/et6iIB7xmWzIZpNXDnoDhgO50zD/EEuC+vt7315dWOX5KHs/6XLuA774H9lcveZBZeBbAHGje9uEP/mFZ2V17+ks2thMffkBp22d8gQ9oh/6REHjWd4DtCEG0KWaRiYhhfqRNccN+nqUHRAtsgXiBbZAI8De2VU+RNVy/uIgjEC1oTz/Y4EtnbajvPUeHfAmBAdIEuian/oohF/uSiT9IxOKT2lKWb7KpOGJHBCZfff3a2k0Rd/TJZsYg9YpVeqFvdtEOQL//Y2UfumCzjSeOF0EHfanfmCP+jUPiENBfnLKJetkUUYT66UCdv146VBfdtDFTefFoPKELRChPvH9h2ZFNkTcory6kAvrFN8W7/tG/cQxRhD6wCbn4pDrFkJjyGXIB3xtT2U+74rC1TX/iSDwNbl/VHRhfUDrgU4Ndq8u+vtc+OyBl4Bf6pv/0xVfp17ggrsQrnxILYljsGvf0y2t1sAWbu/hsG8u8Zi8+iMjBZYzQFzaje30TW+xGBuMkggV69Bxf02fxa+wlo/HMWCdOETIoS4Y2d/Ah44BnfCbWjfnmNjpuuqZPemRjsvNXY7B4YHP2auMbn1FOPNKz+vVvRibSTKSZSDORZiLNRJqJNBNpVqRZkWZFmhVpVqSz+sTIrEgvr12NrEiztZut3Sl4VbZ2s7Wbrd1s7WZrN2ekdT6TM9KckeaMNGekOSPNGWmSjZJslGSjJBsl2WjpUCUPJdkoyUZJNkrWbmUYJtkoyUZJNkqyUZKNkmyUZKMkGyXZKMlGSTZKslHgL8GR9n8qGxxpj9kMjjQ40uBIgyP9o8CRArACqUoTlh0JGA0YDrQK8Gv/F2gasBqI3B2JgNeAtYC8gNSAqrYIgYOBVY+ZeXqBjG0ZARWrX1C0bUTgY5+5m0AROgAUA8YqB0DrOyQAgLWAu4gcnvOcwwvASzbP+Rdz3wHJesZBvnoaUUD7F3Yy+F59hxxyTD076/C5BWTXHhC1MggfvFcfgDDQ8i8XzO8eP3+k++3oUAGdAa3pwPdPbxjqJq5bVIB8gHTbI3Sgb4DGkkueXDJUQHdlC2x/0VDVpazvHzl3bQHOZSYC0wPbA5W70wtgMHA40D8gMrAy59JXAH069hro/OBVC7rBvZsKeN3kBsoe3H1JN7lztMDLwNMA84D09E1H+g+4rL/63kDhvqdLMtAL4DR/8Zq+THb8BoiabwDUk4kPIfpQL3vUv9kD+1+1oHynEVwAiE/etLybuGFJAcjpR98B17WlHfK6sze/JKP+rj5hvEgF9ANwGmhav8bmjBd4G5EFELb+eQ55AHmAy3/49gtKZvUoA0/NN9iDb0/4T9dbL+wG94wVgL0Fs755BhicvfWDffkEggM2+9E7l5SekUPQKUC7GGJf4HG+pHyzJ+A5MgCxBjSPTGOwe02B3cUXXZKdn4g5faEfsqoDEJ0d2A1pyvfftrwIA/gKe5ATaN57pBiIDZADSH4jn3bJKG75CJsM9q6vfpOVfcnvXt/fsa6+Q+pAV3xWRqU2yI7QgS8gjGjkC9qld7J++82jJQefAvwH9HfRA915DbDPLmLJmMF/+PPD56yrMQcYXvxom+4A/pVFXNJkIjs7IRBQJ6II9uM//JovIAUQq/rfCAYQLhgH1Q+cb/zhH9pgN37BP8Rz83mkEsZAPuui99LjXRuLFIF/P3XR0DQxhrjmK3zYa7GEmEFf+TpiAEQBbO3yPZnZ2N33CEq0qVz73FiA1IB8xqXBA1eXzRAWFCHD/Vu6wRevLZKGrSddWWQtvuMPLnFBb16zOSIIugGnQfbC/hWr1y7qJncs6yZvXtH97AMLSnfmAf0RH/yVbO5swoeNEXxEHPhOv/ntEc//87Kd2BXrSB4aGQrZEGnwE/pXP5INMVfxeeeGkolu1cvfzAfqVt5rOnGxu3GN39GX8bl9Tvf66m7cYHNtGefFnLjyXp3Gff0SP2JGX2ZkIn1vOa6gykSaiTQTaSbSTKSZSDORZkWaFWlWpFmRnnVxrayyIs2KNCvSbO1mazdbu9nazdZutnaztZsz0pyR5ow0Z6Q5I80Zac5I61DdIX6SjRZXwkGSjZJsJIknyUZJNpJYlGSjJZV0mmSjZO0m2ShZu8naTdZunS8nazdZu8naDfwl8JcX9v/jGvhL4C+Bv4zW/3UG/hL4S3CkwZEGRxocaXCkwZEGRwpoDHDsCiHDUAG+Q8gQQoYQMoSQIYQMY0Wm8kdLyIAFA9MDNgeMMJg/gFExlZj4sFTsPm1zMU5INsIw4X1jLMH4gNRBuRce+dpi3MCEgdnIZIkpAjOOurARYY/wGssQZg5lMExg6vA5Fg8MJdhwnn/oK+qfRsiGMMGzJx393iqLEUPd7phEGnMSh1QGSw2qPX3zPYYLdZrEMe7AFh195LyqHzMI+cmiD40lBquMbMvBpy/vBp+/stheMN1g9sD+QR/FJPTpy4sRBKMMFg7taf/Q5x1XbB5Yher5Bz9UrCJV3z1jtd3y4/eMFIvHxPWLi/0Ia9Glc64s9hbMJxg46BN7CwYRmX+2aLBqYM6hf9uXGDcwxwy08c1busFXP1IsSp4ZfO3GYujRLlwdlhfsIBiE2IFuMXTQDz3SHzvwAXdsT+xDZ8p6TS7sIWyHdQabDVYaepGIhcmELejVc3RWerh/SzHvNF0NHtpWesVuVEwld20s9hdnVGRiYz82tMku7vwBQwm/w2bEZ93ZCjsKxha+7Hm64WcvOersYsuhJ+w05KVHzDVYo8SBOtkUs8rgs+Pd4NGPdyXfnrXVJ+2Qiw6wxmBpwYaDOerAlvnFIOR5OsbwIzEPIw77YRNqzDDYYNgbww99YWTxWt/2jw33PvLQtm7yxgvqcwxBy48bL/vzL0xOElx+t3Ko/IGNMTthKMLGgxUJs82B8QXFUIMlBquPyzMYgvgtP8DG9NGTt5Zu/JPJYN9l3eAL13SDR7Z3g/s2V78wIvE/zDRYcUonX7y2/Ffd7C++9KGevW9zMeFIwDFO2FpVBlsO/6YfusB4YzzRZyxBWGy8fnJkuP5lSn/UK2bJPLFtpJ5TX2OJkhHPXtphd3pRN4YsOhjctrJs5Vk+9slTe5YiNjQe0bl4xVQzuGNd6Y7eMTGJTbrnv3TDv/ZfOlx1Yn5SnszK6ju78HmxLxYGX7m+dFi+tHd9+Te5+YJ+adM5nMsY5BKP2KbIJ76UEwPGMbLSGXnEgPFKjPJv5ZRnT/YqdjOx9fWPVdyxdTEtfevWbvKHu+v1584cK/vq09Mbh+riM/p/8JqFpVf+W/G7baSv0zjIN9T78IfLX5Tnx3Qr7oxLxjDsW+QRc+rhf+JGbNx0Ss+Gpw/izliNGYk+a3zcs7b0qzz78nu2wDAmfou1CYObsZWe911Wn2FmohvjkpihO/bABuWO3Uh/fE7H7sYJ456x39xDp9iM+O/PP9iz2hlXjJdsjOFLf/j+jlO2lt/NyER6djlwJtJMpJlIM5H6EZKJNBNpJtKsSLMizYo0K9KsSPudg6xIsyLN1m62dm29ZGs3W7vZ2s3WbrZ2c0aaM9KckeaMNGekdbabM9KckSbZKMlGlfSQZKMkG0kMSbJRko2SbHRll2Sjo5JsJHstWbvJ2k3WbrJ2k7WbrN2CzwT+EvhL4C+BvwT+sinJRoG/BEcKwxocaXCk8InBkQZHGhzpsxxHCmQOCAxg6jWAv0EcuBZAFqgWyBtw2ud3v3ZTAVKVA6oFit/5mi3dxhPHC+wKWGur8KWzXj+ddgx0+4rZf19g5eNnnzcN+geCBYAFjPYM0CzwP2IA4Ps5s99VxA4A7YC0LzrqdVUGgBrg1urTXZ1A256R5em1ugGYAZy1gSAAKH/2EacWAFufZx0+9/ee0562kRAAFAN+P3zOum7il/u6iafu7yaevLeb+OndBUQGaHc+NLhrYwGUAcMBzQGCL/+zK7sPvKgnqCjA/jdvKRD05H/d0d+/84l6BrkCcDJygMEDVxcxgfcAvxg+gOz1lSyA9EgNGphfFiNw+4NnXVwXQDrQ9cTP7+km1f+tWwv0X1s13/tUvUfU4D3A+2PvXly2bMBkujpx9jvKF+jRBZhMj4DedMgOwM7uzkh9D3sJ6A6oj5QA0QA9+J49+ZU+TO5Y1g2ArD99ecmgrFVD9Ruomh53rykAO3A3+ehRe/xO+4gitMmWQOv81XYkYDuZgMH5LRIGugNe5498jw8C+PPZaufeTSU3MgYTlVWsftI1EH/Z6rG9Pej8qx8p3SKaQEygDWB8JALsNbh/S9X166VDRZpQNrphSZE1iCHt0kmRUiA7YOt9lxXY+3erh6ocwgJyIokowDyQ+T1jZXckD9p0FqU9WcwF+EcK4Lp9VRESiEG2LUIOpBwPXF2+Rfd0Xc9PAe7Jz6fEL2A+sgFg8yIPaID7L1xTJAJkVK97fX//lqobeYI4AOYHTEdQMcnXHtpWn/FNftwA/wgOfjvakyUA/OvHF193cfkGGct/rltUPi7uAOrFvZgssgTEIrvXlBxkR+ChT8D5fEYMiIuy380ret3ctbFsM4mM/84NFSvGNH7E55HP8HW+M/ndT/b2vn9Lyax/5OdPxruygXq/+pGyObuTwziAJOCRc9eWvyGWKTIIRC4u+kJ0cc9Y6VGcIing2+tf0ROH8G/jVostcuk73zHG8U1jZBsn+b/PtWXc8lqc8dGKK+0ad/Tpm7fUWFF++sRd5duIWxB5sF3Fg9iDob31wv79rtWlR2M7sgfxXbZ9ZPvvxwYCmAc/VDahK3rETcCXEBiQUyz6rMYJ5R/aViQWiBsQ9xiD9H/XaZt7P338zm7y8TtrLCvSh9tWVqzxL0QubF4xxB8QhPD1r91YY4/+4ARgU23Tobv41057byxp84wxwvdtPjK+tHHVeEZuNoYtNU4YQ7TBZ41NxusZmUifmYAzkWYizUQ6/gxzTSbSTKSZSDORZkW6uFZ/9UvyW7fWL7esSLMirV/0WZFmRZoVaa1csyLN1u70FkS2drO1m63dbO1mazdbuzkj3bu+zsByRpoz0iLizhlpzkhzRlpntfIRckaaZKMkGyXZKMlGSTZKslGSjZK1m6zdZO0ma3e8z0J94Or6y7Nk7SZrN1m7ydoN/GXqf/kCfwn8JfCXwF8Cf+mhkoG/BEcaHGlwpD22LjjSwifDAQZHurLHOwdHWrjS/3UcKZAxACoWHf8u/6WzNtS/kQMXA0UjYPBvBQ08baa2vSU77F9Ov6y+90/iwLSyBtUFCI+QAJhYajHwKgA0MKzXPmtgY+WBkH3uOeXa9z4D7Aeo9drVynqtnDZ8r70GwFeHz4CaccgqC9xt1dXa9VoZ75tcngOUVh4IHsAeAH5i/2d7Qgb3X+4rnB3QPaB5EQkAfQNq37ayAOp0QxYgY6DuAhX7X8BHP97/s7x/mUcIcOMFfYDfvqqn87pjXZEW7D5tc4F8AZnpBwgY6B4oXTt+NRahwaU9SB7I3T+5I3iY/MGuHgT+wNU9ABrQ+qFtBVh2n9g2UqBnwGa2Zne6oyfAa3oiO93Rj8/9yz2d0A2ZVp8wXroHDldOvwGkC3B9+6oiFQBiV5fv1V/AbyBvxAvu+nP7qh6MDwS+a3Wvjx3LCrSPmEBygVUSMhByspk7P0P0oA2vG6hdW143MgZyKu9O/ov+tAeJD+7bXMQCwNZ8G3AcKQMCiSJb2LO2AOEDxARgQ49s7361cLj8Xox89y0reoIJur1zQw9kZ5cbL+jJNdh252j5jrKSxwD0i3gDOH+KgMK2KJIGAHp+pn22BC7nH+zNXr9ZNtQD6netrnqQO5Q+79vc+8+9m7pfDM8vYoWCtgDiI+X47Hj/Pb+hY3+4cN2iHnC/d321K26/fPb60rE4Lltq28Wvd45WX8mFkIHOyIRcQ531/oYlVUeRjyArmCJBQFZQq1x2vvGCAtWX/yLwuG1l9ZXfll6QddAnX7prY8WeGETKIc6rPWQPn768+l5EGE1HNyypuoxX2my+RLZ6vWNZxSV5Ead8/e9WV1zRN59WP5D9NCHDA1f3xBg7lhVZhhhEXFGkAuIcWYY+3nphT0iBmGPL/CLdQLLA70t/yAL2ri8dlb/vWl0xSsZPvGZL+ab2jWkIF8jDpxEFqIO/ij+vxWIbn/izGHUhIyG/cj5HelE/GpxFGme+/rHyhSLTEHv8+eEP15hA/iJKQRLiUv6esfLpsvHtq4qUR/xXfH/nE/34Yhz7tx3lp+VnU36IIAYhA8IL8YRwwfj80ZO3dsa08k0x9ejHa1xUXhzrOz0g52DXycf2FhmDcbdiUDzdemHZxLhQutQX/WALMUV+Y8qu1dM6oRf1sp+xih7Zh0yN4EIZYwRyH/ql/4tPHJ+e20o/924qn0dOgbiEH9C9+Pz8mZdU/2ZkIs1Emok0E6kfK5lIp7Z2M5H2P5YykfY/NDKRZkVav/KzIs2KNCvSWtVkRZoVaVak2drN1m62dmsLMVu785/Z/s7WbrZ2s7WbM9La27dqzBnp9HlczkhzRpoz0pyR5ow0yUZJNkqyUSUmJdkoyUYtEUZCYJKNkmxU3K7J2t1eW6zJ2k3WbrJ2F1fmsczfZO0OVVZosnaTtRv4S+Avgb8E/hL4i/+FDfwl8BfUpsnaTdZusnaDIy38cbJ2k7UbHOn/HY50z7zNtV2LeAHBwr+/YU1diBeA1f0rODIGWzfe29Z1hzkD6AeiRUDQCBr8S7p62uXvvdTh8m/i7tpSXh3KAbkr57279+1q79Xrmfa+1eMZr32uXpey7q1Mw8gpo7y6Wxnv22vlXZIcgLsBxQuQCyAPxC8hCNAZQPjmFT24vRELADcDqG8bqToAvIGln27/QD9FqND+hb7qRsiAdQXIW6IRMPod60o+utJf+r557tZnQMhTZAb+VxSgv4gZxoYLkO69sxh1A/qTpwZRZAE7R+s7bXnm8fNHShf6Diyt30Di2gM+/8wZY6VThAf0xU4P/M0l0zIpT59ktMUNbF39v35x96N3LimCDr4BlM3HEBo0woYmC1nrs9tW9sD/m5ZPA9YRWTw50pMg8EnysONXzllftrll7tay0+fOHCu52ZGMO07ZWv4KPO0zz7Fn0yW/qO1Yg8qetd033rSy/F+9gOP8vOS7b3ORHxRAffeaApCrQxvILEq3SAQa2QFCiZuWl96LcME/+Ywv6J54/8KOLMgBioyAnnYsq8tnZavrFpUOkSMgcGifIU9A5OCfL7731uU94cNVz9i9EQ/oB1IHBBbsXj+eyKWdRvpB1js3PGODGy8ocgKxjXyFbsU8/9X/1peSZfvS6kv53DULp8kNqsy2kXrma+de1P3r367pnyP3DUuqnL6XPm9b2RMT8F++zk+vWlA2Lv9v8eG7O9ZV3IhBNmSX8m0xuHtN6aTIFpBhIKnYNlKEJGyHmII/8vGnNw71NrxtZb0H9vedLWh+8aFX9SQA+s5XS5/ieOdod/CahdUHRBTa5+vqL5/dsaxin27oRFvuSA8+deqWIvhA2FD6vnlFxSb7sCNyDXLxJX0Te9oXI2KeP5971IbyYbZBbOB7eH/kFPzPuKu8eHSJhebfCC7KN+8ZKz/iG3yYfBVrSC/oGimI13vX94QGSA3od99l0/onq3bEjD7SD/ID9Vcbyk7ZxHt6NX7QLTnJJPb0qQgZjHPau/uS0i9ZlTMG0b++FGEI3akXeQM5966v9uiwCG6mxo2SY+do2al8fWr8RZLAXsYobZNH+/xbX+hZrLUxgp7/ctaysh1dK08W406NyXdfUrHkM8+TtcaRuzZWf9U7g6JaAzqViTQTaSbS0Qpkk1gm0n4yrwnDj7dMpP2PoOsW1USVibT/cZOJNBNpVqRZkdZKNyvSrEjbKicr0n71nBXpyloVW/FmRTpFf5at3VW1vZit3Q3FlZqt3aHaQszWbrZ2i682W7u1jZ6t3ZyR9mdPOSOdPv8QFDkjHa3z4JyR5oy0zkVzRpozUqtKyS8Okh34OrBviS/eu/5n8pD3DpCVy4o0K1L+kGSjniAB72ySjS6u8SHJRkk2kiiWZKNk7faZjcnaTdaubMxk7SZr99pF/U5EsnaTtdtWoFaZ0qnb+6xIn4FBSAmXph/4S+Avgb8E/iJhSrY5eE7gL38Y+Mt/Az1jZYZfeSoDAAAAAElFTkSuQmCC;fontFamily=Times New Roman;" parent="1" vertex="1">
          <mxGeometry x="-103.72999999999979" y="182.25" width="73.76" height="58.25" as="geometry" />
        </mxCell>
        <mxCell id="y-mU1MTox-dUx8l6JhDk-7" style="edgeStyle=none;html=1;exitX=0.5;exitY=0;exitDx=0;exitDy=0;entryX=0.5;entryY=1;entryDx=0;entryDy=0;fontFamily=Times New Roman;fontColor=#000000;strokeColor=#000000;strokeWidth=2;" parent="1" source="y-mU1MTox-dUx8l6JhDk-9" target="y-mU1MTox-dUx8l6JhDk-13" edge="1">
          <mxGeometry relative="1" as="geometry" />
        </mxCell>
        <mxCell id="y-mU1MTox-dUx8l6JhDk-8" style="edgeStyle=none;html=1;exitX=0.5;exitY=0;exitDx=0;exitDy=0;entryX=0.5;entryY=1;entryDx=0;entryDy=0;dashed=1;fontFamily=Times New Roman;fontColor=#000000;startArrow=none;startFill=0;endArrow=classic;endFill=1;strokeColor=#000000;strokeWidth=2;" parent="1" source="y-mU1MTox-dUx8l6JhDk-9" target="y-mU1MTox-dUx8l6JhDk-34" edge="1">
          <mxGeometry relative="1" as="geometry" />
        </mxCell>
        <mxCell id="y-mU1MTox-dUx8l6JhDk-9" value="&lt;font color=&quot;#000000&quot;&gt;Encoder&lt;/font&gt;" style="rounded=0;whiteSpace=wrap;html=1;fillColor=#cce5ff;strokeColor=#36393d;fontFamily=Times New Roman;" parent="1" vertex="1">
          <mxGeometry x="-116.84999999999991" y="112.75" width="100" height="20" as="geometry" />
        </mxCell>
        <mxCell id="y-mU1MTox-dUx8l6JhDk-10" style="edgeStyle=none;html=1;exitX=0.5;exitY=0;exitDx=0;exitDy=0;entryX=0.5;entryY=1;entryDx=0;entryDy=0;fontFamily=Times New Roman;fontColor=#000000;strokeColor=#000000;strokeWidth=2;" parent="1" source="y-mU1MTox-dUx8l6JhDk-11" target="y-mU1MTox-dUx8l6JhDk-13" edge="1">
          <mxGeometry relative="1" as="geometry" />
        </mxCell>
        <mxCell id="y-mU1MTox-dUx8l6JhDk-11" value="&lt;font color=&quot;#000000&quot;&gt;Predictor&lt;/font&gt;" style="rounded=0;whiteSpace=wrap;html=1;fillColor=#cce5ff;strokeColor=#36393d;fontFamily=Times New Roman;" parent="1" vertex="1">
          <mxGeometry x="43.00000000000023" y="112.75" width="100" height="20" as="geometry" />
        </mxCell>
        <mxCell id="y-mU1MTox-dUx8l6JhDk-12" style="edgeStyle=none;html=1;exitX=0.5;exitY=0;exitDx=0;exitDy=0;entryX=0.5;entryY=1;entryDx=0;entryDy=0;fontFamily=Times New Roman;fontColor=#000000;strokeColor=#000000;strokeWidth=2;" parent="1" source="y-mU1MTox-dUx8l6JhDk-13" target="y-mU1MTox-dUx8l6JhDk-14" edge="1">
          <mxGeometry relative="1" as="geometry" />
        </mxCell>
        <mxCell id="y-mU1MTox-dUx8l6JhDk-13" value="&lt;font color=&quot;#000000&quot;&gt;Jointer&lt;/font&gt;" style="rounded=0;whiteSpace=wrap;html=1;fillColor=#cce5ff;strokeColor=#36393d;fontFamily=Times New Roman;" parent="1" vertex="1">
          <mxGeometry x="43.27000000000021" y="64.5" width="100" height="20" as="geometry" />
        </mxCell>
        <mxCell id="y-mU1MTox-dUx8l6JhDk-14" value="&lt;font color=&quot;#000000&quot;&gt;RNN-T Loss&lt;/font&gt;" style="rounded=0;whiteSpace=wrap;html=1;fillColor=#cce5ff;strokeColor=#36393d;fontFamily=Times New Roman;" parent="1" vertex="1">
          <mxGeometry x="43.27000000000021" y="13.5" width="100" height="20" as="geometry" />
        </mxCell>
        <mxCell id="y-mU1MTox-dUx8l6JhDk-15" value="&lt;font color=&quot;#000000&quot;&gt;CNN&lt;/font&gt;" style="shape=trapezoid;perimeter=trapezoidPerimeter;whiteSpace=wrap;html=1;fixedSize=1;fontFamily=Times New Roman;fillColor=#f5f5f5;strokeColor=#666666;fontColor=#333333;" parent="1" vertex="1">
          <mxGeometry x="-258.90999999999985" y="234.25" width="61" height="22" as="geometry" />
        </mxCell>
        <mxCell id="y-mU1MTox-dUx8l6JhDk-16" value="" style="rounded=0;whiteSpace=wrap;html=1;fontFamily=Times New Roman;fillColor=#f5f5f5;strokeColor=#666666;fontColor=#333333;" parent="1" vertex="1">
          <mxGeometry x="-238.91000000000008" y="218.25" width="22" height="16" as="geometry" />
        </mxCell>
        <mxCell id="y-mU1MTox-dUx8l6JhDk-17" style="edgeStyle=orthogonalEdgeStyle;html=1;exitX=0.5;exitY=0;exitDx=0;exitDy=0;fontFamily=Times New Roman;fontColor=#000000;strokeColor=#000000;strokeWidth=2;entryX=0.5;entryY=1;entryDx=0;entryDy=0;dashed=1;" parent="1" source="y-mU1MTox-dUx8l6JhDk-2" target="y-mU1MTox-dUx8l6JhDk-21" edge="1">
          <mxGeometry relative="1" as="geometry">
            <mxPoint x="-226.91000000000008" y="156.64999389648438" as="targetPoint" />
          </mxGeometry>
        </mxCell>
        <mxCell id="y-mU1MTox-dUx8l6JhDk-18" value="&lt;font color=&quot;#000000&quot;&gt;Transformer&lt;/font&gt;" style="rounded=0;whiteSpace=wrap;html=1;fontFamily=Times New Roman;fillColor=#f5f5f5;strokeColor=#666666;fontColor=#333333;" parent="1" vertex="1">
          <mxGeometry x="-258.90999999999985" y="194.25" width="63" height="24" as="geometry" />
        </mxCell>
        <mxCell id="y-mU1MTox-dUx8l6JhDk-19" value="" style="shape=image;verticalLabelPosition=bottom;labelBackgroundColor=#ffffff;verticalAlign=top;aspect=fixed;imageAspect=0;image=data:image/png,iVBORw0KGgoAAAANSUhEUgAAAacAAABxCAYAAABx/2weAAAgAElEQVR4Ae2dh5dlR3GH+U9sY+OAI8Y2xpYjDtgYG7BxxAEbG5uMbYyEAggJJBRAAUkICSQEyglJq93VZm3OOYfZvLM7G6TNWe3z3bf1pqa2b77z3ps31efc0zd0qP51367u6urqNwV3joAj4Ag4Ao5AjyHwph6jx8lxBBwBR8ARGOcIvPHGG8GZ0zhvBF58R8ARcAR6DQFnTr1WI06PI+AIOAKOQHDm5I3AEXAEHAFHoOcQcObUc1XiBDkCjoAj4Ag4c/I24Ag4Ao6AI9BzCDhz6rkqcYIcAUfAEXAEnDl5G3AEHAFHwBHoOQScOfVclThBjoAj4Ag4As6cvA04Ao6AI+AI9BwCzpx6rkqcIEfAEXAEHAFnTt4GHAFHwBFwBHoOAWdOPVclTpAj4Ag4Ao6AMydvA46AI+AIOAI9h4Azp56rEifIEXAEHAFHwJmTtwFHwBFwBByBnkPAmVPPVYkT5Ag4Ao6AI+DMyduAI+AIOAKOQM8h4Myp56rECXIEHAFHwBFw5uRtwBFwBBwBR6DnEHDm1HNV4gQ5Ao6AI+AIOHPyNuAIOAKOgCPQcwg4c+q5KnGCHAFHwBFwBJw5eRtwBBwBR8AR6DkEnDn1XJU4QY6AI+AIOALOnLwNOAKOgCPgCPQcAn3DnA4cOx1eWLk3fGPqprBg26GeA9oJcgQcAUfAESiOQN8wJxjT7902M/zI5yeE26dsDBffeKM4Ch7SEXAEHAFHoKcQ6BvmxIwJxsT1d99eEBYN+Oypp1qaE+MIOAKOQAkE+pI5/fhVL4e7p28uAYMHdQQcAUfAEeglBPqSOTF7+vijy8KWA8d7CWunxRFwBBwBR6AgAn3LnN5+w5Tw/QU7CsLgwRwBR8ARaBYBOtehY6fDzsMnw6mzF5pN/FJq5HH4xNnk4r6fXN8yJ2ZPrEO5cwQcAUegGwjsPnIy3Ddza/jskyvCy6v3hVNnz4emGcj8rYfCtT9ck1zc95Nz5tRPtellcQQcgcYRQPP39LkL4ez5i6XSfmbp7nDFzdMTJa0/v3tO+NqkDWHRwOFSaWQFpvP++pRhRbB+G4w7c8qqff/mCDgC4x6BeVsPhpsmrg8Pz9selu04Eo6cPFsIE61BjCTnzVe+HO6a1pyi1spdr4V/+e6itpayM6dC1dL5QLYh9JJYb8ehE+GJxbvCjA0HRk323HnEPUdHYHwgIH3Lr944NfzjgwvDxDX7ChVc4tEXyfWR7y0Ja/e+Xih+XqD7X90afubaSe20mUU1LTbMo2E0v/fFzOnCxTfCba9sbFeSNIReGUnAmH79q9MCU3sYlLt0BF4/eS4wIpy+fn/YeuB4X/1s6aX2L72MgGUyRZmAjUe/9HNfnBwenLOtdnGtSI+0b528MZy/UE70WJuQUUygL5jTmXMXws0TN9RiTucuXAwsYO597VSA2TXpdCPtFYYZKx/lbrrssXzS3iEueXzRzkRU8d675iSilJ2HTqQF9/fjAIGhY2fCxsGj4dDxMx0tLSbQ+Fenrd8fbpywbkTfcvOkDeHM+XztO/3fy4AZv4k+ADyueX7NCLpY0yq7LtZRUEtm1hfMicVKZMK6AZRtBLM3D4X/eWpl+NzTq9qN8vVT50rCGQ+uG+m/PrQ4rN7dmtYDPlcvOBjzk4t3hZdW7k3UUrtB05wtQ+Ev75vXrsd33jQtPLlkVzdI8Tx7AAEGjM8t3x3+8/tLw4sr93bMJBmzD2Yh9CF/dtec5NJ9y38/uSJsGzoeoC/L6f9ex//MEysCov46Du2/P/z6rPa/QvrOnOogOkpx2UPw1ZcvZ07Xv7QuHD2dz2AYbVCx0oDefNXLSYOcvHawEYp1I33rtZOSEc9TS3aFO6ZuSn46Rofddk8v3R1+8+bp4U/vnB2mrNvfFXLYl8b+NKkHfMS13ZzNdQUIzzRBgAETA0bawVdeXh9Onj3fEWS2HzwRPv348hHtULfJ3711Zrjq2dW5Bqb1f6/jI+J/bNHOcLGGhCaWtjOnjjSPcpmkMacPfmt+QNMmz726aSi8/57hEbs0JBpAE842JGYEv3HT9PCjn58Qfv+2mQmDaiKfqmkcPXUuXP9iS3TxE194OXxzxpaqSdWKd+/MLeEnr544olP43NMrE1FrrYQ9ckcRoNPdtP9YWLjtUC1x3PytB8Nff2t+0h7Yy3P4RGcGcU8v3ZUM1KQfiPl5/wkDqtg6uKRVl9naPoV0b3hpXTheYDDe0cZQI7O+EOu9dvJs+OILa0d0alTWr31lajJCycMnVtHEHy3mJA1U/KbyyStn2vdX1g6GP7ljdhu/ogu+aelVfR+rB0QXiDD6zfWSSLdpbFknpPP92/sXhAmr9lZOHqUY1h75T77w3OrQKQlDrB3Kv6r9rP927paD4a+UiFrH4/6Tjy1PRINVwYnR+NknVoR+WqPtC+a0+cCx8LFHl7U7V2kIiNC+/Wq2ZsyRE2fDdT8cubAo8bMaX5lGFWtIkgd+a1RYbO9EmXyLhrX0XfnsqrD/6Omi0RsLZ+kAm7wRat3MB18/lYzw664BlKFj4+Cx8NDcgUT5o5P5lqGxTlg987h9yqbKa0VotqLhSjv4/DOrwuDrnWmTsXao/1e5J1yay0vjd2+dEX64Yk9a9Nz3sfStmvrg0dPh+RV7kkH2Cyv2hgNd+KdzC5IRoC+Y09Idh8OHHlx4GXOiEWU1IHCZuHpf+KOvv1opbgau7U8ArHdxS8PWfrdnB7ahcy4W52N12lk6BKO8OqxKJ6IXdvH/7f3zk0EM4s0yTjS65mw+WFiF9/zFi+HBOQPhl65/Jdle8MTinSOyZP0TMTNlxhwN7WesOV2PH/vBsrB5/7HLioC2G0oFMOe0NUWUIBB70w7++buLwopdRy5Lp+kXRf7XIu1SYyDhtc+69l01Tk6IpW+ZE4zpd25t4fd7t85MxIyxumgaw6bS6wvmtGT74fAPD1RjTrFKlkZ0y+QNuRo5eRWhNX8k3ZgPHZ1yrAmgaSSdQgyDTtIj5Y7RAVajRQsL7IifyAOxJuLNog4mc+ulvXV/ee+8AIMq4qy4x5attf45N6Hpyy+tDcfUGgI/61hgVroe337D1KgB5lmbhhLRFpprYBJz3569Lbz1utYm01+7cWp4bOFIRh6LU/cd/8btkT2TZf9ZjUEsbt12HUv/Iw8vCWv3DG/wtWF++ctTwn2ztoYTZzqjWFK3LvqCOemFU9sQqKCFA4fCHdM2JyNSuw/AVqCO34S4zWoC6vT1fROMsGhjmLflYCA/OsKz5y+0O1lND7h02qXVxWjRcvD4mXD186vbs+Yy+bAfDmUNwaxoXFtGK/bS35nRoVSAYzDBdgdm4czYetnpMoBPDBsdJvad8ukwKA/dMbU50z9p+KF0wX8v9Zrl/8t3Fyd1wqAGWvVMV9OelkZaudNo0+9j6f/bw4vDmgzmBB2oxrN3ayy4vmBOjy/eGd7x1WnRBsXImD1QP3rlhEQjjw5ZHIXPErn91/eXhk2Dl4skJH4Rvyhzuv7FtaGsWKlI/rEw0rBZsMUUC3nbH6jOjxPLs8g7oatTtKzfdzT8xyNL2mUvU+ZJawbDH39jWBxcNK4t400TNyRGRcEHpvM397e008CgZU1gIIEOxvSBe1sapUXzysOctkm6dFbHTzc3mrZljNGrw8S+Q7sOAx6dUNThf/gjVa+2Lernn75mUlInokz0mSeWt/cvWdp1PLlPK7fUGwZnkW7EZsux9P/14cVh9SXmlNW35eUr+Xfb7wvmFKsoaQD//r0lgUuedcUwvbW7vyUcfhPHvRdlTk0u+FKpsQZNY6MTQuVUysk+EtlLIu/wO9ER2MafVo+6zojDD4vsfPnOIwFNzaquxQwWtLGw+WSla9Xei8a1ZcRWG8ZEcfYb9SDp6m/XvbC2sPHRrDIwUIPhMZqe2uDeNk2rLoPQYjtOKaN8F9+mk7Z+JeGb8G2e+p/Iu2f/kqwhFkknrdyUA4wQd6KOPnPjgcssUsTSZ/+VKFlk9TtZ+TaBYVNpgMGbmkqsW+nEKkoaEhtLueRZVwwaaWimyTfrsxeJzbJ1XMt6xfAGX5uHPH/4ocVh1e7X6mSVxGWhedbGA6niH0QPsneEvP/+gQXJJXSIf8OEdeF4h2XTafWo64xCDhw8Eb4yYX34p+8sCsxgqjpEZqg7S5nLMGRLK5vAixwoZ+P97HWTwwOzWxql9ht0Sdn1N2a8aes0ZbDQaTa52Vmnq8sgtDEjuH3KsC1MKaN8F9+mM9oHiFqmKe2ijC9lsbTH0pCwUl7tM/iCGRMvVt9p6Uua/Lv8w2Xz1TR0+77vmROqyFxSSVJ5AN9aN0hnTsSR8ADFleVI79llu5OOQ5QNUH9lViT5p/nvv2dusgaUlX6Rbyw0v++e1oJ6rLNFtR4Ve6Hj3Xe8GrjkWfz/e2ZV2Pf6qSJZNhImq2OQOpCMwPi3vjYjofmWyRvbSiuxOmKBG4YdMzVjTcD871Mrw54jJyWbTB+aBCt8LAYsGjiUWJxOW3BOK6OUz6ZJurFvWtyXSWTOR50fa2+swTXhdLq6DJK23ZcYa6eEtemQVpNMVOgR364jkl/ZK1ZfaWlIWMlf+y1rKVOT/GOafTFsyEfSxPI52nuxvCWMzq8X7/lf+nrmZCtHVwydL52wDaOfMfJIh88PNGfzUKIyzImWjN73HDnVViEGSOk0mZnIqZTsacE2mE4zdg+DaMJckm60sR9Zf4cO1k302onQVlZ7rW7jTrOPCD26zsgHFVx+WL596rHlYWDoeII3dcQlCgMwCUwxUYcwMXkvtGIdmo5eygzDow6LOIvjn9w5O2A3kQ4BUTEiMwwS0y7EoXn3ZSVSlXylfDZNXXb7TeJI2nk+dGha7IzeqiHnpZf13dL6pRfXBm2ncsWu1xLVcCk/jD22B8emQ/gmmagtwyvrBgP1KHRV8aE5S6Sm08yqQ1t2G9Z+l3Ql3CPzdwS08+S99iWMLX8Tz8yKGeAx80sbpBXNh/bqzCljhMQsRGYiqAzT6bCA/KnHlwdG2mwURDzIKFzEZShfoB2I2zB4NHy0AHNi3wuHmdV1utHGTOjr7zRYGnAnGzEMAhq4NLPAIjlrKfonknvC4tgX8+jCnSOUBhC93jp5Q2Ax2oannlhPkffW9pidRRJO8orVg+7gCSfpxnxmwljKR5NUHJpUaFTZ8JJnLM20b/Je0s7yMTR8/6vbAuf/rL4kOrazFzaFYmQV0SSMq46z5bADr5dW7Q3vun3YaCn76n6wcMcItXnyt+mAW1MShlj5Yu3B1lXeM4f/sUaUtrFfx8+qQ1t2G9Z+l3TZ3sA2h7TvhLNpxbCo+g57iHdO25yIJOtqBY5r5lRU5CYVj//B++Ynl7xDaYKRod3IKw0A237Y+JPwWb7EqdowiKcbpbW1RWUzs8iiQX9rgh5dFitquHHC+vboasuBY+HjESsf0AMd0P7owh2BA980jdyzEM0l74VujQXfbMdmZ06Ekbh00mhPIg7knkGInpnZtCVv61/3wpq28gLGPjGpZcOgTs5om9md/Sb02PyYneWNTBEtc0mnqy2mYAoIk0CS349dOSFZf2PtDA1CPXDQdVjk3tJKHlIO4n937kD4hS+90s6b7y2DwyPXD2PpUAaYLO2haRfLT/Ap6qPBx0BJa4GmxSU/ZtN04lPWDbZnlzGrNRo/yp1GK1b9YY6xtiR0NKVQwyAG+mm74p5ZtjtccUnkLoxSvpX1nTnliPWkQtN8DJVaY6WEpfPgzJXvzd8+ouNMS4f3tgGWrUzC60aLaf9dh4fXUKymXhYtTdGjy4BlBC1GEy0xRAHMSGEeMZrYCoDNsKsylFd0PDCgU0asqd/bMmHgVq9HyndmcYj3MIaLqrU2oyNhNM42D/2MWrKcnJoWh9kUHVRMOYc4tl5JXzTXKCedAx0FG4EJP2fLweSi/FxaPV1MU7WO+L58Fie02w6MPDbsOxqeX74nPLd8TyK2od5iLlZOKQfhkSogXZC8xNdhYmWWcJ94dFlyEGUs7zrvYnRLnmV82rWesafFJT/EzoSFOYtYP2a1pig25HXls6uTKy1f3Sar4sU6LvQipmaflygDaQz5b+vMwsc1c2piATStAdDgOAwMUV+MecXi2QZYpeHoxiEdmKRjNfViNOh3dUc+kq/4mjbJh1nlrI1Dia25X7nh8lkF4f7im3MDRi0xwSLxsnxmOGg+sgZkw2mMY/TwTu91YZ+cWJGQtGLv5FvMlzxj+REehv1/T6+Mrk2mxWV0ygzihRV7kuNemO0gdiY9Rs/6XCxNk6gbo4WKSFR/0/fSgSXan5uGkjw++sjS8Du3zAi/fcuMhDly1hZiHOti5ZRyEDb2nbx1GPJlrVDTJPfMnhHvwhxReGlqFpVGl+Rb1H/HV6YFrrzwMhOXcFL+GB3yTbCOhZF0MIdmz3qSb+Lb9CTdor5WvML+ITNu0tQDIfq/OodEjjvmRIOQxkwHhgq3VFi3/boNRpvUoSx6Dw2N7jtzBsLPKwWAvPLaheyiDTcWLsssDAxc1uvyaCryndEcZ2XpWZrE0xhzL+/F551+z6zGrhOxrsAlcfJ8yVOna+Mwcuay77Pism6j125s3LRn0ozNGm14/hVERLLmar+zRQMGaY+yiJWTd4iA2E+l1fd1mlJW2o/u/HQYuUcD9rllu5N6RkuyCRejW/Ir47/l6omBKy+Obffkb/9hSUNjQ1nr0qr7wSrYFcmftUbaGYa5q7hxx5xoEFQMMnVG7O/7ZlyUJI2ik75tgFkVuue1UwH5LifXDh07nTBcqwXF6I1D02T9QGu5FSkXm3NjI+MsutK+sT6StuHZqvsXoS0rjN14rcPqnzL2g4koTOL8yo1TA5c842cpkehwci/1GstPwvzUNRMDlzyLL3WQFVfCFvVJq0h6RZhwzGhxLG1G1Awa3nPn7OQcsxitxBMXS0PHYQbHxVoZ2n5Yl6/j6AhpGzqPTt+DEdKK2KxXY9OybJKvAZxF//88uTLsViL/otihdYk4T8+QsvL55RumJGuMsa0ceXmOeeZUxhaWBhFNNkQbv31p8U5/69Z90TNrkP8/vmhnsvD4rttmJQvbbMpEI4tNnZZ+OgVGrXk/vI2HaIcFfTa6YlyXNQcM2VZxTO+Z5ts8RuP5nV+dFrhiacvgBCxiP9hf3Tc/cMXiVn0n1j/K4k9+zE4wRIqB1Kr523jQUYQWFve5bHz7TFraFUnbpsEzYliUN1Ai0pt0Y2H1O5gUFjv2vVadQTGAi7UHnU837wVjxJ3fmrX1MoWSsrTRrjj9uowDI0ydxfZFZuWPFRLWbsu6Mc2c4OJoQOXJV2PAIZ9H0+4tX7h8tBoL34l3RU/Fje3P4rDF2IGL0M36FwvuVTsN9kFh9Z1ZGEyqits6dDx84rFhde9O4NkredB5okhQFX+rjVi3XFgOSLMeUCXtLOO1ZdJDE4+LdciiGq6SPoPMR+Zvr2zVBDEwxmUlvV7zRUTPVoDYWmoVeoXhFfmfETfGFIyK5lsmL6EnYU6oLrI7/MLFi+0FRj4kC46XNu/xXOYibpnwRcKybgGNaCgRnunlu9UJrkWB6uVwjN44hwWZOx0a2jzI6VGjRn7LjAn/D9Q+EcrDaCZtRIPoAzVtDNnWKftPXT0xWQhndEtjK3IxOuPMpCufWZUspNfJfyzHpV57ZWT+nrtmB66m8ISRIBJjnxT7/f75O8XX45qigXQoEx0o7ZO9NrRPbM2hCfqDBTvC3dO3XNZmUaxANJ5mTaFJ+uqkxSAaBsWGfvZE1klL4lJPaKVOXb8/sCSAjUcGn2ygZdsHRmTZI4dm51NLd0XFjZJWnl+ZOaG6yM5rKhYRAg2Ni6k1lzyX8RlNlQlfJCy0yZoA4ZtcRM8Dt5PfOSCMRWhG3CySI6dHQ4m1maKaQJbet10/JXDZ92WfZXRbNB7igytuntHTo9KiZfFw2TMLtPiQYjCI6RZWrNvRRhmQQQPaiWxRQBP0xy9ZFdG08V+967aZUeUZHa4f76mn3/ra9ISpc5gjzA8JCVq+MGusnDNLY+2Ruq2DQWXm9I2pm2tlXIdoj5v9wzs+jo+3AW8DY70NOHPqYZnxWG9cTr93kN4GvA1UbQOVmRNaGEQea1evyPCrVlhaPMqVVRexciO+4MpKMxYvLXzsPcZWOWIji7a0b4gMekn5JFa+0XwH9nXxH0366qZN2aj7bovbhY60dhh7322ai2LP2h5LG00tZ5TBipOz5bDLovTqcOBe1qFXMGYNv2KPKrZxUYOSdc/CYlOLi1n5lPkWO7vFViqad9Y8CtbVsyysy09ZhhYJS17sUWKf1OKK2npslEQ7UtIcb34d/JvGis6tqQ4O2nSbpUOhs2+a5rz03nrdpGR9RE4DsP9M1nO3aM4rk/7OWhrq8iiFNYVvGYbBPiUYlKapzH2ZvKSuxjRzYu8Oe3jKgCRhMYnzpRfWJqZx5F0v+Ch8oI2Y5djQ+tDc7UmngPWCa3+4JtlHkLY3BFVw9irRQKqUsYiR0Sx6+cbeLKyCV8m/bBxU8rnKxhvN8L3EnOjcmurgwMy22artTPCPbXyWbzH/zVe+nJx2jZo1HVoVV5fmGF1NvkNhAY06XBO0vvOmaQHzU2WcNutVpmxFt8hYWsY0c6IwZe3FCagYJeQ4A05TlXe94NPwijgMurLxlmMYDp84mzC0tEYrRjzTvqeVG8vRWFcWCxNF6EoLA8OlE4vlhSZVml29WPi8dxi85coL16nvMrMoi/9o0QcdTdJCWtrVSZtzxO6duTV3TxwzPzTJfvFLryRaZpxqXMehTt2ken2VusvShNUY18FX6PrkY8uTI2jKYIZBZLYKsJ8ybduKpK/9osYFLC1jnjlRgLKjQDlZsmWZeXSYE3bdUKt9R4qlAl15co/6OPubqro0e2ngA05lGzVqpVU33doyZDEnDEdyCQ51fc7SSTtPB/EIo1CwiK0BVVXVz6JZZhZl8c9Ks8436ChCC9ZGYhZHbN6kpV1a2rLGEcOdNBEfY/Gco0rS0pC8adPMlB6aOxAWDRxO9mRqGsreZx1rLnk27XO4pZzoTNpiISOGj8Y4z2hvETpjZ70VwYx+hLPAsLuZlw9936efWFF5cDvmmROA5jVkC+Lff3tBWDxwOGncTe22tnmwT4BRBpVjv6U9Y4UZ8yRVHSZC7KIli6iYg8E9uXhXqlmfGE3XPr8mHD5+tio5I+JlGX5FWYIrRgPvsEZe1CI54RFzcsXSIx82G+Ji7ebTj68IXLG48o4N0HYTtHyL+dKxxPKLhbfvmE1w2fdVn6GjCC0ffmhRcoxH7AwqnbeUTyo8ljYzHVkPin0nPX2+F5toZa+SzkvubZ6Sdx0/jS7Js6jP3imuvPCfe3pl4JJwWYNIXV6kJnUlAzq9KphZrDB1hpkulkukPPR92w+dqJJ8EmfcMSdGJfwkFDztZFIBt44vlW8rMStNiVO1Nu3oj2MVnl66qz2qLFtepu+Mkppw4B2b4bLh+IHZ25JN4GnYYPyUK+27fc86ZNpaJIewiRHKWN3wTr9nEzGXzoMzkWJnL+kw+l7qNUt0lLbOQnvlvBxsmuk0mf2zMVJoo/OHIUMXa3ux0TfxOSaDkbc9W0unLffM+LAWcM+MLYF1S3lvfSmftBONn4SVjpcwse+E0+lg2SFL+1SHlXzr+ml0SRmK+phGk+NLsuKQn54FSZlidMg3KWMsTFZe9ptNT9It6tv8WTrg8FaObpG86uYx7piTBsyezCqgNuFLPrYSs9KWOEUbiA2HySgsc0gerBdhwVhc1lHoEkf7TTInaIhh8flnVyWNmkMZ046LRyEjzaK5plfuEVmw2KtFJvJNRGxp9ECjpvNjjy4LXBIfn/VKLv0u617q1Q4edBzWO2JrHhJX00Q8Zm4YAKVzQxGG9VPWHvcfPZ0on9jwkhfnYnFwIyalrjBMV8KITxq0KcybYS37rRGjwljQ5nBD7WJ5805c7Dt56jBZZ62hYfvwvO2SXGN+Gl2CR1E/yyq+ToP8mAUxOGNdBjNLuBgdGpu0MJI2lmW45Nn6rCVzGnEdp2nEJiG2CS1dluay+Y1r5tQyPb8ktRJtpfLMiJUr9k3eYajzicUtTRhdifI9za9bmbZx2JNws9Z9YjTVPcnSNkaLhf5JmB2kia4Q93x/wY7CFuTJJ61z0xhbesCAd/o9BlLvnr65bQUacQ2MFAYYwyz2Li9P4nzg3rnJZeNLXE0TYTj4Dyvx/MBix1LjjRILB8Axg5RRPMxIZtKs7WSZpGENkBOAxWFnDXM2mr4rvjY9GQRgFFQ7SytxpByEi323YdJm2oTDvtzGweFBl867zn0aXbrMRe6LKuSQH+VEOjF07Ez7uPOYSFPjl4Uh9FlxoaXZDlqrYKbP29JLBw/O2dY2BWVpLpvPuGZOGwaPho+WNIaK+AQRBT89C+v2rB8aQuvnaR2wVabB161M22j/96mVYY85qbQMPVoUU7ZhxcK/uHLvCBVv1vswLIlDfIRNL/sj8YyoYODg8RHyeR3OGr2ljGmdm8Y4hgXv9DHZzLTW7nk9OaiRE3ARh20bOh7tYBmU0D6w5cb+O8pHO9HajrE8KQtlj5Vf6LXx5Lj1GM7yjqOz2W4xZ/NQoinJbHLPkdaxEi2jycOiOk5rZt1ARtwwNjl6W9LT++t+5tpJAVEO54pZZ2mlfFIOwsa+2zBZ4Zpul0J/Gl26reXdI04F2yIKAxoToQGfGRRtSOdlw6bRilIJ+z/ZrKvj6/sm8GNtfPqGA+HmiRsSJS7Z/sKARpSbLM26jEXuxzVz2jh4LHo0tq5Iey9aLvz07Dtg8Zx9FhKOc4S+N297OH2updiQ1ogkvPho9zHqqOt0fnSM0Kmd/i55p/l1G5fOl3tGh4gvJD/Bkm9Z+6D40Wj8iK5gFqhmSxr4dARYcGcEx0bfouKRGGKp3J8AAAwwSURBVBa8Q4yF8gjGkEV7ktnJybPn2x12LC5nLrGeSf5Yk4fxFsGfGSP5cXaWLhf3Ugc2P9aVwKyI4ycXa/4S3oq0f/H6V8LNE9cnR9CAp2Ao4fHZX4eSDyNzmBcnScecpVWXg/CxmYENQ7hYOu/+xqth8prBWLa138Xys/WR90waRSUUhI05+g4rNrZh02hlpo/4OO17DOcYDUXeUc4z5y6MOOONwQ+D4ibyGdfMadP+Y+G/flDuGAnbSNhfIcdOM2JAFr7z0Ml23XLEBerJeY36z+6anZy51I5Y8UY3ytgISX/PoultX56SiK8qkpEajVkE62JcekZBhDTaBHPpZGFQmna+nzp7PtFKRK1YOm0YlswEJLyklZaffIepcIxMmvYk4SRN8SVuauFTynj9i+sCZ3TF1tUkTZtfrG6z8rXfWuuPw8yQETczI2ZLnJMmGNp4dJyITDk8kvqIOUsrZy1xpLo4zmCLaQBKWSWcTQec2Tj/+smRAy4JX9cve1K01Lv2oRlcqB/9PnZvy6vpt2W3Ye13SV/aRdp3wtm0dL5171E2mrRmXzIIZWZVx41r5pQlSpLKRi4vsnktWxXQUZGet+VgUuFMaa0oZM7mg22Zv6QZ8zFLz76ruk6LzmKNcObGAyPUPWO08E6LJuvSZOMzC+GyLu2HsuXQ4RB/xEb5pM3R3ai3ShkRtTGjEcc61ttvGD5GRK+BSZg0X9NA+uwHYmE7z9l4xOUd6zYoHQit4vMNZ+PJ+7z80r5zorFeN6u6UTKWvqWVASADQXGx/YWxf8umI1hJOk37rBMjmhXsq/jQ3E3mJO0ihp2UR8I0jZ+kx8xt6NjpRNIg76r445o5bTlwLDmETyot5mOvDs0WOjmYT6xTzQJ+6Y4j4UMZe3gkz088tixwWmxdh+iMA/6QBcu+Ep1mS2TQUvdMsy1Ih484i8bRSZf2Q9mf6a5pm9ui1DzxlsjAf/6LkxNxkhaz6TUU6gEtq3V7iy20W1pbjC9f3ETdiPq31L2UD3pYTNcnO8s3nR/nciE6rut0mjLirpsm8XW6KA+xVqdxRwFAn9rMOg178ey/pdMBqxgDa4JeSaPuac3UG2JPi4HUs/UpX5pDE/Onr5mUMErWA7Grp53FRtKWNNO+s3cMsepYcOOaOR04ejpc9ezwGohUsPgykuZnQodf1pHKVOyOQycCaxGSZpqPRQPWOppwiKKQBacxF8RpjNJZ3P/c06va2jV0mhzFznQ8TazTBH1paaT9UPLDSTyO4xa1c/tNwojPTBYG9Z05A5cxHq1xRL2U6aAtrZ96bHkYKDC42H3kZHKSsezhaa01ttR6WdNBtVhvIJby6fw+eN/8ZLYuZazqS5rSzqumY+NJumAK47HiWztLlDJmpUNaqMxbBmbj1HnmfykijpN/mD1jXDwj0kc9H3V+nMZAwls/rdzEZz0bhSvixCy1pKUvaXLyb8wkGEsQdU091cG4TNy+YE6s86RZF3/7DVMDlzQMqTxAOnv+QqYxUqw8sHBcxyG/L6K509KOOl8nq1Jx6SC4lm4/HD70QMs6Axtdtx88MWKBs1SiNQPn/XCSvFg4h0E9Mn+HvC7tY5tQK1fotpGXmKU1pt2WlgZ7kRABIsplc61tY5I2GnH3v7o1SUbe0Y4ZQFBPdR0WRa58dnUi3ltXs51rWti0K8ejMAiinVmny8N9zOkwlDstXCxu1Xc2T+k3Yj6zXMwnsWbIBmvWPcUVSSerPHTMSD4IQzsVbbis9LHNxxH1OGaizDSFbvajURexGaqk2Wt+XzCnllps3LyL3hDHMefYnxNn5e5SkeKjJcaaUh2HnTC7u1/S137aT1wn7yJxmVm8tGpvuOb5NYH1qG66tB/a/sRgivgEcSvrhlWdXXO0+WSlyzqXqPuy2ffZZbtTZ6qxdBC/svaCqj8/oXZ0RtQHollZh9TYFFEj1+ml3bN4DaNE8aPJGQkzJbFQkYYp+62YqaOpyB63mNNl5oj1u6cP/7ux8E2803nq/zN2zyyL9RXao2UeL6zYk2tyKw2bIuWI0SntkPgo2OgjdLrVvxQpS1qYvmBOszYOhfcpm066IWGvjop8y9UTEzVjtLnE5TGnOo1H8jh6+ly4PuNYD4y9IpO3u+wlfid8xEloX1URWzZJX+yHEy0ymw91R+dqO3YbLuvZWmwoU9+IPWHmrHlhpQENtqYcHR31gZhXygcjRvxG227iCJOmaI2lAzbstUGtmT1WMYd4E9xQC6dzjzm9tlj12IVYulnvYm1Q9yf6Pqu9pG0CLxo/i0a+xejkIFA5b83assyiNS+vbn3vC+aUpXRApSzbeSTcM3PLZdNjOgGrltxU45EKZSGY/UY6XX0P82T/TEz0IWmMFz/2w41mR6zrH3V/1P7LOOLTEeOPtmNP0YcfalloKLM2Ntp0paXPQAfmzyAizdH5CPONhdGGirXB3ljYpt4xA46ZvdL/rNxndfh5A9+YkkOZMsT+lc8+uSLsPDws7pUwo7UtpAy9VcL2BXNCNCIbv6ThiJ/VgCg8IzvksRJefDmgrwqoOg6dF6NrSRefEbCMgrPo0+mMh3v5mTRWo40P+2+wMIGoDMsPveqYJSJKhDFZBYNepbkuXVjm+MjDLfNiaLwyCB1tF1Nz1+1R3+e1zVh7lvicQ8V6VVUXS9uaK0P7E6sjrIduGqwu/q5KY914fcGcrGqqNAD8vAbEjAV5rI7DfZNGT21DwqwNawqsh01V+27qVuZYj29xQlQ7a5TXwfa9dioxN0On1OS6y2jUBT8r13hx+r8uqg1ZF5t1+46Gf3+kmL3NvL4Frdf3ppxTVnc2E7OyYZkT4nrWVRGhjsV20xfMKU3poKioxnaKRZhamZ/Aps/mR0bp7Kk5fnpYw6dMmv0YVoy/omaNFhmMCZV4d+MTgdaevJb1d9ZlEX+PtsvbXqIHsXnMCXonrRlsK87ouFmbx4uUcfqG/ZcxPga8rFX2i+sL5hQTndEQio62Hpy9LfycOg6gqX0k0kg0c3r/PfNSLRpI+PHqM8iAQXGWD1pk7sY3AsxkUTphzRa/EzNb1g85Jl42wGLJPe1okTzmRO3ZvonlAvYWPrdsTy0zTLG1bG2rsh9aTl8wJypCMwAZoRRdOLaH8DWhQq4bh6Ytz6KBjuf3jsB4R4AN5XTEaTYORwMfRLxYaMAa/qMLd1Zaz9Z06f+f5QI0+ZqYBep06fN47ifX18ypaGUBwsQ1+5IjAzj7Bnt4TTrdiIrS1GT+npYj4AiUQ4A+AbEiTJFtHjGlqaL/MpudP3DvvGD3WZaj6PLQul9x5nQ5Pj3zxlZU2crCSjMMCsaUpf5apcCatqINuko+HscRcASaRwAGxZYP+pR33TYrYDmGJQO04Yo4NC1nbDyQzGyWbB/eZ1kkblYYzud6503Dhmr7rW/xmVNW7Tf0TZhTa29DyxxNQ0l7Mo6AIzDKCMBcbrl08jFbDthzNjB0IjnfqmjWaAWTTpPrZjsPnwzsbYJplh2MF6W7m+H6hjlxlDYmTqSieqmy2AWPkgXHUMgO7m5WuuftCDgCxRGAoTBLuvq51YnCTic2XRelTga+vdTfFaU9L1zfMCemy1jv7UXmxOFonPnEQiujJ3eOgCMwthBAgeHgsTOlZkudKKG2ouFivU4gXjEPNGt+9ca4BfKKSXo0R8ARcAR6FgGs08OUsFTfbcPNTYPUNzMngGFjK+b633Pn7PDeu+YkO/+bBszTcwQcAUegVxBA5IhqOkyq24abm8akr5gT4KB1h0mg6ev3B85ScucIOAKOgCMw9hDoO+Y09qrAKXYEHAFHwBGwCDhzsoj4syPgCDgCjkDXEXDm1PUqcAIcAUfAEXAELALOnCwi/uwIOAKOgCPQdQScOXW9CpwAR8ARcAQcAYuAMyeLiD87Ao6AI+AIdB0BZ05drwInwBFwBBwBR8Ai4MzJIuLPjoAj4Ag4Al1HwJlT16vACXAEHAFHwBGwCDhzsoj4syPgCDgCjkDXEXDm1PUqcAIcAUfAEXAELALOnCwi/uwIOAKOgCPQdQScOXW9CpwAR8ARcAQcAYuAMyeLiD87Ao6AI+AIdB0BZ05drwInwBFwBBwBR8Ai4MzJIuLPjoAj4Ag4Al1HoM2cuPHLMfA24G3A24C3gV5pA/8PlOoNuHlGI/kAAAAASUVORK5CYII=;fontFamily=Times New Roman;" parent="1" vertex="1">
          <mxGeometry x="-123" y="273.75" width="112.3" height="30" as="geometry" />
        </mxCell>
        <mxCell id="y-mU1MTox-dUx8l6JhDk-20" style="html=1;exitX=0.5;exitY=0;exitDx=0;exitDy=0;fontFamily=Times New Roman;fontColor=#000000;strokeColor=#000000;strokeWidth=2;dashed=1;" parent="1" source="y-mU1MTox-dUx8l6JhDk-21" target="y-mU1MTox-dUx8l6JhDk-33" edge="1">
          <mxGeometry relative="1" as="geometry">
            <mxPoint x="-203.29999999999995" y="43.75" as="targetPoint" />
          </mxGeometry>
        </mxCell>
        <mxCell id="y-mU1MTox-dUx8l6JhDk-21" value="&lt;font color=&quot;#000000&quot;&gt;Teacher Tensor&lt;/font&gt;" style="rounded=0;whiteSpace=wrap;html=1;fillColor=#d5e8d4;strokeColor=#82b366;fontFamily=Times New Roman;" parent="1" vertex="1">
          <mxGeometry x="-274" y="112.75" width="100" height="20" as="geometry" />
        </mxCell>
        <mxCell id="y-mU1MTox-dUx8l6JhDk-22" value="" style="endArrow=none;html=1;dashed=1;fontFamily=Times New Roman;fontColor=#000000;strokeColor=#000000;strokeWidth=2;endFill=0;startArrow=classic;startFill=1;" parent="1" edge="1">
          <mxGeometry width="50" height="50" relative="1" as="geometry">
            <mxPoint x="10.120000000000118" y="209.25" as="sourcePoint" />
            <mxPoint x="34.12000000000012" y="209.25" as="targetPoint" />
            <Array as="points">
              <mxPoint x="10.120000000000118" y="209.25" />
            </Array>
          </mxGeometry>
        </mxCell>
        <mxCell id="y-mU1MTox-dUx8l6JhDk-23" value="" style="endArrow=none;html=1;fontFamily=Times New Roman;fontColor=#000000;strokeColor=#000000;strokeWidth=2;endFill=0;startArrow=classic;startFill=1;" parent="1" edge="1">
          <mxGeometry width="50" height="50" relative="1" as="geometry">
            <mxPoint x="10.120000000000118" y="186.25" as="sourcePoint" />
            <mxPoint x="34.12000000000012" y="186.25" as="targetPoint" />
            <Array as="points">
              <mxPoint x="10.120000000000118" y="186.25" />
            </Array>
          </mxGeometry>
        </mxCell>
        <mxCell id="y-mU1MTox-dUx8l6JhDk-24" value="" style="rounded=0;whiteSpace=wrap;html=1;fillColor=#cce5ff;strokeColor=#36393d;fontFamily=Times New Roman;" parent="1" vertex="1">
          <mxGeometry x="12.120000000000118" y="225.25" width="20" height="10" as="geometry" />
        </mxCell>
        <mxCell id="y-mU1MTox-dUx8l6JhDk-25" value="" style="rounded=0;whiteSpace=wrap;html=1;fillColor=#d5e8d4;strokeColor=#82b366;fontFamily=Times New Roman;" parent="1" vertex="1">
          <mxGeometry x="12.120000000000118" y="245.25" width="20" height="10" as="geometry" />
        </mxCell>
        <mxCell id="y-mU1MTox-dUx8l6JhDk-26" value="Baseline Dataflow" style="text;html=1;strokeColor=none;fillColor=none;align=left;verticalAlign=middle;whiteSpace=wrap;rounded=0;fontFamily=Times New Roman;fontColor=#000000;" parent="1" vertex="1">
          <mxGeometry x="42.00000000000023" y="180" width="97" height="15" as="geometry" />
        </mxCell>
        <mxCell id="y-mU1MTox-dUx8l6JhDk-27" value="Distillation Dataflow&amp;nbsp;" style="text;html=1;strokeColor=none;fillColor=none;align=left;verticalAlign=middle;whiteSpace=wrap;rounded=0;fontFamily=Times New Roman;fontColor=#000000;" parent="1" vertex="1">
          <mxGeometry x="42.00000000000023" y="203.25" width="120.88" height="15" as="geometry" />
        </mxCell>
        <mxCell id="y-mU1MTox-dUx8l6JhDk-28" value="Baseline Modules&amp;nbsp;" style="text;html=1;strokeColor=none;fillColor=none;align=left;verticalAlign=middle;whiteSpace=wrap;rounded=0;fontFamily=Times New Roman;fontColor=#000000;" parent="1" vertex="1">
          <mxGeometry x="42.00000000000023" y="222.75" width="97" height="15" as="geometry" />
        </mxCell>
        <mxCell id="y-mU1MTox-dUx8l6JhDk-29" value="Teacher Modules&amp;nbsp;" style="text;html=1;strokeColor=none;fillColor=none;align=left;verticalAlign=middle;whiteSpace=wrap;rounded=0;fontFamily=Times New Roman;fontColor=#000000;" parent="1" vertex="1">
          <mxGeometry x="42.00000000000023" y="241.75" width="97" height="15" as="geometry" />
        </mxCell>
        <mxCell id="y-mU1MTox-dUx8l6JhDk-30" value="" style="rounded=0;whiteSpace=wrap;html=1;fillColor=#FFE6CC;strokeColor=#d79b00;fontFamily=Times New Roman;" parent="1" vertex="1">
          <mxGeometry x="12.120000000000118" y="269.25" width="20" height="10" as="geometry" />
        </mxCell>
        <mxCell id="y-mU1MTox-dUx8l6JhDk-31" value="Traditional Losses&amp;nbsp;" style="text;html=1;strokeColor=none;fillColor=none;align=left;verticalAlign=middle;whiteSpace=wrap;rounded=0;fontFamily=Times New Roman;fontColor=#000000;" parent="1" vertex="1">
          <mxGeometry x="42.00000000000023" y="264.75" width="145" height="15" as="geometry" />
        </mxCell>
        <mxCell id="y-mU1MTox-dUx8l6JhDk-32" style="edgeStyle=none;html=1;exitX=0.5;exitY=0;exitDx=0;exitDy=0;entryX=0.5;entryY=1;entryDx=0;entryDy=0;dashed=1;fontFamily=Times New Roman;fontColor=#000000;startArrow=none;startFill=0;endArrow=classic;endFill=1;strokeColor=#000000;strokeWidth=2;" parent="1" source="y-mU1MTox-dUx8l6JhDk-33" target="y-mU1MTox-dUx8l6JhDk-34" edge="1">
          <mxGeometry relative="1" as="geometry" />
        </mxCell>
        <mxCell id="y-mU1MTox-dUx8l6JhDk-33" value="&lt;font&gt;CI&lt;/font&gt;" style="rounded=0;whiteSpace=wrap;html=1;fillColor=#00CCCC;strokeColor=#82b366;fontFamily=Times New Roman;" parent="1" vertex="1">
          <mxGeometry x="-274" y="64.5" width="100" height="20" as="geometry" />
        </mxCell>
        <mxCell id="y-mU1MTox-dUx8l6JhDk-34" value="&lt;font color=&quot;#000000&quot;&gt;JCL&lt;br&gt;&lt;/font&gt;" style="rounded=0;whiteSpace=wrap;html=1;fillColor=#00CCCC;strokeColor=#00CCCC;fontFamily=Times New Roman;" parent="1" vertex="1">
          <mxGeometry x="-271.6399999999999" y="13.5" width="100" height="20" as="geometry" />
        </mxCell>
        <mxCell id="y-mU1MTox-dUx8l6JhDk-35" style="edgeStyle=none;html=1;exitX=0.5;exitY=0;exitDx=0;exitDy=0;entryX=0.5;entryY=1;entryDx=0;entryDy=0;fontFamily=Times New Roman;fontColor=#000000;strokeColor=#000000;strokeWidth=2;dashed=1;rounded=0;" parent="1" source="y-mU1MTox-dUx8l6JhDk-9" target="y-mU1MTox-dUx8l6JhDk-41" edge="1">
          <mxGeometry relative="1" as="geometry">
            <mxPoint x="26.795000000000073" y="120" as="sourcePoint" />
          </mxGeometry>
        </mxCell>
        <mxCell id="y-mU1MTox-dUx8l6JhDk-36" style="edgeStyle=none;html=1;exitX=0.5;exitY=0;exitDx=0;exitDy=0;entryX=0.5;entryY=1;entryDx=0;entryDy=0;dashed=1;fontFamily=Times New Roman;fontColor=#000000;startArrow=none;startFill=0;endArrow=classic;endFill=1;strokeColor=#000000;strokeWidth=2;rounded=0;" parent="1" source="y-mU1MTox-dUx8l6JhDk-9" target="y-mU1MTox-dUx8l6JhDk-42" edge="1">
          <mxGeometry relative="1" as="geometry">
            <mxPoint x="26.795000000000073" y="120" as="sourcePoint" />
          </mxGeometry>
        </mxCell>
        <mxCell id="y-mU1MTox-dUx8l6JhDk-37" style="edgeStyle=none;html=1;exitX=0.5;exitY=0;exitDx=0;exitDy=0;dashed=1;fontFamily=Times New Roman;fontColor=#000000;startArrow=none;startFill=0;endArrow=classic;endFill=1;strokeColor=#000000;strokeWidth=2;entryX=0.5;entryY=1;entryDx=0;entryDy=0;rounded=0;" parent="1" source="y-mU1MTox-dUx8l6JhDk-9" target="y-mU1MTox-dUx8l6JhDk-43" edge="1">
          <mxGeometry relative="1" as="geometry">
            <mxPoint x="-30.6099999999999" y="57" as="targetPoint" />
            <mxPoint x="26.795000000000073" y="120" as="sourcePoint" />
          </mxGeometry>
        </mxCell>
        <mxCell id="y-mU1MTox-dUx8l6JhDk-38" style="html=1;exitX=0.5;exitY=0;exitDx=0;exitDy=0;entryX=0.5;entryY=1;entryDx=0;entryDy=0;fontFamily=Times New Roman;fontColor=#000000;strokeColor=#000000;strokeWidth=2;dashed=1;rounded=0;" parent="1" source="y-mU1MTox-dUx8l6JhDk-21" target="y-mU1MTox-dUx8l6JhDk-41" edge="1">
          <mxGeometry relative="1" as="geometry">
            <mxPoint x="-149.10499999999956" y="120" as="sourcePoint" />
          </mxGeometry>
        </mxCell>
        <mxCell id="y-mU1MTox-dUx8l6JhDk-39" style="edgeStyle=none;html=1;exitX=0.5;exitY=0;exitDx=0;exitDy=0;entryX=0.5;entryY=1;entryDx=0;entryDy=0;fontFamily=Times New Roman;fontColor=#000000;startArrow=none;startFill=0;endArrow=classic;endFill=1;strokeColor=#000000;strokeWidth=2;dashed=1;rounded=0;" parent="1" source="y-mU1MTox-dUx8l6JhDk-21" target="y-mU1MTox-dUx8l6JhDk-42" edge="1">
          <mxGeometry relative="1" as="geometry">
            <mxPoint x="-149.10499999999956" y="120" as="sourcePoint" />
          </mxGeometry>
        </mxCell>
        <mxCell id="y-mU1MTox-dUx8l6JhDk-40" style="edgeStyle=none;html=1;exitX=0.5;exitY=0;exitDx=0;exitDy=0;entryX=0.5;entryY=1;entryDx=0;entryDy=0;dashed=1;fontFamily=Times New Roman;fontColor=#000000;startArrow=none;startFill=0;endArrow=classic;endFill=1;strokeColor=#000000;strokeWidth=2;rounded=0;" parent="1" source="y-mU1MTox-dUx8l6JhDk-21" target="y-mU1MTox-dUx8l6JhDk-43" edge="1">
          <mxGeometry relative="1" as="geometry">
            <mxPoint x="-149.10499999999956" y="120" as="sourcePoint" />
          </mxGeometry>
        </mxCell>
        <mxCell id="y-mU1MTox-dUx8l6JhDk-41" value="&lt;font color=&quot;#000000&quot;&gt;L1 Loss&lt;br&gt;&lt;/font&gt;" style="rounded=0;whiteSpace=wrap;html=1;fillColor=#FFE6CC;strokeColor=#d79b00;fontFamily=Times New Roman;" parent="1" vertex="1">
          <mxGeometry x="-159.60999999999967" y="13" width="50" height="20" as="geometry" />
        </mxCell>
        <mxCell id="y-mU1MTox-dUx8l6JhDk-42" value="&lt;font color=&quot;#000000&quot;&gt;L2 Loss&lt;br&gt;&lt;/font&gt;" style="rounded=0;whiteSpace=wrap;html=1;fillColor=#ffe6cc;strokeColor=#d79b00;fontFamily=Times New Roman;" parent="1" vertex="1">
          <mxGeometry x="-90.6099999999999" y="13" width="50" height="20" as="geometry" />
        </mxCell>
        <mxCell id="y-mU1MTox-dUx8l6JhDk-43" value="&lt;font color=&quot;#000000&quot;&gt;KLD&lt;br&gt;&lt;/font&gt;" style="rounded=0;whiteSpace=wrap;html=1;fillColor=#FFE6CC;strokeColor=#d79b00;fontFamily=Times New Roman;" parent="1" vertex="1">
          <mxGeometry x="-26.6099999999999" y="13" width="50" height="20" as="geometry" />
        </mxCell>
        <mxCell id="y-mU1MTox-dUx8l6JhDk-44" value="Label" style="text;html=1;strokeColor=none;fillColor=none;align=left;verticalAlign=middle;whiteSpace=wrap;rounded=0;fontFamily=Times New Roman;fontColor=#000000;" parent="1" vertex="1">
          <mxGeometry x="81.00000000000023" y="146.75" width="37.5" height="19.5" as="geometry" />
        </mxCell>
        <mxCell id="y-mU1MTox-dUx8l6JhDk-45" style="edgeStyle=none;html=1;entryX=0.5;entryY=1;entryDx=0;entryDy=0;fontFamily=Times New Roman;fontColor=#000000;strokeColor=#000000;strokeWidth=2;" parent="1" edge="1">
          <mxGeometry relative="1" as="geometry">
            <mxPoint x="94.00000000000023" y="150" as="sourcePoint" />
            <mxPoint x="94.27000000000066" y="133.5" as="targetPoint" />
          </mxGeometry>
        </mxCell>
        <mxCell id="y-mU1MTox-dUx8l6JhDk-46" value="" style="rounded=0;whiteSpace=wrap;html=1;fillColor=#00CCCC;strokeColor=#00CCCC;fontFamily=Times New Roman;" parent="1" vertex="1">
          <mxGeometry x="12.120000000000118" y="288.25" width="20" height="10" as="geometry" />
        </mxCell>
        <mxCell id="y-mU1MTox-dUx8l6JhDk-47" value="Proposed JCL loss" style="text;html=1;strokeColor=none;fillColor=none;align=left;verticalAlign=middle;whiteSpace=wrap;rounded=0;fontFamily=Times New Roman;fontColor=#000000;" parent="1" vertex="1">
          <mxGeometry x="42.00000000000023" y="286.75" width="124.88" height="15" as="geometry" />
        </mxCell>
        <mxCell id="oOy7QrCfU1HmPFGgPFGF-1" value="Encoder&lt;br&gt;(Conformer)" style="rounded=0;whiteSpace=wrap;html=1;fillColor=#d5e8d4;strokeColor=#82b366;" vertex="1" parent="1">
          <mxGeometry x="-336" y="633" width="120" height="60" as="geometry" />
        </mxCell>
        <mxCell id="oOy7QrCfU1HmPFGgPFGF-2" value="" style="shape=image;verticalLabelPosition=bottom;labelBackgroundColor=#ffffff;verticalAlign=top;aspect=fixed;imageAspect=0;image=data:image/png,iVBORw0KGgoAAAANSUhEUgAAAacAAABxCAYAAABx/2weAAAgAElEQVR4Ae2dh5dlR3GH+U9sY+OAI8Y2xpYjDtgYG7BxxAEbG5uMbYyEAggJJBRAAUkICSQEyglJq93VZm3OOYfZvLM7G6TNWe3z3bf1pqa2b77z3ps31efc0zd0qP51367u6urqNwV3joAj4Ag4Ao5AjyHwph6jx8lxBBwBR8ARGOcIvPHGG8GZ0zhvBF58R8ARcAR6DQFnTr1WI06PI+AIOAKOQHDm5I3AEXAEHAFHoOcQcObUc1XiBDkCjoAj4Ag4c/I24Ag4Ao6AI9BzCDhz6rkqcYIcAUfAEXAEnDl5G3AEHAFHwBHoOQScOfVclThBjoAj4Ag4As6cvA04Ao6AI+AI9BwCzpx6rkqcIEfAEXAEHAFnTt4GHAFHwBFwBHoOAWdOPVclTpAj4Ag4Ao6AMydvA46AI+AIOAI9h4Azp56rEifIEXAEHAFHwJmTtwFHwBFwBByBnkPAmVPPVYkT5Ag4Ao6AI+DMyduAI+AIOAKOQM8h4Myp56rECXIEHAFHwBFw5uRtwBFwBBwBR6DnEHDm1HNV4gQ5Ao6AI+AIOHPyNuAIOAKOgCPQcwg4c+q5KnGCHAFHwBFwBJw5eRtwBBwBR8AR6DkEnDn1XJU4QY6AI+AIOALOnLwNOAKOgCPgCPQcAn3DnA4cOx1eWLk3fGPqprBg26GeA9oJcgQcAUfAESiOQN8wJxjT7902M/zI5yeE26dsDBffeKM4Ch7SEXAEHAFHoKcQ6BvmxIwJxsT1d99eEBYN+Oypp1qaE+MIOAKOQAkE+pI5/fhVL4e7p28uAYMHdQQcAUfAEeglBPqSOTF7+vijy8KWA8d7CWunxRFwBBwBR6AgAn3LnN5+w5Tw/QU7CsLgwRwBR8ARaBYBOtehY6fDzsMnw6mzF5pN/FJq5HH4xNnk4r6fXN8yJ2ZPrEO5cwQcAUegGwjsPnIy3Ddza/jskyvCy6v3hVNnz4emGcj8rYfCtT9ck1zc95Nz5tRPtellcQQcgcYRQPP39LkL4ez5i6XSfmbp7nDFzdMTJa0/v3tO+NqkDWHRwOFSaWQFpvP++pRhRbB+G4w7c8qqff/mCDgC4x6BeVsPhpsmrg8Pz9selu04Eo6cPFsIE61BjCTnzVe+HO6a1pyi1spdr4V/+e6itpayM6dC1dL5QLYh9JJYb8ehE+GJxbvCjA0HRk323HnEPUdHYHwgIH3Lr944NfzjgwvDxDX7ChVc4tEXyfWR7y0Ja/e+Xih+XqD7X90afubaSe20mUU1LTbMo2E0v/fFzOnCxTfCba9sbFeSNIReGUnAmH79q9MCU3sYlLt0BF4/eS4wIpy+fn/YeuB4X/1s6aX2L72MgGUyRZmAjUe/9HNfnBwenLOtdnGtSI+0b528MZy/UE70WJuQUUygL5jTmXMXws0TN9RiTucuXAwsYO597VSA2TXpdCPtFYYZKx/lbrrssXzS3iEueXzRzkRU8d675iSilJ2HTqQF9/fjAIGhY2fCxsGj4dDxMx0tLSbQ+Fenrd8fbpywbkTfcvOkDeHM+XztO/3fy4AZv4k+ADyueX7NCLpY0yq7LtZRUEtm1hfMicVKZMK6AZRtBLM3D4X/eWpl+NzTq9qN8vVT50rCGQ+uG+m/PrQ4rN7dmtYDPlcvOBjzk4t3hZdW7k3UUrtB05wtQ+Ev75vXrsd33jQtPLlkVzdI8Tx7AAEGjM8t3x3+8/tLw4sr93bMJBmzD2Yh9CF/dtec5NJ9y38/uSJsGzoeoC/L6f9ex//MEysCov46Du2/P/z6rPa/QvrOnOogOkpx2UPw1ZcvZ07Xv7QuHD2dz2AYbVCx0oDefNXLSYOcvHawEYp1I33rtZOSEc9TS3aFO6ZuSn46Rofddk8v3R1+8+bp4U/vnB2mrNvfFXLYl8b+NKkHfMS13ZzNdQUIzzRBgAETA0bawVdeXh9Onj3fEWS2HzwRPv348hHtULfJ3711Zrjq2dW5Bqb1f6/jI+J/bNHOcLGGhCaWtjOnjjSPcpmkMacPfmt+QNMmz726aSi8/57hEbs0JBpAE842JGYEv3HT9PCjn58Qfv+2mQmDaiKfqmkcPXUuXP9iS3TxE194OXxzxpaqSdWKd+/MLeEnr544olP43NMrE1FrrYQ9ckcRoNPdtP9YWLjtUC1x3PytB8Nff2t+0h7Yy3P4RGcGcU8v3ZUM1KQfiPl5/wkDqtg6uKRVl9naPoV0b3hpXTheYDDe0cZQI7O+EOu9dvJs+OILa0d0alTWr31lajJCycMnVtHEHy3mJA1U/KbyyStn2vdX1g6GP7ljdhu/ogu+aelVfR+rB0QXiDD6zfWSSLdpbFknpPP92/sXhAmr9lZOHqUY1h75T77w3OrQKQlDrB3Kv6r9rP927paD4a+UiFrH4/6Tjy1PRINVwYnR+NknVoR+WqPtC+a0+cCx8LFHl7U7V2kIiNC+/Wq2ZsyRE2fDdT8cubAo8bMaX5lGFWtIkgd+a1RYbO9EmXyLhrX0XfnsqrD/6Omi0RsLZ+kAm7wRat3MB18/lYzw664BlKFj4+Cx8NDcgUT5o5P5lqGxTlg987h9yqbKa0VotqLhSjv4/DOrwuDrnWmTsXao/1e5J1yay0vjd2+dEX64Yk9a9Nz3sfStmvrg0dPh+RV7kkH2Cyv2hgNd+KdzC5IRoC+Y09Idh8OHHlx4GXOiEWU1IHCZuHpf+KOvv1opbgau7U8ArHdxS8PWfrdnB7ahcy4W52N12lk6BKO8OqxKJ6IXdvH/7f3zk0EM4s0yTjS65mw+WFiF9/zFi+HBOQPhl65/Jdle8MTinSOyZP0TMTNlxhwN7WesOV2PH/vBsrB5/7HLioC2G0oFMOe0NUWUIBB70w7++buLwopdRy5Lp+kXRf7XIu1SYyDhtc+69l01Tk6IpW+ZE4zpd25t4fd7t85MxIyxumgaw6bS6wvmtGT74fAPD1RjTrFKlkZ0y+QNuRo5eRWhNX8k3ZgPHZ1yrAmgaSSdQgyDTtIj5Y7RAVajRQsL7IifyAOxJuLNog4mc+ulvXV/ee+8AIMq4qy4x5attf45N6Hpyy+tDcfUGgI/61hgVroe337D1KgB5lmbhhLRFpprYBJz3569Lbz1utYm01+7cWp4bOFIRh6LU/cd/8btkT2TZf9ZjUEsbt12HUv/Iw8vCWv3DG/wtWF++ctTwn2ztoYTZzqjWFK3LvqCOemFU9sQqKCFA4fCHdM2JyNSuw/AVqCO34S4zWoC6vT1fROMsGhjmLflYCA/OsKz5y+0O1lND7h02qXVxWjRcvD4mXD186vbs+Yy+bAfDmUNwaxoXFtGK/bS35nRoVSAYzDBdgdm4czYetnpMoBPDBsdJvad8ukwKA/dMbU50z9p+KF0wX8v9Zrl/8t3Fyd1wqAGWvVMV9OelkZaudNo0+9j6f/bw4vDmgzmBB2oxrN3ayy4vmBOjy/eGd7x1WnRBsXImD1QP3rlhEQjjw5ZHIXPErn91/eXhk2Dl4skJH4Rvyhzuv7FtaGsWKlI/rEw0rBZsMUUC3nbH6jOjxPLs8g7oatTtKzfdzT8xyNL2mUvU+ZJawbDH39jWBxcNK4t400TNyRGRcEHpvM397e008CgZU1gIIEOxvSBe1sapUXzysOctkm6dFbHTzc3mrZljNGrw8S+Q7sOAx6dUNThf/gjVa+2Lernn75mUlInokz0mSeWt/cvWdp1PLlPK7fUGwZnkW7EZsux9P/14cVh9SXmlNW35eUr+Xfb7wvmFKsoaQD//r0lgUuedcUwvbW7vyUcfhPHvRdlTk0u+FKpsQZNY6MTQuVUysk+EtlLIu/wO9ER2MafVo+6zojDD4vsfPnOIwFNzaquxQwWtLGw+WSla9Xei8a1ZcRWG8ZEcfYb9SDp6m/XvbC2sPHRrDIwUIPhMZqe2uDeNk2rLoPQYjtOKaN8F9+mk7Z+JeGb8G2e+p/Iu2f/kqwhFkknrdyUA4wQd6KOPnPjgcssUsTSZ/+VKFlk9TtZ+TaBYVNpgMGbmkqsW+nEKkoaEhtLueRZVwwaaWimyTfrsxeJzbJ1XMt6xfAGX5uHPH/4ocVh1e7X6mSVxGWhedbGA6niH0QPsneEvP/+gQXJJXSIf8OEdeF4h2XTafWo64xCDhw8Eb4yYX34p+8sCsxgqjpEZqg7S5nLMGRLK5vAixwoZ+P97HWTwwOzWxql9ht0Sdn1N2a8aes0ZbDQaTa52Vmnq8sgtDEjuH3KsC1MKaN8F9+mM9oHiFqmKe2ijC9lsbTH0pCwUl7tM/iCGRMvVt9p6Uua/Lv8w2Xz1TR0+77vmROqyFxSSVJ5AN9aN0hnTsSR8ADFleVI79llu5OOQ5QNUH9lViT5p/nvv2dusgaUlX6Rbyw0v++e1oJ6rLNFtR4Ve6Hj3Xe8GrjkWfz/e2ZV2Pf6qSJZNhImq2OQOpCMwPi3vjYjofmWyRvbSiuxOmKBG4YdMzVjTcD871Mrw54jJyWbTB+aBCt8LAYsGjiUWJxOW3BOK6OUz6ZJurFvWtyXSWTOR50fa2+swTXhdLq6DJK23ZcYa6eEtemQVpNMVOgR364jkl/ZK1ZfaWlIWMlf+y1rKVOT/GOafTFsyEfSxPI52nuxvCWMzq8X7/lf+nrmZCtHVwydL52wDaOfMfJIh88PNGfzUKIyzImWjN73HDnVViEGSOk0mZnIqZTsacE2mE4zdg+DaMJckm60sR9Zf4cO1k302onQVlZ7rW7jTrOPCD26zsgHFVx+WL596rHlYWDoeII3dcQlCgMwCUwxUYcwMXkvtGIdmo5eygzDow6LOIvjn9w5O2A3kQ4BUTEiMwwS0y7EoXn3ZSVSlXylfDZNXXb7TeJI2nk+dGha7IzeqiHnpZf13dL6pRfXBm2ncsWu1xLVcCk/jD22B8emQ/gmmagtwyvrBgP1KHRV8aE5S6Sm08yqQ1t2G9Z+l3Ql3CPzdwS08+S99iWMLX8Tz8yKGeAx80sbpBXNh/bqzCljhMQsRGYiqAzT6bCA/KnHlwdG2mwURDzIKFzEZShfoB2I2zB4NHy0AHNi3wuHmdV1utHGTOjr7zRYGnAnGzEMAhq4NLPAIjlrKfonknvC4tgX8+jCnSOUBhC93jp5Q2Ax2oannlhPkffW9pidRRJO8orVg+7gCSfpxnxmwljKR5NUHJpUaFTZ8JJnLM20b/Je0s7yMTR8/6vbAuf/rL4kOrazFzaFYmQV0SSMq46z5bADr5dW7Q3vun3YaCn76n6wcMcItXnyt+mAW1MShlj5Yu3B1lXeM4f/sUaUtrFfx8+qQ1t2G9Z+l3TZ3sA2h7TvhLNpxbCo+g57iHdO25yIJOtqBY5r5lRU5CYVj//B++Ynl7xDaYKRod3IKw0A237Y+JPwWb7EqdowiKcbpbW1RWUzs8iiQX9rgh5dFitquHHC+vboasuBY+HjESsf0AMd0P7owh2BA980jdyzEM0l74VujQXfbMdmZ06Ekbh00mhPIg7knkGInpnZtCVv61/3wpq28gLGPjGpZcOgTs5om9md/Sb02PyYneWNTBEtc0mnqy2mYAoIk0CS349dOSFZf2PtDA1CPXDQdVjk3tJKHlIO4n937kD4hS+90s6b7y2DwyPXD2PpUAaYLO2haRfLT/Ap6qPBx0BJa4GmxSU/ZtN04lPWDbZnlzGrNRo/yp1GK1b9YY6xtiR0NKVQwyAG+mm74p5ZtjtccUnkLoxSvpX1nTnliPWkQtN8DJVaY6WEpfPgzJXvzd8+ouNMS4f3tgGWrUzC60aLaf9dh4fXUKymXhYtTdGjy4BlBC1GEy0xRAHMSGEeMZrYCoDNsKsylFd0PDCgU0asqd/bMmHgVq9HyndmcYj3MIaLqrU2oyNhNM42D/2MWrKcnJoWh9kUHVRMOYc4tl5JXzTXKCedAx0FG4EJP2fLweSi/FxaPV1MU7WO+L58Fie02w6MPDbsOxqeX74nPLd8TyK2od5iLlZOKQfhkSogXZC8xNdhYmWWcJ94dFlyEGUs7zrvYnRLnmV82rWesafFJT/EzoSFOYtYP2a1pig25HXls6uTKy1f3Sar4sU6LvQipmaflygDaQz5b+vMwsc1c2piATStAdDgOAwMUV+MecXi2QZYpeHoxiEdmKRjNfViNOh3dUc+kq/4mjbJh1nlrI1Dia25X7nh8lkF4f7im3MDRi0xwSLxsnxmOGg+sgZkw2mMY/TwTu91YZ+cWJGQtGLv5FvMlzxj+REehv1/T6+Mrk2mxWV0ygzihRV7kuNemO0gdiY9Rs/6XCxNk6gbo4WKSFR/0/fSgSXan5uGkjw++sjS8Du3zAi/fcuMhDly1hZiHOti5ZRyEDb2nbx1GPJlrVDTJPfMnhHvwhxReGlqFpVGl+Rb1H/HV6YFrrzwMhOXcFL+GB3yTbCOhZF0MIdmz3qSb+Lb9CTdor5WvML+ITNu0tQDIfq/OodEjjvmRIOQxkwHhgq3VFi3/boNRpvUoSx6Dw2N7jtzBsLPKwWAvPLaheyiDTcWLsssDAxc1uvyaCryndEcZ2XpWZrE0xhzL+/F551+z6zGrhOxrsAlcfJ8yVOna+Mwcuay77Pism6j125s3LRn0ozNGm14/hVERLLmar+zRQMGaY+yiJWTd4iA2E+l1fd1mlJW2o/u/HQYuUcD9rllu5N6RkuyCRejW/Ir47/l6omBKy+Obffkb/9hSUNjQ1nr0qr7wSrYFcmftUbaGYa5q7hxx5xoEFQMMnVG7O/7ZlyUJI2ik75tgFkVuue1UwH5LifXDh07nTBcqwXF6I1D02T9QGu5FSkXm3NjI+MsutK+sT6StuHZqvsXoS0rjN14rcPqnzL2g4koTOL8yo1TA5c842cpkehwci/1GstPwvzUNRMDlzyLL3WQFVfCFvVJq0h6RZhwzGhxLG1G1Awa3nPn7OQcsxitxBMXS0PHYQbHxVoZ2n5Yl6/j6AhpGzqPTt+DEdKK2KxXY9OybJKvAZxF//88uTLsViL/otihdYk4T8+QsvL55RumJGuMsa0ceXmOeeZUxhaWBhFNNkQbv31p8U5/69Z90TNrkP8/vmhnsvD4rttmJQvbbMpEI4tNnZZ+OgVGrXk/vI2HaIcFfTa6YlyXNQcM2VZxTO+Z5ts8RuP5nV+dFrhiacvgBCxiP9hf3Tc/cMXiVn0n1j/K4k9+zE4wRIqB1Kr523jQUYQWFve5bHz7TFraFUnbpsEzYliUN1Ai0pt0Y2H1O5gUFjv2vVadQTGAi7UHnU837wVjxJ3fmrX1MoWSsrTRrjj9uowDI0ydxfZFZuWPFRLWbsu6Mc2c4OJoQOXJV2PAIZ9H0+4tX7h8tBoL34l3RU/Fje3P4rDF2IGL0M36FwvuVTsN9kFh9Z1ZGEyqits6dDx84rFhde9O4NkredB5okhQFX+rjVi3XFgOSLMeUCXtLOO1ZdJDE4+LdciiGq6SPoPMR+Zvr2zVBDEwxmUlvV7zRUTPVoDYWmoVeoXhFfmfETfGFIyK5lsmL6EnYU6oLrI7/MLFi+0FRj4kC46XNu/xXOYibpnwRcKybgGNaCgRnunlu9UJrkWB6uVwjN44hwWZOx0a2jzI6VGjRn7LjAn/D9Q+EcrDaCZtRIPoAzVtDNnWKftPXT0xWQhndEtjK3IxOuPMpCufWZUspNfJfyzHpV57ZWT+nrtmB66m8ISRIBJjnxT7/f75O8XX45qigXQoEx0o7ZO9NrRPbM2hCfqDBTvC3dO3XNZmUaxANJ5mTaFJ+uqkxSAaBsWGfvZE1klL4lJPaKVOXb8/sCSAjUcGn2ygZdsHRmTZI4dm51NLd0XFjZJWnl+ZOaG6yM5rKhYRAg2Ni6k1lzyX8RlNlQlfJCy0yZoA4ZtcRM8Dt5PfOSCMRWhG3CySI6dHQ4m1maKaQJbet10/JXDZ92WfZXRbNB7igytuntHTo9KiZfFw2TMLtPiQYjCI6RZWrNvRRhmQQQPaiWxRQBP0xy9ZFdG08V+967aZUeUZHa4f76mn3/ra9ISpc5gjzA8JCVq+MGusnDNLY+2Ruq2DQWXm9I2pm2tlXIdoj5v9wzs+jo+3AW8DY70NOHPqYZnxWG9cTr93kN4GvA1UbQOVmRNaGEQea1evyPCrVlhaPMqVVRexciO+4MpKMxYvLXzsPcZWOWIji7a0b4gMekn5JFa+0XwH9nXxH0366qZN2aj7bovbhY60dhh7322ai2LP2h5LG00tZ5TBipOz5bDLovTqcOBe1qFXMGYNv2KPKrZxUYOSdc/CYlOLi1n5lPkWO7vFViqad9Y8CtbVsyysy09ZhhYJS17sUWKf1OKK2npslEQ7UtIcb34d/JvGis6tqQ4O2nSbpUOhs2+a5rz03nrdpGR9RE4DsP9M1nO3aM4rk/7OWhrq8iiFNYVvGYbBPiUYlKapzH2ZvKSuxjRzYu8Oe3jKgCRhMYnzpRfWJqZx5F0v+Ch8oI2Y5djQ+tDc7UmngPWCa3+4JtlHkLY3BFVw9irRQKqUsYiR0Sx6+cbeLKyCV8m/bBxU8rnKxhvN8L3EnOjcmurgwMy22artTPCPbXyWbzH/zVe+nJx2jZo1HVoVV5fmGF1NvkNhAY06XBO0vvOmaQHzU2WcNutVpmxFt8hYWsY0c6IwZe3FCagYJeQ4A05TlXe94NPwijgMurLxlmMYDp84mzC0tEYrRjzTvqeVG8vRWFcWCxNF6EoLA8OlE4vlhSZVml29WPi8dxi85coL16nvMrMoi/9o0QcdTdJCWtrVSZtzxO6duTV3TxwzPzTJfvFLryRaZpxqXMehTt2ken2VusvShNUY18FX6PrkY8uTI2jKYIZBZLYKsJ8ybduKpK/9osYFLC1jnjlRgLKjQDlZsmWZeXSYE3bdUKt9R4qlAl15co/6OPubqro0e2ngA05lGzVqpVU33doyZDEnDEdyCQ51fc7SSTtPB/EIo1CwiK0BVVXVz6JZZhZl8c9Ks8436ChCC9ZGYhZHbN6kpV1a2rLGEcOdNBEfY/Gco0rS0pC8adPMlB6aOxAWDRxO9mRqGsreZx1rLnk27XO4pZzoTNpiISOGj8Y4z2hvETpjZ70VwYx+hLPAsLuZlw9936efWFF5cDvmmROA5jVkC+Lff3tBWDxwOGncTe22tnmwT4BRBpVjv6U9Y4UZ8yRVHSZC7KIli6iYg8E9uXhXqlmfGE3XPr8mHD5+tio5I+JlGX5FWYIrRgPvsEZe1CI54RFzcsXSIx82G+Ji7ebTj68IXLG48o4N0HYTtHyL+dKxxPKLhbfvmE1w2fdVn6GjCC0ffmhRcoxH7AwqnbeUTyo8ljYzHVkPin0nPX2+F5toZa+SzkvubZ6Sdx0/jS7Js6jP3imuvPCfe3pl4JJwWYNIXV6kJnUlAzq9KphZrDB1hpkulkukPPR92w+dqJJ8EmfcMSdGJfwkFDztZFIBt44vlW8rMStNiVO1Nu3oj2MVnl66qz2qLFtepu+Mkppw4B2b4bLh+IHZ25JN4GnYYPyUK+27fc86ZNpaJIewiRHKWN3wTr9nEzGXzoMzkWJnL+kw+l7qNUt0lLbOQnvlvBxsmuk0mf2zMVJoo/OHIUMXa3ux0TfxOSaDkbc9W0unLffM+LAWcM+MLYF1S3lvfSmftBONn4SVjpcwse+E0+lg2SFL+1SHlXzr+ml0SRmK+phGk+NLsuKQn54FSZlidMg3KWMsTFZe9ptNT9It6tv8WTrg8FaObpG86uYx7piTBsyezCqgNuFLPrYSs9KWOEUbiA2HySgsc0gerBdhwVhc1lHoEkf7TTInaIhh8flnVyWNmkMZ046LRyEjzaK5plfuEVmw2KtFJvJNRGxp9ECjpvNjjy4LXBIfn/VKLv0u617q1Q4edBzWO2JrHhJX00Q8Zm4YAKVzQxGG9VPWHvcfPZ0on9jwkhfnYnFwIyalrjBMV8KITxq0KcybYS37rRGjwljQ5nBD7WJ5805c7Dt56jBZZ62hYfvwvO2SXGN+Gl2CR1E/yyq+ToP8mAUxOGNdBjNLuBgdGpu0MJI2lmW45Nn6rCVzGnEdp2nEJiG2CS1dluay+Y1r5tQyPb8ktRJtpfLMiJUr9k3eYajzicUtTRhdifI9za9bmbZx2JNws9Z9YjTVPcnSNkaLhf5JmB2kia4Q93x/wY7CFuTJJ61z0xhbesCAd/o9BlLvnr65bQUacQ2MFAYYwyz2Li9P4nzg3rnJZeNLXE0TYTj4Dyvx/MBix1LjjRILB8Axg5RRPMxIZtKs7WSZpGENkBOAxWFnDXM2mr4rvjY9GQRgFFQ7SytxpByEi323YdJm2oTDvtzGweFBl867zn0aXbrMRe6LKuSQH+VEOjF07Ez7uPOYSFPjl4Uh9FlxoaXZDlqrYKbP29JLBw/O2dY2BWVpLpvPuGZOGwaPho+WNIaK+AQRBT89C+v2rB8aQuvnaR2wVabB161M22j/96mVYY85qbQMPVoUU7ZhxcK/uHLvCBVv1vswLIlDfIRNL/sj8YyoYODg8RHyeR3OGr2ljGmdm8Y4hgXv9DHZzLTW7nk9OaiRE3ARh20bOh7tYBmU0D6w5cb+O8pHO9HajrE8KQtlj5Vf6LXx5Lj1GM7yjqOz2W4xZ/NQoinJbHLPkdaxEi2jycOiOk5rZt1ARtwwNjl6W9LT++t+5tpJAVEO54pZZ2mlfFIOwsa+2zBZ4Zpul0J/Gl26reXdI04F2yIKAxoToQGfGRRtSOdlw6bRilIJ+z/ZrKvj6/sm8GNtfPqGA+HmiRsSJS7Z/sKARpSbLM26jEXuxzVz2jh4LHo0tq5Iey9aLvz07Dtg8Zx9FhKOc4S+N297OH2updiQ1ogkvPho9zHqqOt0fnSM0Kmd/i55p/l1G5fOl3tGh4gvJD/Bkm9Z+6D40Wj8iK5gFqhmSxr4dARYcGcEx0bfouKRGGKp3J8AAAwwSURBVBa8Q4yF8gjGkEV7ktnJybPn2x12LC5nLrGeSf5Yk4fxFsGfGSP5cXaWLhf3Ugc2P9aVwKyI4ycXa/4S3oq0f/H6V8LNE9cnR9CAp2Ao4fHZX4eSDyNzmBcnScecpVWXg/CxmYENQ7hYOu/+xqth8prBWLa138Xys/WR90waRSUUhI05+g4rNrZh02hlpo/4OO17DOcYDUXeUc4z5y6MOOONwQ+D4ibyGdfMadP+Y+G/flDuGAnbSNhfIcdOM2JAFr7z0Ml23XLEBerJeY36z+6anZy51I5Y8UY3ytgISX/PoultX56SiK8qkpEajVkE62JcekZBhDTaBHPpZGFQmna+nzp7PtFKRK1YOm0YlswEJLyklZaffIepcIxMmvYk4SRN8SVuauFTynj9i+sCZ3TF1tUkTZtfrG6z8rXfWuuPw8yQETczI2ZLnJMmGNp4dJyITDk8kvqIOUsrZy1xpLo4zmCLaQBKWSWcTQec2Tj/+smRAy4JX9cve1K01Lv2oRlcqB/9PnZvy6vpt2W3Ye13SV/aRdp3wtm0dL5171E2mrRmXzIIZWZVx41r5pQlSpLKRi4vsnktWxXQUZGet+VgUuFMaa0oZM7mg22Zv6QZ8zFLz76ruk6LzmKNcObGAyPUPWO08E6LJuvSZOMzC+GyLu2HsuXQ4RB/xEb5pM3R3ai3ShkRtTGjEcc61ttvGD5GRK+BSZg0X9NA+uwHYmE7z9l4xOUd6zYoHQit4vMNZ+PJ+7z80r5zorFeN6u6UTKWvqWVASADQXGx/YWxf8umI1hJOk37rBMjmhXsq/jQ3E3mJO0ihp2UR8I0jZ+kx8xt6NjpRNIg76r445o5bTlwLDmETyot5mOvDs0WOjmYT6xTzQJ+6Y4j4UMZe3gkz088tixwWmxdh+iMA/6QBcu+Ep1mS2TQUvdMsy1Ih484i8bRSZf2Q9mf6a5pm9ui1DzxlsjAf/6LkxNxkhaz6TUU6gEtq3V7iy20W1pbjC9f3ETdiPq31L2UD3pYTNcnO8s3nR/nciE6rut0mjLirpsm8XW6KA+xVqdxRwFAn9rMOg178ey/pdMBqxgDa4JeSaPuac3UG2JPi4HUs/UpX5pDE/Onr5mUMErWA7Grp53FRtKWNNO+s3cMsepYcOOaOR04ejpc9ezwGohUsPgykuZnQodf1pHKVOyOQycCaxGSZpqPRQPWOppwiKKQBacxF8RpjNJZ3P/c06va2jV0mhzFznQ8TazTBH1paaT9UPLDSTyO4xa1c/tNwojPTBYG9Z05A5cxHq1xRL2U6aAtrZ96bHkYKDC42H3kZHKSsezhaa01ttR6WdNBtVhvIJby6fw+eN/8ZLYuZazqS5rSzqumY+NJumAK47HiWztLlDJmpUNaqMxbBmbj1HnmfykijpN/mD1jXDwj0kc9H3V+nMZAwls/rdzEZz0bhSvixCy1pKUvaXLyb8wkGEsQdU091cG4TNy+YE6s86RZF3/7DVMDlzQMqTxAOnv+QqYxUqw8sHBcxyG/L6K509KOOl8nq1Jx6SC4lm4/HD70QMs6Axtdtx88MWKBs1SiNQPn/XCSvFg4h0E9Mn+HvC7tY5tQK1fotpGXmKU1pt2WlgZ7kRABIsplc61tY5I2GnH3v7o1SUbe0Y4ZQFBPdR0WRa58dnUi3ltXs51rWti0K8ejMAiinVmny8N9zOkwlDstXCxu1Xc2T+k3Yj6zXMwnsWbIBmvWPcUVSSerPHTMSD4IQzsVbbis9LHNxxH1OGaizDSFbvajURexGaqk2Wt+XzCnllps3LyL3hDHMefYnxNn5e5SkeKjJcaaUh2HnTC7u1/S137aT1wn7yJxmVm8tGpvuOb5NYH1qG66tB/a/sRgivgEcSvrhlWdXXO0+WSlyzqXqPuy2ffZZbtTZ6qxdBC/svaCqj8/oXZ0RtQHollZh9TYFFEj1+ml3bN4DaNE8aPJGQkzJbFQkYYp+62YqaOpyB63mNNl5oj1u6cP/7ux8E2803nq/zN2zyyL9RXao2UeL6zYk2tyKw2bIuWI0SntkPgo2OgjdLrVvxQpS1qYvmBOszYOhfcpm066IWGvjop8y9UTEzVjtLnE5TGnOo1H8jh6+ly4PuNYD4y9IpO3u+wlfid8xEloX1URWzZJX+yHEy0ymw91R+dqO3YbLuvZWmwoU9+IPWHmrHlhpQENtqYcHR31gZhXygcjRvxG227iCJOmaI2lAzbstUGtmT1WMYd4E9xQC6dzjzm9tlj12IVYulnvYm1Q9yf6Pqu9pG0CLxo/i0a+xejkIFA5b83assyiNS+vbn3vC+aUpXRApSzbeSTcM3PLZdNjOgGrltxU45EKZSGY/UY6XX0P82T/TEz0IWmMFz/2w41mR6zrH3V/1P7LOOLTEeOPtmNP0YcfalloKLM2Ntp0paXPQAfmzyAizdH5CPONhdGGirXB3ljYpt4xA46ZvdL/rNxndfh5A9+YkkOZMsT+lc8+uSLsPDws7pUwo7UtpAy9VcL2BXNCNCIbv6ThiJ/VgCg8IzvksRJefDmgrwqoOg6dF6NrSRefEbCMgrPo0+mMh3v5mTRWo40P+2+wMIGoDMsPveqYJSJKhDFZBYNepbkuXVjm+MjDLfNiaLwyCB1tF1Nz1+1R3+e1zVh7lvicQ8V6VVUXS9uaK0P7E6sjrIduGqwu/q5KY914fcGcrGqqNAD8vAbEjAV5rI7DfZNGT21DwqwNawqsh01V+27qVuZYj29xQlQ7a5TXwfa9dioxN0On1OS6y2jUBT8r13hx+r8uqg1ZF5t1+46Gf3+kmL3NvL4Frdf3ppxTVnc2E7OyYZkT4nrWVRGhjsV20xfMKU3poKioxnaKRZhamZ/Aps/mR0bp7Kk5fnpYw6dMmv0YVoy/omaNFhmMCZV4d+MTgdaevJb1d9ZlEX+PtsvbXqIHsXnMCXonrRlsK87ouFmbx4uUcfqG/ZcxPga8rFX2i+sL5hQTndEQio62Hpy9LfycOg6gqX0k0kg0c3r/PfNSLRpI+PHqM8iAQXGWD1pk7sY3AsxkUTphzRa/EzNb1g85Jl42wGLJPe1okTzmRO3ZvonlAvYWPrdsTy0zTLG1bG2rsh9aTl8wJypCMwAZoRRdOLaH8DWhQq4bh6Ytz6KBjuf3jsB4R4AN5XTEaTYORwMfRLxYaMAa/qMLd1Zaz9Z06f+f5QI0+ZqYBep06fN47ifX18ypaGUBwsQ1+5IjAzj7Bnt4TTrdiIrS1GT+npYj4AiUQ4A+AbEiTJFtHjGlqaL/MpudP3DvvGD3WZaj6PLQul9x5nQ5Pj3zxlZU2crCSjMMCsaUpf5apcCatqINuko+HscRcASaRwAGxZYP+pR33TYrYDmGJQO04Yo4NC1nbDyQzGyWbB/eZ1kkblYYzud6503Dhmr7rW/xmVNW7Tf0TZhTa29DyxxNQ0l7Mo6AIzDKCMBcbrl08jFbDthzNjB0IjnfqmjWaAWTTpPrZjsPnwzsbYJplh2MF6W7m+H6hjlxlDYmTqSieqmy2AWPkgXHUMgO7m5WuuftCDgCxRGAoTBLuvq51YnCTic2XRelTga+vdTfFaU9L1zfMCemy1jv7UXmxOFonPnEQiujJ3eOgCMwthBAgeHgsTOlZkudKKG2ouFivU4gXjEPNGt+9ca4BfKKSXo0R8ARcAR6FgGs08OUsFTfbcPNTYPUNzMngGFjK+b633Pn7PDeu+YkO/+bBszTcwQcAUegVxBA5IhqOkyq24abm8akr5gT4KB1h0mg6ev3B85ScucIOAKOgCMw9hDoO+Y09qrAKXYEHAFHwBGwCDhzsoj4syPgCDgCjkDXEXDm1PUqcAIcAUfAEXAELALOnCwi/uwIOAKOgCPQdQScOXW9CpwAR8ARcAQcAYuAMyeLiD87Ao6AI+AIdB0BZ05drwInwBFwBBwBR8Ai4MzJIuLPjoAj4Ag4Al1HwJlT16vACXAEHAFHwBGwCDhzsoj4syPgCDgCjkDXEXDm1PUqcAIcAUfAEXAELALOnCwi/uwIOAKOgCPQdQScOXW9CpwAR8ARcAQcAYuAMyeLiD87Ao6AI+AIdB0BZ05drwInwBFwBBwBR8Ai4MzJIuLPjoAj4Ag4Al1HoM2cuPHLMfA24G3A24C3gV5pA/8PlOoNuHlGI/kAAAAASUVORK5CYII=;fontFamily=Times New Roman;" vertex="1" parent="1">
          <mxGeometry x="-331.90999999999997" y="813" width="112.3" height="30" as="geometry" />
        </mxCell>
        <mxCell id="oOy7QrCfU1HmPFGgPFGF-3" value="" style="endArrow=classic;html=1;rounded=0;exitX=0.5;exitY=0;exitDx=0;exitDy=0;" edge="1" parent="1">
          <mxGeometry width="50" height="50" relative="1" as="geometry">
            <mxPoint x="-275.76" y="818" as="sourcePoint" />
            <mxPoint x="-276" y="800" as="targetPoint" />
          </mxGeometry>
        </mxCell>
        <mxCell id="oOy7QrCfU1HmPFGgPFGF-4" value="Linear" style="rounded=0;whiteSpace=wrap;html=1;fillColor=#d5e8d4;strokeColor=#82b366;" vertex="1" parent="1">
          <mxGeometry x="-336" y="575" width="120" height="33" as="geometry" />
        </mxCell>
        <mxCell id="oOy7QrCfU1HmPFGgPFGF-5" value="" style="endArrow=classic;html=1;rounded=0;entryX=0.5;entryY=1;entryDx=0;entryDy=0;" edge="1" parent="1" source="oOy7QrCfU1HmPFGgPFGF-1" target="oOy7QrCfU1HmPFGgPFGF-4">
          <mxGeometry width="50" height="50" relative="1" as="geometry">
            <mxPoint x="-300" y="746" as="sourcePoint" />
            <mxPoint x="-250" y="696" as="targetPoint" />
          </mxGeometry>
        </mxCell>
        <mxCell id="oOy7QrCfU1HmPFGgPFGF-6" value="Loss&lt;br&gt;(CTC)" style="rounded=0;whiteSpace=wrap;html=1;fillColor=#d5e8d4;strokeColor=#82b366;" vertex="1" parent="1">
          <mxGeometry x="-336" y="508" width="120" height="33" as="geometry" />
        </mxCell>
        <mxCell id="oOy7QrCfU1HmPFGgPFGF-7" value="" style="endArrow=classic;html=1;rounded=0;entryX=0.5;entryY=1;entryDx=0;entryDy=0;exitX=0.5;exitY=0;exitDx=0;exitDy=0;" edge="1" parent="1" source="oOy7QrCfU1HmPFGgPFGF-4" target="oOy7QrCfU1HmPFGgPFGF-6">
          <mxGeometry width="50" height="50" relative="1" as="geometry">
            <mxPoint x="-300" y="616" as="sourcePoint" />
            <mxPoint x="-250" y="566" as="targetPoint" />
          </mxGeometry>
        </mxCell>
        <mxCell id="oOy7QrCfU1HmPFGgPFGF-8" value="Audio Samples&lt;br&gt;(sample rate = 16000)" style="text;html=1;strokeColor=none;fillColor=none;align=center;verticalAlign=middle;whiteSpace=wrap;rounded=0;" vertex="1" parent="1">
          <mxGeometry x="-192" y="816" width="142" height="30" as="geometry" />
        </mxCell>
        <mxCell id="oOy7QrCfU1HmPFGgPFGF-9" value="[T/4, hidden_dim]&lt;br&gt;[T/4, &amp;nbsp;512]" style="text;html=1;strokeColor=none;fillColor=none;align=center;verticalAlign=middle;whiteSpace=wrap;rounded=0;" vertex="1" parent="1">
          <mxGeometry x="-192" y="608" width="119" height="30" as="geometry" />
        </mxCell>
        <mxCell id="oOy7QrCfU1HmPFGgPFGF-10" value="[T/4, &amp;nbsp;Vocab_size]&lt;br&gt;[T/4, 500]" style="text;html=1;strokeColor=none;fillColor=none;align=center;verticalAlign=middle;whiteSpace=wrap;rounded=0;" vertex="1" parent="1">
          <mxGeometry x="-192" y="545" width="119" height="30" as="geometry" />
        </mxCell>
        <mxCell id="oOy7QrCfU1HmPFGgPFGF-11" value="Conv &amp;nbsp;subsampling" style="rounded=0;whiteSpace=wrap;html=1;fillColor=#d5e8d4;strokeColor=#82b366;" vertex="1" parent="1">
          <mxGeometry x="-336" y="716" width="120" height="33" as="geometry" />
        </mxCell>
        <mxCell id="oOy7QrCfU1HmPFGgPFGF-12" value="feature extraction" style="rounded=0;whiteSpace=wrap;html=1;fillColor=#d5e8d4;strokeColor=#82b366;" vertex="1" parent="1">
          <mxGeometry x="-336" y="765" width="120" height="33" as="geometry" />
        </mxCell>
        <mxCell id="oOy7QrCfU1HmPFGgPFGF-13" value="" style="endArrow=classic;html=1;rounded=0;exitX=0.5;exitY=0;exitDx=0;exitDy=0;entryX=0.5;entryY=1;entryDx=0;entryDy=0;" edge="1" parent="1" source="oOy7QrCfU1HmPFGgPFGF-12" target="oOy7QrCfU1HmPFGgPFGF-11">
          <mxGeometry width="50" height="50" relative="1" as="geometry">
            <mxPoint x="-265.76" y="823" as="sourcePoint" />
            <mxPoint x="-266" y="805" as="targetPoint" />
          </mxGeometry>
        </mxCell>
        <mxCell id="oOy7QrCfU1HmPFGgPFGF-14" value="" style="endArrow=classic;html=1;rounded=0;exitX=0.5;exitY=0;exitDx=0;exitDy=0;entryX=0.5;entryY=1;entryDx=0;entryDy=0;" edge="1" parent="1" source="oOy7QrCfU1HmPFGgPFGF-11" target="oOy7QrCfU1HmPFGgPFGF-1">
          <mxGeometry width="50" height="50" relative="1" as="geometry">
            <mxPoint x="-264.76" y="773" as="sourcePoint" />
            <mxPoint x="-264.76" y="757" as="targetPoint" />
          </mxGeometry>
        </mxCell>
        <mxCell id="oOy7QrCfU1HmPFGgPFGF-15" value="[T, hidden_dim]&lt;br&gt;(T * 80)" style="text;html=1;strokeColor=none;fillColor=none;align=center;verticalAlign=middle;whiteSpace=wrap;rounded=0;" vertex="1" parent="1">
          <mxGeometry x="-189" y="744" width="119" height="30" as="geometry" />
        </mxCell>
        <mxCell id="oOy7QrCfU1HmPFGgPFGF-16" value="[T/4, hidden_dim]&lt;br&gt;[T/4, &amp;nbsp;512]" style="text;html=1;strokeColor=none;fillColor=none;align=center;verticalAlign=middle;whiteSpace=wrap;rounded=0;" vertex="1" parent="1">
          <mxGeometry x="-192" y="686" width="119" height="30" as="geometry" />
        </mxCell>
        <mxCell id="oOy7QrCfU1HmPFGgPFGF-17" value="Encoder&lt;br&gt;(Conformer)" style="rounded=0;whiteSpace=wrap;html=1;fillColor=#d5e8d4;strokeColor=#82b366;" vertex="1" parent="1">
          <mxGeometry x="-26.610000000000014" y="633" width="120" height="60" as="geometry" />
        </mxCell>
        <mxCell id="oOy7QrCfU1HmPFGgPFGF-18" value="" style="shape=image;verticalLabelPosition=bottom;labelBackgroundColor=#ffffff;verticalAlign=top;aspect=fixed;imageAspect=0;image=data:image/png,iVBORw0KGgoAAAANSUhEUgAAAacAAABxCAYAAABx/2weAAAgAElEQVR4Ae2dh5dlR3GH+U9sY+OAI8Y2xpYjDtgYG7BxxAEbG5uMbYyEAggJJBRAAUkICSQEyglJq93VZm3OOYfZvLM7G6TNWe3z3bf1pqa2b77z3ps31efc0zd0qP51367u6urqNwV3joAj4Ag4Ao5AjyHwph6jx8lxBBwBR8ARGOcIvPHGG8GZ0zhvBF58R8ARcAR6DQFnTr1WI06PI+AIOAKOQHDm5I3AEXAEHAFHoOcQcObUc1XiBDkCjoAj4Ag4c/I24Ag4Ao6AI9BzCDhz6rkqcYIcAUfAEXAEnDl5G3AEHAFHwBHoOQScOfVclThBjoAj4Ag4As6cvA04Ao6AI+AI9BwCzpx6rkqcIEfAEXAEHAFnTt4GHAFHwBFwBHoOAWdOPVclTpAj4Ag4Ao6AMydvA46AI+AIOAI9h4Azp56rEifIEXAEHAFHwJmTtwFHwBFwBByBnkPAmVPPVYkT5Ag4Ao6AI+DMyduAI+AIOAKOQM8h4Myp56rECXIEHAFHwBFw5uRtwBFwBBwBR6DnEHDm1HNV4gQ5Ao6AI+AIOHPyNuAIOAKOgCPQcwg4c+q5KnGCHAFHwBFwBJw5eRtwBBwBR8AR6DkEnDn1XJU4QY6AI+AIOALOnLwNOAKOgCPgCPQcAn3DnA4cOx1eWLk3fGPqprBg26GeA9oJcgQcAUfAESiOQN8wJxjT7902M/zI5yeE26dsDBffeKM4Ch7SEXAEHAFHoKcQ6BvmxIwJxsT1d99eEBYN+Oypp1qaE+MIOAKOQAkE+pI5/fhVL4e7p28uAYMHdQQcAUfAEeglBPqSOTF7+vijy8KWA8d7CWunxRFwBBwBR6AgAn3LnN5+w5Tw/QU7CsLgwRwBR8ARaBYBOtehY6fDzsMnw6mzF5pN/FJq5HH4xNnk4r6fXN8yJ2ZPrEO5cwQcAUegGwjsPnIy3Ddza/jskyvCy6v3hVNnz4emGcj8rYfCtT9ck1zc95Nz5tRPtellcQQcgcYRQPP39LkL4ez5i6XSfmbp7nDFzdMTJa0/v3tO+NqkDWHRwOFSaWQFpvP++pRhRbB+G4w7c8qqff/mCDgC4x6BeVsPhpsmrg8Pz9selu04Eo6cPFsIE61BjCTnzVe+HO6a1pyi1spdr4V/+e6itpayM6dC1dL5QLYh9JJYb8ehE+GJxbvCjA0HRk323HnEPUdHYHwgIH3Lr944NfzjgwvDxDX7ChVc4tEXyfWR7y0Ja/e+Xih+XqD7X90afubaSe20mUU1LTbMo2E0v/fFzOnCxTfCba9sbFeSNIReGUnAmH79q9MCU3sYlLt0BF4/eS4wIpy+fn/YeuB4X/1s6aX2L72MgGUyRZmAjUe/9HNfnBwenLOtdnGtSI+0b528MZy/UE70WJuQUUygL5jTmXMXws0TN9RiTucuXAwsYO597VSA2TXpdCPtFYYZKx/lbrrssXzS3iEueXzRzkRU8d675iSilJ2HTqQF9/fjAIGhY2fCxsGj4dDxMx0tLSbQ+Fenrd8fbpywbkTfcvOkDeHM+XztO/3fy4AZv4k+ADyueX7NCLpY0yq7LtZRUEtm1hfMicVKZMK6AZRtBLM3D4X/eWpl+NzTq9qN8vVT50rCGQ+uG+m/PrQ4rN7dmtYDPlcvOBjzk4t3hZdW7k3UUrtB05wtQ+Ev75vXrsd33jQtPLlkVzdI8Tx7AAEGjM8t3x3+8/tLw4sr93bMJBmzD2Yh9CF/dtec5NJ9y38/uSJsGzoeoC/L6f9ex//MEysCov46Du2/P/z6rPa/QvrOnOogOkpx2UPw1ZcvZ07Xv7QuHD2dz2AYbVCx0oDefNXLSYOcvHawEYp1I33rtZOSEc9TS3aFO6ZuSn46Rofddk8v3R1+8+bp4U/vnB2mrNvfFXLYl8b+NKkHfMS13ZzNdQUIzzRBgAETA0bawVdeXh9Onj3fEWS2HzwRPv348hHtULfJ3711Zrjq2dW5Bqb1f6/jI+J/bNHOcLGGhCaWtjOnjjSPcpmkMacPfmt+QNMmz726aSi8/57hEbs0JBpAE842JGYEv3HT9PCjn58Qfv+2mQmDaiKfqmkcPXUuXP9iS3TxE194OXxzxpaqSdWKd+/MLeEnr544olP43NMrE1FrrYQ9ckcRoNPdtP9YWLjtUC1x3PytB8Nff2t+0h7Yy3P4RGcGcU8v3ZUM1KQfiPl5/wkDqtg6uKRVl9naPoV0b3hpXTheYDDe0cZQI7O+EOu9dvJs+OILa0d0alTWr31lajJCycMnVtHEHy3mJA1U/KbyyStn2vdX1g6GP7ljdhu/ogu+aelVfR+rB0QXiDD6zfWSSLdpbFknpPP92/sXhAmr9lZOHqUY1h75T77w3OrQKQlDrB3Kv6r9rP927paD4a+UiFrH4/6Tjy1PRINVwYnR+NknVoR+WqPtC+a0+cCx8LFHl7U7V2kIiNC+/Wq2ZsyRE2fDdT8cubAo8bMaX5lGFWtIkgd+a1RYbO9EmXyLhrX0XfnsqrD/6Omi0RsLZ+kAm7wRat3MB18/lYzw664BlKFj4+Cx8NDcgUT5o5P5lqGxTlg987h9yqbKa0VotqLhSjv4/DOrwuDrnWmTsXao/1e5J1yay0vjd2+dEX64Yk9a9Nz3sfStmvrg0dPh+RV7kkH2Cyv2hgNd+KdzC5IRoC+Y09Idh8OHHlx4GXOiEWU1IHCZuHpf+KOvv1opbgau7U8ArHdxS8PWfrdnB7ahcy4W52N12lk6BKO8OqxKJ6IXdvH/7f3zk0EM4s0yTjS65mw+WFiF9/zFi+HBOQPhl65/Jdle8MTinSOyZP0TMTNlxhwN7WesOV2PH/vBsrB5/7HLioC2G0oFMOe0NUWUIBB70w7++buLwopdRy5Lp+kXRf7XIu1SYyDhtc+69l01Tk6IpW+ZE4zpd25t4fd7t85MxIyxumgaw6bS6wvmtGT74fAPD1RjTrFKlkZ0y+QNuRo5eRWhNX8k3ZgPHZ1yrAmgaSSdQgyDTtIj5Y7RAVajRQsL7IifyAOxJuLNog4mc+ulvXV/ee+8AIMq4qy4x5attf45N6Hpyy+tDcfUGgI/61hgVroe337D1KgB5lmbhhLRFpprYBJz3569Lbz1utYm01+7cWp4bOFIRh6LU/cd/8btkT2TZf9ZjUEsbt12HUv/Iw8vCWv3DG/wtWF++ctTwn2ztoYTZzqjWFK3LvqCOemFU9sQqKCFA4fCHdM2JyNSuw/AVqCO34S4zWoC6vT1fROMsGhjmLflYCA/OsKz5y+0O1lND7h02qXVxWjRcvD4mXD186vbs+Yy+bAfDmUNwaxoXFtGK/bS35nRoVSAYzDBdgdm4czYetnpMoBPDBsdJvad8ukwKA/dMbU50z9p+KF0wX8v9Zrl/8t3Fyd1wqAGWvVMV9OelkZaudNo0+9j6f/bw4vDmgzmBB2oxrN3ayy4vmBOjy/eGd7x1WnRBsXImD1QP3rlhEQjjw5ZHIXPErn91/eXhk2Dl4skJH4Rvyhzuv7FtaGsWKlI/rEw0rBZsMUUC3nbH6jOjxPLs8g7oatTtKzfdzT8xyNL2mUvU+ZJawbDH39jWBxcNK4t400TNyRGRcEHpvM397e008CgZU1gIIEOxvSBe1sapUXzysOctkm6dFbHTzc3mrZljNGrw8S+Q7sOAx6dUNThf/gjVa+2Lernn75mUlInokz0mSeWt/cvWdp1PLlPK7fUGwZnkW7EZsux9P/14cVh9SXmlNW35eUr+Xfb7wvmFKsoaQD//r0lgUuedcUwvbW7vyUcfhPHvRdlTk0u+FKpsQZNY6MTQuVUysk+EtlLIu/wO9ER2MafVo+6zojDD4vsfPnOIwFNzaquxQwWtLGw+WSla9Xei8a1ZcRWG8ZEcfYb9SDp6m/XvbC2sPHRrDIwUIPhMZqe2uDeNk2rLoPQYjtOKaN8F9+mk7Z+JeGb8G2e+p/Iu2f/kqwhFkknrdyUA4wQd6KOPnPjgcssUsTSZ/+VKFlk9TtZ+TaBYVNpgMGbmkqsW+nEKkoaEhtLueRZVwwaaWimyTfrsxeJzbJ1XMt6xfAGX5uHPH/4ocVh1e7X6mSVxGWhedbGA6niH0QPsneEvP/+gQXJJXSIf8OEdeF4h2XTafWo64xCDhw8Eb4yYX34p+8sCsxgqjpEZqg7S5nLMGRLK5vAixwoZ+P97HWTwwOzWxql9ht0Sdn1N2a8aes0ZbDQaTa52Vmnq8sgtDEjuH3KsC1MKaN8F9+mM9oHiFqmKe2ijC9lsbTH0pCwUl7tM/iCGRMvVt9p6Uua/Lv8w2Xz1TR0+77vmROqyFxSSVJ5AN9aN0hnTsSR8ADFleVI79llu5OOQ5QNUH9lViT5p/nvv2dusgaUlX6Rbyw0v++e1oJ6rLNFtR4Ve6Hj3Xe8GrjkWfz/e2ZV2Pf6qSJZNhImq2OQOpCMwPi3vjYjofmWyRvbSiuxOmKBG4YdMzVjTcD871Mrw54jJyWbTB+aBCt8LAYsGjiUWJxOW3BOK6OUz6ZJurFvWtyXSWTOR50fa2+swTXhdLq6DJK23ZcYa6eEtemQVpNMVOgR364jkl/ZK1ZfaWlIWMlf+y1rKVOT/GOafTFsyEfSxPI52nuxvCWMzq8X7/lf+nrmZCtHVwydL52wDaOfMfJIh88PNGfzUKIyzImWjN73HDnVViEGSOk0mZnIqZTsacE2mE4zdg+DaMJckm60sR9Zf4cO1k302onQVlZ7rW7jTrOPCD26zsgHFVx+WL596rHlYWDoeII3dcQlCgMwCUwxUYcwMXkvtGIdmo5eygzDow6LOIvjn9w5O2A3kQ4BUTEiMwwS0y7EoXn3ZSVSlXylfDZNXXb7TeJI2nk+dGha7IzeqiHnpZf13dL6pRfXBm2ncsWu1xLVcCk/jD22B8emQ/gmmagtwyvrBgP1KHRV8aE5S6Sm08yqQ1t2G9Z+l3Ql3CPzdwS08+S99iWMLX8Tz8yKGeAx80sbpBXNh/bqzCljhMQsRGYiqAzT6bCA/KnHlwdG2mwURDzIKFzEZShfoB2I2zB4NHy0AHNi3wuHmdV1utHGTOjr7zRYGnAnGzEMAhq4NLPAIjlrKfonknvC4tgX8+jCnSOUBhC93jp5Q2Ax2oannlhPkffW9pidRRJO8orVg+7gCSfpxnxmwljKR5NUHJpUaFTZ8JJnLM20b/Je0s7yMTR8/6vbAuf/rL4kOrazFzaFYmQV0SSMq46z5bADr5dW7Q3vun3YaCn76n6wcMcItXnyt+mAW1MShlj5Yu3B1lXeM4f/sUaUtrFfx8+qQ1t2G9Z+l3TZ3sA2h7TvhLNpxbCo+g57iHdO25yIJOtqBY5r5lRU5CYVj//B++Ynl7xDaYKRod3IKw0A237Y+JPwWb7EqdowiKcbpbW1RWUzs8iiQX9rgh5dFitquHHC+vboasuBY+HjESsf0AMd0P7owh2BA980jdyzEM0l74VujQXfbMdmZ06Ekbh00mhPIg7knkGInpnZtCVv61/3wpq28gLGPjGpZcOgTs5om9md/Sb02PyYneWNTBEtc0mnqy2mYAoIk0CS349dOSFZf2PtDA1CPXDQdVjk3tJKHlIO4n937kD4hS+90s6b7y2DwyPXD2PpUAaYLO2haRfLT/Ap6qPBx0BJa4GmxSU/ZtN04lPWDbZnlzGrNRo/yp1GK1b9YY6xtiR0NKVQwyAG+mm74p5ZtjtccUnkLoxSvpX1nTnliPWkQtN8DJVaY6WEpfPgzJXvzd8+ouNMS4f3tgGWrUzC60aLaf9dh4fXUKymXhYtTdGjy4BlBC1GEy0xRAHMSGEeMZrYCoDNsKsylFd0PDCgU0asqd/bMmHgVq9HyndmcYj3MIaLqrU2oyNhNM42D/2MWrKcnJoWh9kUHVRMOYc4tl5JXzTXKCedAx0FG4EJP2fLweSi/FxaPV1MU7WO+L58Fie02w6MPDbsOxqeX74nPLd8TyK2od5iLlZOKQfhkSogXZC8xNdhYmWWcJ94dFlyEGUs7zrvYnRLnmV82rWesafFJT/EzoSFOYtYP2a1pig25HXls6uTKy1f3Sar4sU6LvQipmaflygDaQz5b+vMwsc1c2piATStAdDgOAwMUV+MecXi2QZYpeHoxiEdmKRjNfViNOh3dUc+kq/4mjbJh1nlrI1Dia25X7nh8lkF4f7im3MDRi0xwSLxsnxmOGg+sgZkw2mMY/TwTu91YZ+cWJGQtGLv5FvMlzxj+REehv1/T6+Mrk2mxWV0ygzihRV7kuNemO0gdiY9Rs/6XCxNk6gbo4WKSFR/0/fSgSXan5uGkjw++sjS8Du3zAi/fcuMhDly1hZiHOti5ZRyEDb2nbx1GPJlrVDTJPfMnhHvwhxReGlqFpVGl+Rb1H/HV6YFrrzwMhOXcFL+GB3yTbCOhZF0MIdmz3qSb+Lb9CTdor5WvML+ITNu0tQDIfq/OodEjjvmRIOQxkwHhgq3VFi3/boNRpvUoSx6Dw2N7jtzBsLPKwWAvPLaheyiDTcWLsssDAxc1uvyaCryndEcZ2XpWZrE0xhzL+/F551+z6zGrhOxrsAlcfJ8yVOna+Mwcuay77Pism6j125s3LRn0ozNGm14/hVERLLmar+zRQMGaY+yiJWTd4iA2E+l1fd1mlJW2o/u/HQYuUcD9rllu5N6RkuyCRejW/Ir47/l6omBKy+Obffkb/9hSUNjQ1nr0qr7wSrYFcmftUbaGYa5q7hxx5xoEFQMMnVG7O/7ZlyUJI2ik75tgFkVuue1UwH5LifXDh07nTBcqwXF6I1D02T9QGu5FSkXm3NjI+MsutK+sT6StuHZqvsXoS0rjN14rcPqnzL2g4koTOL8yo1TA5c842cpkehwci/1GstPwvzUNRMDlzyLL3WQFVfCFvVJq0h6RZhwzGhxLG1G1Awa3nPn7OQcsxitxBMXS0PHYQbHxVoZ2n5Yl6/j6AhpGzqPTt+DEdKK2KxXY9OybJKvAZxF//88uTLsViL/otihdYk4T8+QsvL55RumJGuMsa0ceXmOeeZUxhaWBhFNNkQbv31p8U5/69Z90TNrkP8/vmhnsvD4rttmJQvbbMpEI4tNnZZ+OgVGrXk/vI2HaIcFfTa6YlyXNQcM2VZxTO+Z5ts8RuP5nV+dFrhiacvgBCxiP9hf3Tc/cMXiVn0n1j/K4k9+zE4wRIqB1Kr523jQUYQWFve5bHz7TFraFUnbpsEzYliUN1Ai0pt0Y2H1O5gUFjv2vVadQTGAi7UHnU837wVjxJ3fmrX1MoWSsrTRrjj9uowDI0ydxfZFZuWPFRLWbsu6Mc2c4OJoQOXJV2PAIZ9H0+4tX7h8tBoL34l3RU/Fje3P4rDF2IGL0M36FwvuVTsN9kFh9Z1ZGEyqits6dDx84rFhde9O4NkredB5okhQFX+rjVi3XFgOSLMeUCXtLOO1ZdJDE4+LdciiGq6SPoPMR+Zvr2zVBDEwxmUlvV7zRUTPVoDYWmoVeoXhFfmfETfGFIyK5lsmL6EnYU6oLrI7/MLFi+0FRj4kC46XNu/xXOYibpnwRcKybgGNaCgRnunlu9UJrkWB6uVwjN44hwWZOx0a2jzI6VGjRn7LjAn/D9Q+EcrDaCZtRIPoAzVtDNnWKftPXT0xWQhndEtjK3IxOuPMpCufWZUspNfJfyzHpV57ZWT+nrtmB66m8ISRIBJjnxT7/f75O8XX45qigXQoEx0o7ZO9NrRPbM2hCfqDBTvC3dO3XNZmUaxANJ5mTaFJ+uqkxSAaBsWGfvZE1klL4lJPaKVOXb8/sCSAjUcGn2ygZdsHRmTZI4dm51NLd0XFjZJWnl+ZOaG6yM5rKhYRAg2Ni6k1lzyX8RlNlQlfJCy0yZoA4ZtcRM8Dt5PfOSCMRWhG3CySI6dHQ4m1maKaQJbet10/JXDZ92WfZXRbNB7igytuntHTo9KiZfFw2TMLtPiQYjCI6RZWrNvRRhmQQQPaiWxRQBP0xy9ZFdG08V+967aZUeUZHa4f76mn3/ra9ISpc5gjzA8JCVq+MGusnDNLY+2Ruq2DQWXm9I2pm2tlXIdoj5v9wzs+jo+3AW8DY70NOHPqYZnxWG9cTr93kN4GvA1UbQOVmRNaGEQea1evyPCrVlhaPMqVVRexciO+4MpKMxYvLXzsPcZWOWIji7a0b4gMekn5JFa+0XwH9nXxH0366qZN2aj7bovbhY60dhh7322ai2LP2h5LG00tZ5TBipOz5bDLovTqcOBe1qFXMGYNv2KPKrZxUYOSdc/CYlOLi1n5lPkWO7vFViqad9Y8CtbVsyysy09ZhhYJS17sUWKf1OKK2npslEQ7UtIcb34d/JvGis6tqQ4O2nSbpUOhs2+a5rz03nrdpGR9RE4DsP9M1nO3aM4rk/7OWhrq8iiFNYVvGYbBPiUYlKapzH2ZvKSuxjRzYu8Oe3jKgCRhMYnzpRfWJqZx5F0v+Ch8oI2Y5djQ+tDc7UmngPWCa3+4JtlHkLY3BFVw9irRQKqUsYiR0Sx6+cbeLKyCV8m/bBxU8rnKxhvN8L3EnOjcmurgwMy22artTPCPbXyWbzH/zVe+nJx2jZo1HVoVV5fmGF1NvkNhAY06XBO0vvOmaQHzU2WcNutVpmxFt8hYWsY0c6IwZe3FCagYJeQ4A05TlXe94NPwijgMurLxlmMYDp84mzC0tEYrRjzTvqeVG8vRWFcWCxNF6EoLA8OlE4vlhSZVml29WPi8dxi85coL16nvMrMoi/9o0QcdTdJCWtrVSZtzxO6duTV3TxwzPzTJfvFLryRaZpxqXMehTt2ken2VusvShNUY18FX6PrkY8uTI2jKYIZBZLYKsJ8ybduKpK/9osYFLC1jnjlRgLKjQDlZsmWZeXSYE3bdUKt9R4qlAl15co/6OPubqro0e2ngA05lGzVqpVU33doyZDEnDEdyCQ51fc7SSTtPB/EIo1CwiK0BVVXVz6JZZhZl8c9Ks8436ChCC9ZGYhZHbN6kpV1a2rLGEcOdNBEfY/Gco0rS0pC8adPMlB6aOxAWDRxO9mRqGsreZx1rLnk27XO4pZzoTNpiISOGj8Y4z2hvETpjZ70VwYx+hLPAsLuZlw9936efWFF5cDvmmROA5jVkC+Lff3tBWDxwOGncTe22tnmwT4BRBpVjv6U9Y4UZ8yRVHSZC7KIli6iYg8E9uXhXqlmfGE3XPr8mHD5+tio5I+JlGX5FWYIrRgPvsEZe1CI54RFzcsXSIx82G+Ji7ebTj68IXLG48o4N0HYTtHyL+dKxxPKLhbfvmE1w2fdVn6GjCC0ffmhRcoxH7AwqnbeUTyo8ljYzHVkPin0nPX2+F5toZa+SzkvubZ6Sdx0/jS7Js6jP3imuvPCfe3pl4JJwWYNIXV6kJnUlAzq9KphZrDB1hpkulkukPPR92w+dqJJ8EmfcMSdGJfwkFDztZFIBt44vlW8rMStNiVO1Nu3oj2MVnl66qz2qLFtepu+Mkppw4B2b4bLh+IHZ25JN4GnYYPyUK+27fc86ZNpaJIewiRHKWN3wTr9nEzGXzoMzkWJnL+kw+l7qNUt0lLbOQnvlvBxsmuk0mf2zMVJoo/OHIUMXa3ux0TfxOSaDkbc9W0unLffM+LAWcM+MLYF1S3lvfSmftBONn4SVjpcwse+E0+lg2SFL+1SHlXzr+ml0SRmK+phGk+NLsuKQn54FSZlidMg3KWMsTFZe9ptNT9It6tv8WTrg8FaObpG86uYx7piTBsyezCqgNuFLPrYSs9KWOEUbiA2HySgsc0gerBdhwVhc1lHoEkf7TTInaIhh8flnVyWNmkMZ046LRyEjzaK5plfuEVmw2KtFJvJNRGxp9ECjpvNjjy4LXBIfn/VKLv0u617q1Q4edBzWO2JrHhJX00Q8Zm4YAKVzQxGG9VPWHvcfPZ0on9jwkhfnYnFwIyalrjBMV8KITxq0KcybYS37rRGjwljQ5nBD7WJ5805c7Dt56jBZZ62hYfvwvO2SXGN+Gl2CR1E/yyq+ToP8mAUxOGNdBjNLuBgdGpu0MJI2lmW45Nn6rCVzGnEdp2nEJiG2CS1dluay+Y1r5tQyPb8ktRJtpfLMiJUr9k3eYajzicUtTRhdifI9za9bmbZx2JNws9Z9YjTVPcnSNkaLhf5JmB2kia4Q93x/wY7CFuTJJ61z0xhbesCAd/o9BlLvnr65bQUacQ2MFAYYwyz2Li9P4nzg3rnJZeNLXE0TYTj4Dyvx/MBix1LjjRILB8Axg5RRPMxIZtKs7WSZpGENkBOAxWFnDXM2mr4rvjY9GQRgFFQ7SytxpByEi323YdJm2oTDvtzGweFBl867zn0aXbrMRe6LKuSQH+VEOjF07Ez7uPOYSFPjl4Uh9FlxoaXZDlqrYKbP29JLBw/O2dY2BWVpLpvPuGZOGwaPho+WNIaK+AQRBT89C+v2rB8aQuvnaR2wVabB161M22j/96mVYY85qbQMPVoUU7ZhxcK/uHLvCBVv1vswLIlDfIRNL/sj8YyoYODg8RHyeR3OGr2ljGmdm8Y4hgXv9DHZzLTW7nk9OaiRE3ARh20bOh7tYBmU0D6w5cb+O8pHO9HajrE8KQtlj5Vf6LXx5Lj1GM7yjqOz2W4xZ/NQoinJbHLPkdaxEi2jycOiOk5rZt1ARtwwNjl6W9LT++t+5tpJAVEO54pZZ2mlfFIOwsa+2zBZ4Zpul0J/Gl26reXdI04F2yIKAxoToQGfGRRtSOdlw6bRilIJ+z/ZrKvj6/sm8GNtfPqGA+HmiRsSJS7Z/sKARpSbLM26jEXuxzVz2jh4LHo0tq5Iey9aLvz07Dtg8Zx9FhKOc4S+N297OH2updiQ1ogkvPho9zHqqOt0fnSM0Kmd/i55p/l1G5fOl3tGh4gvJD/Bkm9Z+6D40Wj8iK5gFqhmSxr4dARYcGcEx0bfouKRGGKp3J8AAAwwSURBVBa8Q4yF8gjGkEV7ktnJybPn2x12LC5nLrGeSf5Yk4fxFsGfGSP5cXaWLhf3Ugc2P9aVwKyI4ycXa/4S3oq0f/H6V8LNE9cnR9CAp2Ao4fHZX4eSDyNzmBcnScecpVWXg/CxmYENQ7hYOu/+xqth8prBWLa138Xys/WR90waRSUUhI05+g4rNrZh02hlpo/4OO17DOcYDUXeUc4z5y6MOOONwQ+D4ibyGdfMadP+Y+G/flDuGAnbSNhfIcdOM2JAFr7z0Ml23XLEBerJeY36z+6anZy51I5Y8UY3ytgISX/PoultX56SiK8qkpEajVkE62JcekZBhDTaBHPpZGFQmna+nzp7PtFKRK1YOm0YlswEJLyklZaffIepcIxMmvYk4SRN8SVuauFTynj9i+sCZ3TF1tUkTZtfrG6z8rXfWuuPw8yQETczI2ZLnJMmGNp4dJyITDk8kvqIOUsrZy1xpLo4zmCLaQBKWSWcTQec2Tj/+smRAy4JX9cve1K01Lv2oRlcqB/9PnZvy6vpt2W3Ye13SV/aRdp3wtm0dL5171E2mrRmXzIIZWZVx41r5pQlSpLKRi4vsnktWxXQUZGet+VgUuFMaa0oZM7mg22Zv6QZ8zFLz76ruk6LzmKNcObGAyPUPWO08E6LJuvSZOMzC+GyLu2HsuXQ4RB/xEb5pM3R3ai3ShkRtTGjEcc61ttvGD5GRK+BSZg0X9NA+uwHYmE7z9l4xOUd6zYoHQit4vMNZ+PJ+7z80r5zorFeN6u6UTKWvqWVASADQXGx/YWxf8umI1hJOk37rBMjmhXsq/jQ3E3mJO0ihp2UR8I0jZ+kx8xt6NjpRNIg76r445o5bTlwLDmETyot5mOvDs0WOjmYT6xTzQJ+6Y4j4UMZe3gkz088tixwWmxdh+iMA/6QBcu+Ep1mS2TQUvdMsy1Ih484i8bRSZf2Q9mf6a5pm9ui1DzxlsjAf/6LkxNxkhaz6TUU6gEtq3V7iy20W1pbjC9f3ETdiPq31L2UD3pYTNcnO8s3nR/nciE6rut0mjLirpsm8XW6KA+xVqdxRwFAn9rMOg178ey/pdMBqxgDa4JeSaPuac3UG2JPi4HUs/UpX5pDE/Onr5mUMErWA7Grp53FRtKWNNO+s3cMsepYcOOaOR04ejpc9ezwGohUsPgykuZnQodf1pHKVOyOQycCaxGSZpqPRQPWOppwiKKQBacxF8RpjNJZ3P/c06va2jV0mhzFznQ8TazTBH1paaT9UPLDSTyO4xa1c/tNwojPTBYG9Z05A5cxHq1xRL2U6aAtrZ96bHkYKDC42H3kZHKSsezhaa01ttR6WdNBtVhvIJby6fw+eN/8ZLYuZazqS5rSzqumY+NJumAK47HiWztLlDJmpUNaqMxbBmbj1HnmfykijpN/mD1jXDwj0kc9H3V+nMZAwls/rdzEZz0bhSvixCy1pKUvaXLyb8wkGEsQdU091cG4TNy+YE6s86RZF3/7DVMDlzQMqTxAOnv+QqYxUqw8sHBcxyG/L6K509KOOl8nq1Jx6SC4lm4/HD70QMs6Axtdtx88MWKBs1SiNQPn/XCSvFg4h0E9Mn+HvC7tY5tQK1fotpGXmKU1pt2WlgZ7kRABIsplc61tY5I2GnH3v7o1SUbe0Y4ZQFBPdR0WRa58dnUi3ltXs51rWti0K8ejMAiinVmny8N9zOkwlDstXCxu1Xc2T+k3Yj6zXMwnsWbIBmvWPcUVSSerPHTMSD4IQzsVbbis9LHNxxH1OGaizDSFbvajURexGaqk2Wt+XzCnllps3LyL3hDHMefYnxNn5e5SkeKjJcaaUh2HnTC7u1/S137aT1wn7yJxmVm8tGpvuOb5NYH1qG66tB/a/sRgivgEcSvrhlWdXXO0+WSlyzqXqPuy2ffZZbtTZ6qxdBC/svaCqj8/oXZ0RtQHollZh9TYFFEj1+ml3bN4DaNE8aPJGQkzJbFQkYYp+62YqaOpyB63mNNl5oj1u6cP/7ux8E2803nq/zN2zyyL9RXao2UeL6zYk2tyKw2bIuWI0SntkPgo2OgjdLrVvxQpS1qYvmBOszYOhfcpm066IWGvjop8y9UTEzVjtLnE5TGnOo1H8jh6+ly4PuNYD4y9IpO3u+wlfid8xEloX1URWzZJX+yHEy0ymw91R+dqO3YbLuvZWmwoU9+IPWHmrHlhpQENtqYcHR31gZhXygcjRvxG227iCJOmaI2lAzbstUGtmT1WMYd4E9xQC6dzjzm9tlj12IVYulnvYm1Q9yf6Pqu9pG0CLxo/i0a+xejkIFA5b83assyiNS+vbn3vC+aUpXRApSzbeSTcM3PLZdNjOgGrltxU45EKZSGY/UY6XX0P82T/TEz0IWmMFz/2w41mR6zrH3V/1P7LOOLTEeOPtmNP0YcfalloKLM2Ntp0paXPQAfmzyAizdH5CPONhdGGirXB3ljYpt4xA46ZvdL/rNxndfh5A9+YkkOZMsT+lc8+uSLsPDws7pUwo7UtpAy9VcL2BXNCNCIbv6ThiJ/VgCg8IzvksRJefDmgrwqoOg6dF6NrSRefEbCMgrPo0+mMh3v5mTRWo40P+2+wMIGoDMsPveqYJSJKhDFZBYNepbkuXVjm+MjDLfNiaLwyCB1tF1Nz1+1R3+e1zVh7lvicQ8V6VVUXS9uaK0P7E6sjrIduGqwu/q5KY914fcGcrGqqNAD8vAbEjAV5rI7DfZNGT21DwqwNawqsh01V+27qVuZYj29xQlQ7a5TXwfa9dioxN0On1OS6y2jUBT8r13hx+r8uqg1ZF5t1+46Gf3+kmL3NvL4Frdf3ppxTVnc2E7OyYZkT4nrWVRGhjsV20xfMKU3poKioxnaKRZhamZ/Aps/mR0bp7Kk5fnpYw6dMmv0YVoy/omaNFhmMCZV4d+MTgdaevJb1d9ZlEX+PtsvbXqIHsXnMCXonrRlsK87ouFmbx4uUcfqG/ZcxPga8rFX2i+sL5hQTndEQio62Hpy9LfycOg6gqX0k0kg0c3r/PfNSLRpI+PHqM8iAQXGWD1pk7sY3AsxkUTphzRa/EzNb1g85Jl42wGLJPe1okTzmRO3ZvonlAvYWPrdsTy0zTLG1bG2rsh9aTl8wJypCMwAZoRRdOLaH8DWhQq4bh6Ytz6KBjuf3jsB4R4AN5XTEaTYORwMfRLxYaMAa/qMLd1Zaz9Z06f+f5QI0+ZqYBep06fN47ifX18ypaGUBwsQ1+5IjAzj7Bnt4TTrdiIrS1GT+npYj4AiUQ4A+AbEiTJFtHjGlqaL/MpudP3DvvGD3WZaj6PLQul9x5nQ5Pj3zxlZU2crCSjMMCsaUpf5apcCatqINuko+HscRcASaRwAGxZYP+pR33TYrYDmGJQO04Yo4NC1nbDyQzGyWbB/eZ1kkblYYzud6503Dhmr7rW/xmVNW7Tf0TZhTa29DyxxNQ0l7Mo6AIzDKCMBcbrl08jFbDthzNjB0IjnfqmjWaAWTTpPrZjsPnwzsbYJplh2MF6W7m+H6hjlxlDYmTqSieqmy2AWPkgXHUMgO7m5WuuftCDgCxRGAoTBLuvq51YnCTic2XRelTga+vdTfFaU9L1zfMCemy1jv7UXmxOFonPnEQiujJ3eOgCMwthBAgeHgsTOlZkudKKG2ouFivU4gXjEPNGt+9ca4BfKKSXo0R8ARcAR6FgGs08OUsFTfbcPNTYPUNzMngGFjK+b633Pn7PDeu+YkO/+bBszTcwQcAUegVxBA5IhqOkyq24abm8akr5gT4KB1h0mg6ev3B85ScucIOAKOgCMw9hDoO+Y09qrAKXYEHAFHwBGwCDhzsoj4syPgCDgCjkDXEXDm1PUqcAIcAUfAEXAELALOnCwi/uwIOAKOgCPQdQScOXW9CpwAR8ARcAQcAYuAMyeLiD87Ao6AI+AIdB0BZ05drwInwBFwBBwBR8Ai4MzJIuLPjoAj4Ag4Al1HwJlT16vACXAEHAFHwBGwCDhzsoj4syPgCDgCjkDXEXDm1PUqcAIcAUfAEXAELALOnCwi/uwIOAKOgCPQdQScOXW9CpwAR8ARcAQcAYuAMyeLiD87Ao6AI+AIdB0BZ05drwInwBFwBBwBR8Ai4MzJIuLPjoAj4Ag4Al1HoM2cuPHLMfA24G3A24C3gV5pA/8PlOoNuHlGI/kAAAAASUVORK5CYII=;fontFamily=Times New Roman;" vertex="1" parent="1">
          <mxGeometry x="-22.519999999999982" y="813" width="112.3" height="30" as="geometry" />
        </mxCell>
        <mxCell id="oOy7QrCfU1HmPFGgPFGF-19" value="" style="endArrow=classic;html=1;rounded=0;exitX=0.5;exitY=0;exitDx=0;exitDy=0;" edge="1" parent="1">
          <mxGeometry width="50" height="50" relative="1" as="geometry">
            <mxPoint x="33.629999999999995" y="818" as="sourcePoint" />
            <mxPoint x="33.389999999999986" y="800" as="targetPoint" />
          </mxGeometry>
        </mxCell>
        <mxCell id="oOy7QrCfU1HmPFGgPFGF-20" value="Linear" style="rounded=0;whiteSpace=wrap;html=1;fillColor=#d5e8d4;strokeColor=#82b366;" vertex="1" parent="1">
          <mxGeometry x="-26.610000000000014" y="575" width="120" height="33" as="geometry" />
        </mxCell>
        <mxCell id="oOy7QrCfU1HmPFGgPFGF-21" value="" style="endArrow=classic;html=1;rounded=0;entryX=0.5;entryY=1;entryDx=0;entryDy=0;" edge="1" parent="1" source="oOy7QrCfU1HmPFGgPFGF-17" target="oOy7QrCfU1HmPFGgPFGF-20">
          <mxGeometry width="50" height="50" relative="1" as="geometry">
            <mxPoint x="9.389999999999986" y="746" as="sourcePoint" />
            <mxPoint x="59.389999999999986" y="696" as="targetPoint" />
          </mxGeometry>
        </mxCell>
        <mxCell id="oOy7QrCfU1HmPFGgPFGF-22" value="decoder&lt;br&gt;(argmax)" style="rounded=0;whiteSpace=wrap;html=1;fillColor=#d5e8d4;strokeColor=#82b366;" vertex="1" parent="1">
          <mxGeometry x="-26.610000000000014" y="508" width="120" height="33" as="geometry" />
        </mxCell>
        <mxCell id="oOy7QrCfU1HmPFGgPFGF-23" value="" style="endArrow=classic;html=1;rounded=0;entryX=0.5;entryY=1;entryDx=0;entryDy=0;exitX=0.5;exitY=0;exitDx=0;exitDy=0;" edge="1" parent="1" source="oOy7QrCfU1HmPFGgPFGF-20" target="oOy7QrCfU1HmPFGgPFGF-22">
          <mxGeometry width="50" height="50" relative="1" as="geometry">
            <mxPoint x="9.389999999999986" y="616" as="sourcePoint" />
            <mxPoint x="59.389999999999986" y="566" as="targetPoint" />
          </mxGeometry>
        </mxCell>
        <mxCell id="oOy7QrCfU1HmPFGgPFGF-27" value="Conv &amp;nbsp;subsampling" style="rounded=0;whiteSpace=wrap;html=1;fillColor=#d5e8d4;strokeColor=#82b366;" vertex="1" parent="1">
          <mxGeometry x="-26.610000000000014" y="716" width="120" height="33" as="geometry" />
        </mxCell>
        <mxCell id="oOy7QrCfU1HmPFGgPFGF-28" value="feature extraction" style="rounded=0;whiteSpace=wrap;html=1;fillColor=#d5e8d4;strokeColor=#82b366;" vertex="1" parent="1">
          <mxGeometry x="-26.610000000000014" y="765" width="120" height="33" as="geometry" />
        </mxCell>
        <mxCell id="oOy7QrCfU1HmPFGgPFGF-29" value="" style="endArrow=classic;html=1;rounded=0;exitX=0.5;exitY=0;exitDx=0;exitDy=0;entryX=0.5;entryY=1;entryDx=0;entryDy=0;" edge="1" parent="1" source="oOy7QrCfU1HmPFGgPFGF-28" target="oOy7QrCfU1HmPFGgPFGF-27">
          <mxGeometry width="50" height="50" relative="1" as="geometry">
            <mxPoint x="43.629999999999995" y="823" as="sourcePoint" />
            <mxPoint x="43.389999999999986" y="805" as="targetPoint" />
          </mxGeometry>
        </mxCell>
        <mxCell id="oOy7QrCfU1HmPFGgPFGF-30" value="" style="endArrow=classic;html=1;rounded=0;exitX=0.5;exitY=0;exitDx=0;exitDy=0;entryX=0.5;entryY=1;entryDx=0;entryDy=0;" edge="1" parent="1" source="oOy7QrCfU1HmPFGgPFGF-27" target="oOy7QrCfU1HmPFGgPFGF-17">
          <mxGeometry width="50" height="50" relative="1" as="geometry">
            <mxPoint x="44.629999999999995" y="773" as="sourcePoint" />
            <mxPoint x="44.629999999999995" y="757" as="targetPoint" />
          </mxGeometry>
        </mxCell>
        <mxCell id="oOy7QrCfU1HmPFGgPFGF-33" value="基本训练框架" style="text;html=1;strokeColor=none;fillColor=none;align=center;verticalAlign=middle;whiteSpace=wrap;rounded=0;" vertex="1" parent="1">
          <mxGeometry x="-318.91" y="435" width="92.91" height="30" as="geometry" />
        </mxCell>
        <mxCell id="oOy7QrCfU1HmPFGgPFGF-34" value="基本识别框架" style="text;html=1;strokeColor=none;fillColor=none;align=center;verticalAlign=middle;whiteSpace=wrap;rounded=0;" vertex="1" parent="1">
          <mxGeometry x="-22.52000000000004" y="435" width="92.91" height="30" as="geometry" />
        </mxCell>
        <mxCell id="oOy7QrCfU1HmPFGgPFGF-35" value="Encoder&lt;br&gt;(Conformer)" style="rounded=0;whiteSpace=wrap;html=1;fillColor=#d5e8d4;strokeColor=#82b366;" vertex="1" parent="1">
          <mxGeometry x="175" y="643" width="120" height="60" as="geometry" />
        </mxCell>
        <mxCell id="oOy7QrCfU1HmPFGgPFGF-36" value="" style="shape=image;verticalLabelPosition=bottom;labelBackgroundColor=#ffffff;verticalAlign=top;aspect=fixed;imageAspect=0;image=data:image/png,iVBORw0KGgoAAAANSUhEUgAAAacAAABxCAYAAABx/2weAAAgAElEQVR4Ae2dh5dlR3GH+U9sY+OAI8Y2xpYjDtgYG7BxxAEbG5uMbYyEAggJJBRAAUkICSQEyglJq93VZm3OOYfZvLM7G6TNWe3z3bf1pqa2b77z3ps31efc0zd0qP51367u6urqNwV3joAj4Ag4Ao5AjyHwph6jx8lxBBwBR8ARGOcIvPHGG8GZ0zhvBF58R8ARcAR6DQFnTr1WI06PI+AIOAKOQHDm5I3AEXAEHAFHoOcQcObUc1XiBDkCjoAj4Ag4c/I24Ag4Ao6AI9BzCDhz6rkqcYIcAUfAEXAEnDl5G3AEHAFHwBHoOQScOfVclThBjoAj4Ag4As6cvA04Ao6AI+AI9BwCzpx6rkqcIEfAEXAEHAFnTt4GHAFHwBFwBHoOAWdOPVclTpAj4Ag4Ao6AMydvA46AI+AIOAI9h4Azp56rEifIEXAEHAFHwJmTtwFHwBFwBByBnkPAmVPPVYkT5Ag4Ao6AI+DMyduAI+AIOAKOQM8h4Myp56rECXIEHAFHwBFw5uRtwBFwBBwBR6DnEHDm1HNV4gQ5Ao6AI+AIOHPyNuAIOAKOgCPQcwg4c+q5KnGCHAFHwBFwBJw5eRtwBBwBR8AR6DkEnDn1XJU4QY6AI+AIOALOnLwNOAKOgCPgCPQcAn3DnA4cOx1eWLk3fGPqprBg26GeA9oJcgQcAUfAESiOQN8wJxjT7902M/zI5yeE26dsDBffeKM4Ch7SEXAEHAFHoKcQ6BvmxIwJxsT1d99eEBYN+Oypp1qaE+MIOAKOQAkE+pI5/fhVL4e7p28uAYMHdQQcAUfAEeglBPqSOTF7+vijy8KWA8d7CWunxRFwBBwBR6AgAn3LnN5+w5Tw/QU7CsLgwRwBR8ARaBYBOtehY6fDzsMnw6mzF5pN/FJq5HH4xNnk4r6fXN8yJ2ZPrEO5cwQcAUegGwjsPnIy3Ddza/jskyvCy6v3hVNnz4emGcj8rYfCtT9ck1zc95Nz5tRPtellcQQcgcYRQPP39LkL4ez5i6XSfmbp7nDFzdMTJa0/v3tO+NqkDWHRwOFSaWQFpvP++pRhRbB+G4w7c8qqff/mCDgC4x6BeVsPhpsmrg8Pz9selu04Eo6cPFsIE61BjCTnzVe+HO6a1pyi1spdr4V/+e6itpayM6dC1dL5QLYh9JJYb8ehE+GJxbvCjA0HRk323HnEPUdHYHwgIH3Lr944NfzjgwvDxDX7ChVc4tEXyfWR7y0Ja/e+Xih+XqD7X90afubaSe20mUU1LTbMo2E0v/fFzOnCxTfCba9sbFeSNIReGUnAmH79q9MCU3sYlLt0BF4/eS4wIpy+fn/YeuB4X/1s6aX2L72MgGUyRZmAjUe/9HNfnBwenLOtdnGtSI+0b528MZy/UE70WJuQUUygL5jTmXMXws0TN9RiTucuXAwsYO597VSA2TXpdCPtFYYZKx/lbrrssXzS3iEueXzRzkRU8d675iSilJ2HTqQF9/fjAIGhY2fCxsGj4dDxMx0tLSbQ+Fenrd8fbpywbkTfcvOkDeHM+XztO/3fy4AZv4k+ADyueX7NCLpY0yq7LtZRUEtm1hfMicVKZMK6AZRtBLM3D4X/eWpl+NzTq9qN8vVT50rCGQ+uG+m/PrQ4rN7dmtYDPlcvOBjzk4t3hZdW7k3UUrtB05wtQ+Ev75vXrsd33jQtPLlkVzdI8Tx7AAEGjM8t3x3+8/tLw4sr93bMJBmzD2Yh9CF/dtec5NJ9y38/uSJsGzoeoC/L6f9ex//MEysCov46Du2/P/z6rPa/QvrOnOogOkpx2UPw1ZcvZ07Xv7QuHD2dz2AYbVCx0oDefNXLSYOcvHawEYp1I33rtZOSEc9TS3aFO6ZuSn46Rofddk8v3R1+8+bp4U/vnB2mrNvfFXLYl8b+NKkHfMS13ZzNdQUIzzRBgAETA0bawVdeXh9Onj3fEWS2HzwRPv348hHtULfJ3711Zrjq2dW5Bqb1f6/jI+J/bNHOcLGGhCaWtjOnjjSPcpmkMacPfmt+QNMmz726aSi8/57hEbs0JBpAE842JGYEv3HT9PCjn58Qfv+2mQmDaiKfqmkcPXUuXP9iS3TxE194OXxzxpaqSdWKd+/MLeEnr544olP43NMrE1FrrYQ9ckcRoNPdtP9YWLjtUC1x3PytB8Nff2t+0h7Yy3P4RGcGcU8v3ZUM1KQfiPl5/wkDqtg6uKRVl9naPoV0b3hpXTheYDDe0cZQI7O+EOu9dvJs+OILa0d0alTWr31lajJCycMnVtHEHy3mJA1U/KbyyStn2vdX1g6GP7ljdhu/ogu+aelVfR+rB0QXiDD6zfWSSLdpbFknpPP92/sXhAmr9lZOHqUY1h75T77w3OrQKQlDrB3Kv6r9rP927paD4a+UiFrH4/6Tjy1PRINVwYnR+NknVoR+WqPtC+a0+cCx8LFHl7U7V2kIiNC+/Wq2ZsyRE2fDdT8cubAo8bMaX5lGFWtIkgd+a1RYbO9EmXyLhrX0XfnsqrD/6Omi0RsLZ+kAm7wRat3MB18/lYzw664BlKFj4+Cx8NDcgUT5o5P5lqGxTlg987h9yqbKa0VotqLhSjv4/DOrwuDrnWmTsXao/1e5J1yay0vjd2+dEX64Yk9a9Nz3sfStmvrg0dPh+RV7kkH2Cyv2hgNd+KdzC5IRoC+Y09Idh8OHHlx4GXOiEWU1IHCZuHpf+KOvv1opbgau7U8ArHdxS8PWfrdnB7ahcy4W52N12lk6BKO8OqxKJ6IXdvH/7f3zk0EM4s0yTjS65mw+WFiF9/zFi+HBOQPhl65/Jdle8MTinSOyZP0TMTNlxhwN7WesOV2PH/vBsrB5/7HLioC2G0oFMOe0NUWUIBB70w7++buLwopdRy5Lp+kXRf7XIu1SYyDhtc+69l01Tk6IpW+ZE4zpd25t4fd7t85MxIyxumgaw6bS6wvmtGT74fAPD1RjTrFKlkZ0y+QNuRo5eRWhNX8k3ZgPHZ1yrAmgaSSdQgyDTtIj5Y7RAVajRQsL7IifyAOxJuLNog4mc+ulvXV/ee+8AIMq4qy4x5attf45N6Hpyy+tDcfUGgI/61hgVroe337D1KgB5lmbhhLRFpprYBJz3569Lbz1utYm01+7cWp4bOFIRh6LU/cd/8btkT2TZf9ZjUEsbt12HUv/Iw8vCWv3DG/wtWF++ctTwn2ztoYTZzqjWFK3LvqCOemFU9sQqKCFA4fCHdM2JyNSuw/AVqCO34S4zWoC6vT1fROMsGhjmLflYCA/OsKz5y+0O1lND7h02qXVxWjRcvD4mXD186vbs+Yy+bAfDmUNwaxoXFtGK/bS35nRoVSAYzDBdgdm4czYetnpMoBPDBsdJvad8ukwKA/dMbU50z9p+KF0wX8v9Zrl/8t3Fyd1wqAGWvVMV9OelkZaudNo0+9j6f/bw4vDmgzmBB2oxrN3ayy4vmBOjy/eGd7x1WnRBsXImD1QP3rlhEQjjw5ZHIXPErn91/eXhk2Dl4skJH4Rvyhzuv7FtaGsWKlI/rEw0rBZsMUUC3nbH6jOjxPLs8g7oatTtKzfdzT8xyNL2mUvU+ZJawbDH39jWBxcNK4t400TNyRGRcEHpvM397e008CgZU1gIIEOxvSBe1sapUXzysOctkm6dFbHTzc3mrZljNGrw8S+Q7sOAx6dUNThf/gjVa+2Lernn75mUlInokz0mSeWt/cvWdp1PLlPK7fUGwZnkW7EZsux9P/14cVh9SXmlNW35eUr+Xfb7wvmFKsoaQD//r0lgUuedcUwvbW7vyUcfhPHvRdlTk0u+FKpsQZNY6MTQuVUysk+EtlLIu/wO9ER2MafVo+6zojDD4vsfPnOIwFNzaquxQwWtLGw+WSla9Xei8a1ZcRWG8ZEcfYb9SDp6m/XvbC2sPHRrDIwUIPhMZqe2uDeNk2rLoPQYjtOKaN8F9+mk7Z+JeGb8G2e+p/Iu2f/kqwhFkknrdyUA4wQd6KOPnPjgcssUsTSZ/+VKFlk9TtZ+TaBYVNpgMGbmkqsW+nEKkoaEhtLueRZVwwaaWimyTfrsxeJzbJ1XMt6xfAGX5uHPH/4ocVh1e7X6mSVxGWhedbGA6niH0QPsneEvP/+gQXJJXSIf8OEdeF4h2XTafWo64xCDhw8Eb4yYX34p+8sCsxgqjpEZqg7S5nLMGRLK5vAixwoZ+P97HWTwwOzWxql9ht0Sdn1N2a8aes0ZbDQaTa52Vmnq8sgtDEjuH3KsC1MKaN8F9+mM9oHiFqmKe2ijC9lsbTH0pCwUl7tM/iCGRMvVt9p6Uua/Lv8w2Xz1TR0+77vmROqyFxSSVJ5AN9aN0hnTsSR8ADFleVI79llu5OOQ5QNUH9lViT5p/nvv2dusgaUlX6Rbyw0v++e1oJ6rLNFtR4Ve6Hj3Xe8GrjkWfz/e2ZV2Pf6qSJZNhImq2OQOpCMwPi3vjYjofmWyRvbSiuxOmKBG4YdMzVjTcD871Mrw54jJyWbTB+aBCt8LAYsGjiUWJxOW3BOK6OUz6ZJurFvWtyXSWTOR50fa2+swTXhdLq6DJK23ZcYa6eEtemQVpNMVOgR364jkl/ZK1ZfaWlIWMlf+y1rKVOT/GOafTFsyEfSxPI52nuxvCWMzq8X7/lf+nrmZCtHVwydL52wDaOfMfJIh88PNGfzUKIyzImWjN73HDnVViEGSOk0mZnIqZTsacE2mE4zdg+DaMJckm60sR9Zf4cO1k302onQVlZ7rW7jTrOPCD26zsgHFVx+WL596rHlYWDoeII3dcQlCgMwCUwxUYcwMXkvtGIdmo5eygzDow6LOIvjn9w5O2A3kQ4BUTEiMwwS0y7EoXn3ZSVSlXylfDZNXXb7TeJI2nk+dGha7IzeqiHnpZf13dL6pRfXBm2ncsWu1xLVcCk/jD22B8emQ/gmmagtwyvrBgP1KHRV8aE5S6Sm08yqQ1t2G9Z+l3Ql3CPzdwS08+S99iWMLX8Tz8yKGeAx80sbpBXNh/bqzCljhMQsRGYiqAzT6bCA/KnHlwdG2mwURDzIKFzEZShfoB2I2zB4NHy0AHNi3wuHmdV1utHGTOjr7zRYGnAnGzEMAhq4NLPAIjlrKfonknvC4tgX8+jCnSOUBhC93jp5Q2Ax2oannlhPkffW9pidRRJO8orVg+7gCSfpxnxmwljKR5NUHJpUaFTZ8JJnLM20b/Je0s7yMTR8/6vbAuf/rL4kOrazFzaFYmQV0SSMq46z5bADr5dW7Q3vun3YaCn76n6wcMcItXnyt+mAW1MShlj5Yu3B1lXeM4f/sUaUtrFfx8+qQ1t2G9Z+l3TZ3sA2h7TvhLNpxbCo+g57iHdO25yIJOtqBY5r5lRU5CYVj//B++Ynl7xDaYKRod3IKw0A237Y+JPwWb7EqdowiKcbpbW1RWUzs8iiQX9rgh5dFitquHHC+vboasuBY+HjESsf0AMd0P7owh2BA980jdyzEM0l74VujQXfbMdmZ06Ekbh00mhPIg7knkGInpnZtCVv61/3wpq28gLGPjGpZcOgTs5om9md/Sb02PyYneWNTBEtc0mnqy2mYAoIk0CS349dOSFZf2PtDA1CPXDQdVjk3tJKHlIO4n937kD4hS+90s6b7y2DwyPXD2PpUAaYLO2haRfLT/Ap6qPBx0BJa4GmxSU/ZtN04lPWDbZnlzGrNRo/yp1GK1b9YY6xtiR0NKVQwyAG+mm74p5ZtjtccUnkLoxSvpX1nTnliPWkQtN8DJVaY6WEpfPgzJXvzd8+ouNMS4f3tgGWrUzC60aLaf9dh4fXUKymXhYtTdGjy4BlBC1GEy0xRAHMSGEeMZrYCoDNsKsylFd0PDCgU0asqd/bMmHgVq9HyndmcYj3MIaLqrU2oyNhNM42D/2MWrKcnJoWh9kUHVRMOYc4tl5JXzTXKCedAx0FG4EJP2fLweSi/FxaPV1MU7WO+L58Fie02w6MPDbsOxqeX74nPLd8TyK2od5iLlZOKQfhkSogXZC8xNdhYmWWcJ94dFlyEGUs7zrvYnRLnmV82rWesafFJT/EzoSFOYtYP2a1pig25HXls6uTKy1f3Sar4sU6LvQipmaflygDaQz5b+vMwsc1c2piATStAdDgOAwMUV+MecXi2QZYpeHoxiEdmKRjNfViNOh3dUc+kq/4mjbJh1nlrI1Dia25X7nh8lkF4f7im3MDRi0xwSLxsnxmOGg+sgZkw2mMY/TwTu91YZ+cWJGQtGLv5FvMlzxj+REehv1/T6+Mrk2mxWV0ygzihRV7kuNemO0gdiY9Rs/6XCxNk6gbo4WKSFR/0/fSgSXan5uGkjw++sjS8Du3zAi/fcuMhDly1hZiHOti5ZRyEDb2nbx1GPJlrVDTJPfMnhHvwhxReGlqFpVGl+Rb1H/HV6YFrrzwMhOXcFL+GB3yTbCOhZF0MIdmz3qSb+Lb9CTdor5WvML+ITNu0tQDIfq/OodEjjvmRIOQxkwHhgq3VFi3/boNRpvUoSx6Dw2N7jtzBsLPKwWAvPLaheyiDTcWLsssDAxc1uvyaCryndEcZ2XpWZrE0xhzL+/F551+z6zGrhOxrsAlcfJ8yVOna+Mwcuay77Pism6j125s3LRn0ozNGm14/hVERLLmar+zRQMGaY+yiJWTd4iA2E+l1fd1mlJW2o/u/HQYuUcD9rllu5N6RkuyCRejW/Ir47/l6omBKy+Obffkb/9hSUNjQ1nr0qr7wSrYFcmftUbaGYa5q7hxx5xoEFQMMnVG7O/7ZlyUJI2ik75tgFkVuue1UwH5LifXDh07nTBcqwXF6I1D02T9QGu5FSkXm3NjI+MsutK+sT6StuHZqvsXoS0rjN14rcPqnzL2g4koTOL8yo1TA5c842cpkehwci/1GstPwvzUNRMDlzyLL3WQFVfCFvVJq0h6RZhwzGhxLG1G1Awa3nPn7OQcsxitxBMXS0PHYQbHxVoZ2n5Yl6/j6AhpGzqPTt+DEdKK2KxXY9OybJKvAZxF//88uTLsViL/otihdYk4T8+QsvL55RumJGuMsa0ceXmOeeZUxhaWBhFNNkQbv31p8U5/69Z90TNrkP8/vmhnsvD4rttmJQvbbMpEI4tNnZZ+OgVGrXk/vI2HaIcFfTa6YlyXNQcM2VZxTO+Z5ts8RuP5nV+dFrhiacvgBCxiP9hf3Tc/cMXiVn0n1j/K4k9+zE4wRIqB1Kr523jQUYQWFve5bHz7TFraFUnbpsEzYliUN1Ai0pt0Y2H1O5gUFjv2vVadQTGAi7UHnU837wVjxJ3fmrX1MoWSsrTRrjj9uowDI0ydxfZFZuWPFRLWbsu6Mc2c4OJoQOXJV2PAIZ9H0+4tX7h8tBoL34l3RU/Fje3P4rDF2IGL0M36FwvuVTsN9kFh9Z1ZGEyqits6dDx84rFhde9O4NkredB5okhQFX+rjVi3XFgOSLMeUCXtLOO1ZdJDE4+LdciiGq6SPoPMR+Zvr2zVBDEwxmUlvV7zRUTPVoDYWmoVeoXhFfmfETfGFIyK5lsmL6EnYU6oLrI7/MLFi+0FRj4kC46XNu/xXOYibpnwRcKybgGNaCgRnunlu9UJrkWB6uVwjN44hwWZOx0a2jzI6VGjRn7LjAn/D9Q+EcrDaCZtRIPoAzVtDNnWKftPXT0xWQhndEtjK3IxOuPMpCufWZUspNfJfyzHpV57ZWT+nrtmB66m8ISRIBJjnxT7/f75O8XX45qigXQoEx0o7ZO9NrRPbM2hCfqDBTvC3dO3XNZmUaxANJ5mTaFJ+uqkxSAaBsWGfvZE1klL4lJPaKVOXb8/sCSAjUcGn2ygZdsHRmTZI4dm51NLd0XFjZJWnl+ZOaG6yM5rKhYRAg2Ni6k1lzyX8RlNlQlfJCy0yZoA4ZtcRM8Dt5PfOSCMRWhG3CySI6dHQ4m1maKaQJbet10/JXDZ92WfZXRbNB7igytuntHTo9KiZfFw2TMLtPiQYjCI6RZWrNvRRhmQQQPaiWxRQBP0xy9ZFdG08V+967aZUeUZHa4f76mn3/ra9ISpc5gjzA8JCVq+MGusnDNLY+2Ruq2DQWXm9I2pm2tlXIdoj5v9wzs+jo+3AW8DY70NOHPqYZnxWG9cTr93kN4GvA1UbQOVmRNaGEQea1evyPCrVlhaPMqVVRexciO+4MpKMxYvLXzsPcZWOWIji7a0b4gMekn5JFa+0XwH9nXxH0366qZN2aj7bovbhY60dhh7322ai2LP2h5LG00tZ5TBipOz5bDLovTqcOBe1qFXMGYNv2KPKrZxUYOSdc/CYlOLi1n5lPkWO7vFViqad9Y8CtbVsyysy09ZhhYJS17sUWKf1OKK2npslEQ7UtIcb34d/JvGis6tqQ4O2nSbpUOhs2+a5rz03nrdpGR9RE4DsP9M1nO3aM4rk/7OWhrq8iiFNYVvGYbBPiUYlKapzH2ZvKSuxjRzYu8Oe3jKgCRhMYnzpRfWJqZx5F0v+Ch8oI2Y5djQ+tDc7UmngPWCa3+4JtlHkLY3BFVw9irRQKqUsYiR0Sx6+cbeLKyCV8m/bBxU8rnKxhvN8L3EnOjcmurgwMy22artTPCPbXyWbzH/zVe+nJx2jZo1HVoVV5fmGF1NvkNhAY06XBO0vvOmaQHzU2WcNutVpmxFt8hYWsY0c6IwZe3FCagYJeQ4A05TlXe94NPwijgMurLxlmMYDp84mzC0tEYrRjzTvqeVG8vRWFcWCxNF6EoLA8OlE4vlhSZVml29WPi8dxi85coL16nvMrMoi/9o0QcdTdJCWtrVSZtzxO6duTV3TxwzPzTJfvFLryRaZpxqXMehTt2ken2VusvShNUY18FX6PrkY8uTI2jKYIZBZLYKsJ8ybduKpK/9osYFLC1jnjlRgLKjQDlZsmWZeXSYE3bdUKt9R4qlAl15co/6OPubqro0e2ngA05lGzVqpVU33doyZDEnDEdyCQ51fc7SSTtPB/EIo1CwiK0BVVXVz6JZZhZl8c9Ks8436ChCC9ZGYhZHbN6kpV1a2rLGEcOdNBEfY/Gco0rS0pC8adPMlB6aOxAWDRxO9mRqGsreZx1rLnk27XO4pZzoTNpiISOGj8Y4z2hvETpjZ70VwYx+hLPAsLuZlw9936efWFF5cDvmmROA5jVkC+Lff3tBWDxwOGncTe22tnmwT4BRBpVjv6U9Y4UZ8yRVHSZC7KIli6iYg8E9uXhXqlmfGE3XPr8mHD5+tio5I+JlGX5FWYIrRgPvsEZe1CI54RFzcsXSIx82G+Ji7ebTj68IXLG48o4N0HYTtHyL+dKxxPKLhbfvmE1w2fdVn6GjCC0ffmhRcoxH7AwqnbeUTyo8ljYzHVkPin0nPX2+F5toZa+SzkvubZ6Sdx0/jS7Js6jP3imuvPCfe3pl4JJwWYNIXV6kJnUlAzq9KphZrDB1hpkulkukPPR92w+dqJJ8EmfcMSdGJfwkFDztZFIBt44vlW8rMStNiVO1Nu3oj2MVnl66qz2qLFtepu+Mkppw4B2b4bLh+IHZ25JN4GnYYPyUK+27fc86ZNpaJIewiRHKWN3wTr9nEzGXzoMzkWJnL+kw+l7qNUt0lLbOQnvlvBxsmuk0mf2zMVJoo/OHIUMXa3ux0TfxOSaDkbc9W0unLffM+LAWcM+MLYF1S3lvfSmftBONn4SVjpcwse+E0+lg2SFL+1SHlXzr+ml0SRmK+phGk+NLsuKQn54FSZlidMg3KWMsTFZe9ptNT9It6tv8WTrg8FaObpG86uYx7piTBsyezCqgNuFLPrYSs9KWOEUbiA2HySgsc0gerBdhwVhc1lHoEkf7TTInaIhh8flnVyWNmkMZ046LRyEjzaK5plfuEVmw2KtFJvJNRGxp9ECjpvNjjy4LXBIfn/VKLv0u617q1Q4edBzWO2JrHhJX00Q8Zm4YAKVzQxGG9VPWHvcfPZ0on9jwkhfnYnFwIyalrjBMV8KITxq0KcybYS37rRGjwljQ5nBD7WJ5805c7Dt56jBZZ62hYfvwvO2SXGN+Gl2CR1E/yyq+ToP8mAUxOGNdBjNLuBgdGpu0MJI2lmW45Nn6rCVzGnEdp2nEJiG2CS1dluay+Y1r5tQyPb8ktRJtpfLMiJUr9k3eYajzicUtTRhdifI9za9bmbZx2JNws9Z9YjTVPcnSNkaLhf5JmB2kia4Q93x/wY7CFuTJJ61z0xhbesCAd/o9BlLvnr65bQUacQ2MFAYYwyz2Li9P4nzg3rnJZeNLXE0TYTj4Dyvx/MBix1LjjRILB8Axg5RRPMxIZtKs7WSZpGENkBOAxWFnDXM2mr4rvjY9GQRgFFQ7SytxpByEi323YdJm2oTDvtzGweFBl867zn0aXbrMRe6LKuSQH+VEOjF07Ez7uPOYSFPjl4Uh9FlxoaXZDlqrYKbP29JLBw/O2dY2BWVpLpvPuGZOGwaPho+WNIaK+AQRBT89C+v2rB8aQuvnaR2wVabB161M22j/96mVYY85qbQMPVoUU7ZhxcK/uHLvCBVv1vswLIlDfIRNL/sj8YyoYODg8RHyeR3OGr2ljGmdm8Y4hgXv9DHZzLTW7nk9OaiRE3ARh20bOh7tYBmU0D6w5cb+O8pHO9HajrE8KQtlj5Vf6LXx5Lj1GM7yjqOz2W4xZ/NQoinJbHLPkdaxEi2jycOiOk5rZt1ARtwwNjl6W9LT++t+5tpJAVEO54pZZ2mlfFIOwsa+2zBZ4Zpul0J/Gl26reXdI04F2yIKAxoToQGfGRRtSOdlw6bRilIJ+z/ZrKvj6/sm8GNtfPqGA+HmiRsSJS7Z/sKARpSbLM26jEXuxzVz2jh4LHo0tq5Iey9aLvz07Dtg8Zx9FhKOc4S+N297OH2updiQ1ogkvPho9zHqqOt0fnSM0Kmd/i55p/l1G5fOl3tGh4gvJD/Bkm9Z+6D40Wj8iK5gFqhmSxr4dARYcGcEx0bfouKRGGKp3J8AAAwwSURBVBa8Q4yF8gjGkEV7ktnJybPn2x12LC5nLrGeSf5Yk4fxFsGfGSP5cXaWLhf3Ugc2P9aVwKyI4ycXa/4S3oq0f/H6V8LNE9cnR9CAp2Ao4fHZX4eSDyNzmBcnScecpVWXg/CxmYENQ7hYOu/+xqth8prBWLa138Xys/WR90waRSUUhI05+g4rNrZh02hlpo/4OO17DOcYDUXeUc4z5y6MOOONwQ+D4ibyGdfMadP+Y+G/flDuGAnbSNhfIcdOM2JAFr7z0Ml23XLEBerJeY36z+6anZy51I5Y8UY3ytgISX/PoultX56SiK8qkpEajVkE62JcekZBhDTaBHPpZGFQmna+nzp7PtFKRK1YOm0YlswEJLyklZaffIepcIxMmvYk4SRN8SVuauFTynj9i+sCZ3TF1tUkTZtfrG6z8rXfWuuPw8yQETczI2ZLnJMmGNp4dJyITDk8kvqIOUsrZy1xpLo4zmCLaQBKWSWcTQec2Tj/+smRAy4JX9cve1K01Lv2oRlcqB/9PnZvy6vpt2W3Ye13SV/aRdp3wtm0dL5171E2mrRmXzIIZWZVx41r5pQlSpLKRi4vsnktWxXQUZGet+VgUuFMaa0oZM7mg22Zv6QZ8zFLz76ruk6LzmKNcObGAyPUPWO08E6LJuvSZOMzC+GyLu2HsuXQ4RB/xEb5pM3R3ai3ShkRtTGjEcc61ttvGD5GRK+BSZg0X9NA+uwHYmE7z9l4xOUd6zYoHQit4vMNZ+PJ+7z80r5zorFeN6u6UTKWvqWVASADQXGx/YWxf8umI1hJOk37rBMjmhXsq/jQ3E3mJO0ihp2UR8I0jZ+kx8xt6NjpRNIg76r445o5bTlwLDmETyot5mOvDs0WOjmYT6xTzQJ+6Y4j4UMZe3gkz088tixwWmxdh+iMA/6QBcu+Ep1mS2TQUvdMsy1Ih484i8bRSZf2Q9mf6a5pm9ui1DzxlsjAf/6LkxNxkhaz6TUU6gEtq3V7iy20W1pbjC9f3ETdiPq31L2UD3pYTNcnO8s3nR/nciE6rut0mjLirpsm8XW6KA+xVqdxRwFAn9rMOg178ey/pdMBqxgDa4JeSaPuac3UG2JPi4HUs/UpX5pDE/Onr5mUMErWA7Grp53FRtKWNNO+s3cMsepYcOOaOR04ejpc9ezwGohUsPgykuZnQodf1pHKVOyOQycCaxGSZpqPRQPWOppwiKKQBacxF8RpjNJZ3P/c06va2jV0mhzFznQ8TazTBH1paaT9UPLDSTyO4xa1c/tNwojPTBYG9Z05A5cxHq1xRL2U6aAtrZ96bHkYKDC42H3kZHKSsezhaa01ttR6WdNBtVhvIJby6fw+eN/8ZLYuZazqS5rSzqumY+NJumAK47HiWztLlDJmpUNaqMxbBmbj1HnmfykijpN/mD1jXDwj0kc9H3V+nMZAwls/rdzEZz0bhSvixCy1pKUvaXLyb8wkGEsQdU091cG4TNy+YE6s86RZF3/7DVMDlzQMqTxAOnv+QqYxUqw8sHBcxyG/L6K509KOOl8nq1Jx6SC4lm4/HD70QMs6Axtdtx88MWKBs1SiNQPn/XCSvFg4h0E9Mn+HvC7tY5tQK1fotpGXmKU1pt2WlgZ7kRABIsplc61tY5I2GnH3v7o1SUbe0Y4ZQFBPdR0WRa58dnUi3ltXs51rWti0K8ejMAiinVmny8N9zOkwlDstXCxu1Xc2T+k3Yj6zXMwnsWbIBmvWPcUVSSerPHTMSD4IQzsVbbis9LHNxxH1OGaizDSFbvajURexGaqk2Wt+XzCnllps3LyL3hDHMefYnxNn5e5SkeKjJcaaUh2HnTC7u1/S137aT1wn7yJxmVm8tGpvuOb5NYH1qG66tB/a/sRgivgEcSvrhlWdXXO0+WSlyzqXqPuy2ffZZbtTZ6qxdBC/svaCqj8/oXZ0RtQHollZh9TYFFEj1+ml3bN4DaNE8aPJGQkzJbFQkYYp+62YqaOpyB63mNNl5oj1u6cP/7ux8E2803nq/zN2zyyL9RXao2UeL6zYk2tyKw2bIuWI0SntkPgo2OgjdLrVvxQpS1qYvmBOszYOhfcpm066IWGvjop8y9UTEzVjtLnE5TGnOo1H8jh6+ly4PuNYD4y9IpO3u+wlfid8xEloX1URWzZJX+yHEy0ymw91R+dqO3YbLuvZWmwoU9+IPWHmrHlhpQENtqYcHR31gZhXygcjRvxG227iCJOmaI2lAzbstUGtmT1WMYd4E9xQC6dzjzm9tlj12IVYulnvYm1Q9yf6Pqu9pG0CLxo/i0a+xejkIFA5b83assyiNS+vbn3vC+aUpXRApSzbeSTcM3PLZdNjOgGrltxU45EKZSGY/UY6XX0P82T/TEz0IWmMFz/2w41mR6zrH3V/1P7LOOLTEeOPtmNP0YcfalloKLM2Ntp0paXPQAfmzyAizdH5CPONhdGGirXB3ljYpt4xA46ZvdL/rNxndfh5A9+YkkOZMsT+lc8+uSLsPDws7pUwo7UtpAy9VcL2BXNCNCIbv6ThiJ/VgCg8IzvksRJefDmgrwqoOg6dF6NrSRefEbCMgrPo0+mMh3v5mTRWo40P+2+wMIGoDMsPveqYJSJKhDFZBYNepbkuXVjm+MjDLfNiaLwyCB1tF1Nz1+1R3+e1zVh7lvicQ8V6VVUXS9uaK0P7E6sjrIduGqwu/q5KY914fcGcrGqqNAD8vAbEjAV5rI7DfZNGT21DwqwNawqsh01V+27qVuZYj29xQlQ7a5TXwfa9dioxN0On1OS6y2jUBT8r13hx+r8uqg1ZF5t1+46Gf3+kmL3NvL4Frdf3ppxTVnc2E7OyYZkT4nrWVRGhjsV20xfMKU3poKioxnaKRZhamZ/Aps/mR0bp7Kk5fnpYw6dMmv0YVoy/omaNFhmMCZV4d+MTgdaevJb1d9ZlEX+PtsvbXqIHsXnMCXonrRlsK87ouFmbx4uUcfqG/ZcxPga8rFX2i+sL5hQTndEQio62Hpy9LfycOg6gqX0k0kg0c3r/PfNSLRpI+PHqM8iAQXGWD1pk7sY3AsxkUTphzRa/EzNb1g85Jl42wGLJPe1okTzmRO3ZvonlAvYWPrdsTy0zTLG1bG2rsh9aTl8wJypCMwAZoRRdOLaH8DWhQq4bh6Ytz6KBjuf3jsB4R4AN5XTEaTYORwMfRLxYaMAa/qMLd1Zaz9Z06f+f5QI0+ZqYBep06fN47ifX18ypaGUBwsQ1+5IjAzj7Bnt4TTrdiIrS1GT+npYj4AiUQ4A+AbEiTJFtHjGlqaL/MpudP3DvvGD3WZaj6PLQul9x5nQ5Pj3zxlZU2crCSjMMCsaUpf5apcCatqINuko+HscRcASaRwAGxZYP+pR33TYrYDmGJQO04Yo4NC1nbDyQzGyWbB/eZ1kkblYYzud6503Dhmr7rW/xmVNW7Tf0TZhTa29DyxxNQ0l7Mo6AIzDKCMBcbrl08jFbDthzNjB0IjnfqmjWaAWTTpPrZjsPnwzsbYJplh2MF6W7m+H6hjlxlDYmTqSieqmy2AWPkgXHUMgO7m5WuuftCDgCxRGAoTBLuvq51YnCTic2XRelTga+vdTfFaU9L1zfMCemy1jv7UXmxOFonPnEQiujJ3eOgCMwthBAgeHgsTOlZkudKKG2ouFivU4gXjEPNGt+9ca4BfKKSXo0R8ARcAR6FgGs08OUsFTfbcPNTYPUNzMngGFjK+b633Pn7PDeu+YkO/+bBszTcwQcAUegVxBA5IhqOkyq24abm8akr5gT4KB1h0mg6ev3B85ScucIOAKOgCMw9hDoO+Y09qrAKXYEHAFHwBGwCDhzsoj4syPgCDgCjkDXEXDm1PUqcAIcAUfAEXAELALOnCwi/uwIOAKOgCPQdQScOXW9CpwAR8ARcAQcAYuAMyeLiD87Ao6AI+AIdB0BZ05drwInwBFwBBwBR8Ai4MzJIuLPjoAj4Ag4Al1HwJlT16vACXAEHAFHwBGwCDhzsoj4syPgCDgCjkDXEXDm1PUqcAIcAUfAEXAELALOnCwi/uwIOAKOgCPQdQScOXW9CpwAR8ARcAQcAYuAMyeLiD87Ao6AI+AIdB0BZ05drwInwBFwBBwBR8Ai4MzJIuLPjoAj4Ag4Al1HoM2cuPHLMfA24G3A24C3gV5pA/8PlOoNuHlGI/kAAAAASUVORK5CYII=;fontFamily=Times New Roman;" vertex="1" parent="1">
          <mxGeometry x="179.09000000000003" y="823" width="112.3" height="30" as="geometry" />
        </mxCell>
        <mxCell id="oOy7QrCfU1HmPFGgPFGF-37" value="" style="endArrow=classic;html=1;rounded=0;exitX=0.5;exitY=0;exitDx=0;exitDy=0;" edge="1" parent="1">
          <mxGeometry width="50" height="50" relative="1" as="geometry">
            <mxPoint x="235.24" y="828" as="sourcePoint" />
            <mxPoint x="235" y="810" as="targetPoint" />
          </mxGeometry>
        </mxCell>
        <mxCell id="oOy7QrCfU1HmPFGgPFGF-38" value="Linear" style="rounded=0;whiteSpace=wrap;html=1;fillColor=#d5e8d4;strokeColor=#82b366;" vertex="1" parent="1">
          <mxGeometry x="175" y="585" width="120" height="33" as="geometry" />
        </mxCell>
        <mxCell id="oOy7QrCfU1HmPFGgPFGF-39" value="" style="endArrow=classic;html=1;rounded=0;entryX=0.5;entryY=1;entryDx=0;entryDy=0;" edge="1" parent="1" source="oOy7QrCfU1HmPFGgPFGF-35" target="oOy7QrCfU1HmPFGgPFGF-38">
          <mxGeometry width="50" height="50" relative="1" as="geometry">
            <mxPoint x="211" y="756" as="sourcePoint" />
            <mxPoint x="261" y="706" as="targetPoint" />
          </mxGeometry>
        </mxCell>
        <mxCell id="oOy7QrCfU1HmPFGgPFGF-40" value="Loss&lt;br&gt;(CTC)" style="rounded=0;whiteSpace=wrap;html=1;fillColor=#d5e8d4;strokeColor=#82b366;" vertex="1" parent="1">
          <mxGeometry x="175" y="518" width="120" height="33" as="geometry" />
        </mxCell>
        <mxCell id="oOy7QrCfU1HmPFGgPFGF-41" value="" style="endArrow=classic;html=1;rounded=0;entryX=0.5;entryY=1;entryDx=0;entryDy=0;exitX=0.5;exitY=0;exitDx=0;exitDy=0;" edge="1" parent="1" source="oOy7QrCfU1HmPFGgPFGF-38" target="oOy7QrCfU1HmPFGgPFGF-40">
          <mxGeometry width="50" height="50" relative="1" as="geometry">
            <mxPoint x="211" y="626" as="sourcePoint" />
            <mxPoint x="261" y="576" as="targetPoint" />
          </mxGeometry>
        </mxCell>
        <mxCell id="oOy7QrCfU1HmPFGgPFGF-42" value="Audio Samples&lt;br&gt;(sample rate = 16000)" style="text;html=1;strokeColor=none;fillColor=none;align=center;verticalAlign=middle;whiteSpace=wrap;rounded=0;" vertex="1" parent="1">
          <mxGeometry x="319" y="826" width="142" height="30" as="geometry" />
        </mxCell>
        <mxCell id="oOy7QrCfU1HmPFGgPFGF-43" value="[T/4, hidden_dim]&lt;br&gt;[T/4, &amp;nbsp;512]" style="text;html=1;strokeColor=none;fillColor=none;align=center;verticalAlign=middle;whiteSpace=wrap;rounded=0;" vertex="1" parent="1">
          <mxGeometry x="319" y="618" width="119" height="30" as="geometry" />
        </mxCell>
        <mxCell id="oOy7QrCfU1HmPFGgPFGF-44" value="[T/4, &amp;nbsp;Vocab_size]&lt;br&gt;[T/4, 500]" style="text;html=1;strokeColor=none;fillColor=none;align=center;verticalAlign=middle;whiteSpace=wrap;rounded=0;" vertex="1" parent="1">
          <mxGeometry x="319" y="555" width="119" height="30" as="geometry" />
        </mxCell>
        <mxCell id="oOy7QrCfU1HmPFGgPFGF-45" value="Conv &amp;nbsp;subsampling" style="rounded=0;whiteSpace=wrap;html=1;fillColor=#d5e8d4;strokeColor=#82b366;" vertex="1" parent="1">
          <mxGeometry x="175" y="726" width="120" height="33" as="geometry" />
        </mxCell>
        <mxCell id="oOy7QrCfU1HmPFGgPFGF-46" value="feature extraction" style="rounded=0;whiteSpace=wrap;html=1;fillColor=#d5e8d4;strokeColor=#82b366;" vertex="1" parent="1">
          <mxGeometry x="175" y="775" width="120" height="33" as="geometry" />
        </mxCell>
        <mxCell id="oOy7QrCfU1HmPFGgPFGF-47" value="" style="endArrow=classic;html=1;rounded=0;exitX=0.5;exitY=0;exitDx=0;exitDy=0;entryX=0.5;entryY=1;entryDx=0;entryDy=0;" edge="1" parent="1" source="oOy7QrCfU1HmPFGgPFGF-46" target="oOy7QrCfU1HmPFGgPFGF-45">
          <mxGeometry width="50" height="50" relative="1" as="geometry">
            <mxPoint x="245.24" y="833" as="sourcePoint" />
            <mxPoint x="245" y="815" as="targetPoint" />
          </mxGeometry>
        </mxCell>
        <mxCell id="oOy7QrCfU1HmPFGgPFGF-48" value="" style="endArrow=classic;html=1;rounded=0;exitX=0.5;exitY=0;exitDx=0;exitDy=0;entryX=0.5;entryY=1;entryDx=0;entryDy=0;" edge="1" parent="1" source="oOy7QrCfU1HmPFGgPFGF-45" target="oOy7QrCfU1HmPFGgPFGF-35">
          <mxGeometry width="50" height="50" relative="1" as="geometry">
            <mxPoint x="246.24" y="783" as="sourcePoint" />
            <mxPoint x="246.24" y="767" as="targetPoint" />
          </mxGeometry>
        </mxCell>
        <mxCell id="oOy7QrCfU1HmPFGgPFGF-49" value="[T, hidden_dim]&lt;br&gt;(T * 80)" style="text;html=1;strokeColor=none;fillColor=none;align=center;verticalAlign=middle;whiteSpace=wrap;rounded=0;" vertex="1" parent="1">
          <mxGeometry x="322" y="754" width="119" height="30" as="geometry" />
        </mxCell>
        <mxCell id="oOy7QrCfU1HmPFGgPFGF-50" value="[T/4, hidden_dim]&lt;br&gt;[T/4, &amp;nbsp;512]" style="text;html=1;strokeColor=none;fillColor=none;align=center;verticalAlign=middle;whiteSpace=wrap;rounded=0;" vertex="1" parent="1">
          <mxGeometry x="319" y="696" width="119" height="30" as="geometry" />
        </mxCell>
        <mxCell id="oOy7QrCfU1HmPFGgPFGF-51" value="Encoder&lt;br&gt;(Conformer)" style="rounded=0;whiteSpace=wrap;html=1;fillColor=#d5e8d4;strokeColor=#82b366;" vertex="1" parent="1">
          <mxGeometry x="484.39" y="643" width="120" height="60" as="geometry" />
        </mxCell>
        <mxCell id="oOy7QrCfU1HmPFGgPFGF-52" value="" style="shape=image;verticalLabelPosition=bottom;labelBackgroundColor=#ffffff;verticalAlign=top;aspect=fixed;imageAspect=0;image=data:image/png,iVBORw0KGgoAAAANSUhEUgAAAacAAABxCAYAAABx/2weAAAgAElEQVR4Ae2dh5dlR3GH+U9sY+OAI8Y2xpYjDtgYG7BxxAEbG5uMbYyEAggJJBRAAUkICSQEyglJq93VZm3OOYfZvLM7G6TNWe3z3bf1pqa2b77z3ps31efc0zd0qP51367u6urqNwV3joAj4Ag4Ao5AjyHwph6jx8lxBBwBR8ARGOcIvPHGG8GZ0zhvBF58R8ARcAR6DQFnTr1WI06PI+AIOAKOQHDm5I3AEXAEHAFHoOcQcObUc1XiBDkCjoAj4Ag4c/I24Ag4Ao6AI9BzCDhz6rkqcYIcAUfAEXAEnDl5G3AEHAFHwBHoOQScOfVclThBjoAj4Ag4As6cvA04Ao6AI+AI9BwCzpx6rkqcIEfAEXAEHAFnTt4GHAFHwBFwBHoOAWdOPVclTpAj4Ag4Ao6AMydvA46AI+AIOAI9h4Azp56rEifIEXAEHAFHwJmTtwFHwBFwBByBnkPAmVPPVYkT5Ag4Ao6AI+DMyduAI+AIOAKOQM8h4Myp56rECXIEHAFHwBFw5uRtwBFwBBwBR6DnEHDm1HNV4gQ5Ao6AI+AIOHPyNuAIOAKOgCPQcwg4c+q5KnGCHAFHwBFwBJw5eRtwBBwBR8AR6DkEnDn1XJU4QY6AI+AIOALOnLwNOAKOgCPgCPQcAn3DnA4cOx1eWLk3fGPqprBg26GeA9oJcgQcAUfAESiOQN8wJxjT7902M/zI5yeE26dsDBffeKM4Ch7SEXAEHAFHoKcQ6BvmxIwJxsT1d99eEBYN+Oypp1qaE+MIOAKOQAkE+pI5/fhVL4e7p28uAYMHdQQcAUfAEeglBPqSOTF7+vijy8KWA8d7CWunxRFwBBwBR6AgAn3LnN5+w5Tw/QU7CsLgwRwBR8ARaBYBOtehY6fDzsMnw6mzF5pN/FJq5HH4xNnk4r6fXN8yJ2ZPrEO5cwQcAUegGwjsPnIy3Ddza/jskyvCy6v3hVNnz4emGcj8rYfCtT9ck1zc95Nz5tRPtellcQQcgcYRQPP39LkL4ez5i6XSfmbp7nDFzdMTJa0/v3tO+NqkDWHRwOFSaWQFpvP++pRhRbB+G4w7c8qqff/mCDgC4x6BeVsPhpsmrg8Pz9selu04Eo6cPFsIE61BjCTnzVe+HO6a1pyi1spdr4V/+e6itpayM6dC1dL5QLYh9JJYb8ehE+GJxbvCjA0HRk323HnEPUdHYHwgIH3Lr944NfzjgwvDxDX7ChVc4tEXyfWR7y0Ja/e+Xih+XqD7X90afubaSe20mUU1LTbMo2E0v/fFzOnCxTfCba9sbFeSNIReGUnAmH79q9MCU3sYlLt0BF4/eS4wIpy+fn/YeuB4X/1s6aX2L72MgGUyRZmAjUe/9HNfnBwenLOtdnGtSI+0b528MZy/UE70WJuQUUygL5jTmXMXws0TN9RiTucuXAwsYO597VSA2TXpdCPtFYYZKx/lbrrssXzS3iEueXzRzkRU8d675iSilJ2HTqQF9/fjAIGhY2fCxsGj4dDxMx0tLSbQ+Fenrd8fbpywbkTfcvOkDeHM+XztO/3fy4AZv4k+ADyueX7NCLpY0yq7LtZRUEtm1hfMicVKZMK6AZRtBLM3D4X/eWpl+NzTq9qN8vVT50rCGQ+uG+m/PrQ4rN7dmtYDPlcvOBjzk4t3hZdW7k3UUrtB05wtQ+Ev75vXrsd33jQtPLlkVzdI8Tx7AAEGjM8t3x3+8/tLw4sr93bMJBmzD2Yh9CF/dtec5NJ9y38/uSJsGzoeoC/L6f9ex//MEysCov46Du2/P/z6rPa/QvrOnOogOkpx2UPw1ZcvZ07Xv7QuHD2dz2AYbVCx0oDefNXLSYOcvHawEYp1I33rtZOSEc9TS3aFO6ZuSn46Rofddk8v3R1+8+bp4U/vnB2mrNvfFXLYl8b+NKkHfMS13ZzNdQUIzzRBgAETA0bawVdeXh9Onj3fEWS2HzwRPv348hHtULfJ3711Zrjq2dW5Bqb1f6/jI+J/bNHOcLGGhCaWtjOnjjSPcpmkMacPfmt+QNMmz726aSi8/57hEbs0JBpAE842JGYEv3HT9PCjn58Qfv+2mQmDaiKfqmkcPXUuXP9iS3TxE194OXxzxpaqSdWKd+/MLeEnr544olP43NMrE1FrrYQ9ckcRoNPdtP9YWLjtUC1x3PytB8Nff2t+0h7Yy3P4RGcGcU8v3ZUM1KQfiPl5/wkDqtg6uKRVl9naPoV0b3hpXTheYDDe0cZQI7O+EOu9dvJs+OILa0d0alTWr31lajJCycMnVtHEHy3mJA1U/KbyyStn2vdX1g6GP7ljdhu/ogu+aelVfR+rB0QXiDD6zfWSSLdpbFknpPP92/sXhAmr9lZOHqUY1h75T77w3OrQKQlDrB3Kv6r9rP927paD4a+UiFrH4/6Tjy1PRINVwYnR+NknVoR+WqPtC+a0+cCx8LFHl7U7V2kIiNC+/Wq2ZsyRE2fDdT8cubAo8bMaX5lGFWtIkgd+a1RYbO9EmXyLhrX0XfnsqrD/6Omi0RsLZ+kAm7wRat3MB18/lYzw664BlKFj4+Cx8NDcgUT5o5P5lqGxTlg987h9yqbKa0VotqLhSjv4/DOrwuDrnWmTsXao/1e5J1yay0vjd2+dEX64Yk9a9Nz3sfStmvrg0dPh+RV7kkH2Cyv2hgNd+KdzC5IRoC+Y09Idh8OHHlx4GXOiEWU1IHCZuHpf+KOvv1opbgau7U8ArHdxS8PWfrdnB7ahcy4W52N12lk6BKO8OqxKJ6IXdvH/7f3zk0EM4s0yTjS65mw+WFiF9/zFi+HBOQPhl65/Jdle8MTinSOyZP0TMTNlxhwN7WesOV2PH/vBsrB5/7HLioC2G0oFMOe0NUWUIBB70w7++buLwopdRy5Lp+kXRf7XIu1SYyDhtc+69l01Tk6IpW+ZE4zpd25t4fd7t85MxIyxumgaw6bS6wvmtGT74fAPD1RjTrFKlkZ0y+QNuRo5eRWhNX8k3ZgPHZ1yrAmgaSSdQgyDTtIj5Y7RAVajRQsL7IifyAOxJuLNog4mc+ulvXV/ee+8AIMq4qy4x5attf45N6Hpyy+tDcfUGgI/61hgVroe337D1KgB5lmbhhLRFpprYBJz3569Lbz1utYm01+7cWp4bOFIRh6LU/cd/8btkT2TZf9ZjUEsbt12HUv/Iw8vCWv3DG/wtWF++ctTwn2ztoYTZzqjWFK3LvqCOemFU9sQqKCFA4fCHdM2JyNSuw/AVqCO34S4zWoC6vT1fROMsGhjmLflYCA/OsKz5y+0O1lND7h02qXVxWjRcvD4mXD186vbs+Yy+bAfDmUNwaxoXFtGK/bS35nRoVSAYzDBdgdm4czYetnpMoBPDBsdJvad8ukwKA/dMbU50z9p+KF0wX8v9Zrl/8t3Fyd1wqAGWvVMV9OelkZaudNo0+9j6f/bw4vDmgzmBB2oxrN3ayy4vmBOjy/eGd7x1WnRBsXImD1QP3rlhEQjjw5ZHIXPErn91/eXhk2Dl4skJH4Rvyhzuv7FtaGsWKlI/rEw0rBZsMUUC3nbH6jOjxPLs8g7oatTtKzfdzT8xyNL2mUvU+ZJawbDH39jWBxcNK4t400TNyRGRcEHpvM397e008CgZU1gIIEOxvSBe1sapUXzysOctkm6dFbHTzc3mrZljNGrw8S+Q7sOAx6dUNThf/gjVa+2Lernn75mUlInokz0mSeWt/cvWdp1PLlPK7fUGwZnkW7EZsux9P/14cVh9SXmlNW35eUr+Xfb7wvmFKsoaQD//r0lgUuedcUwvbW7vyUcfhPHvRdlTk0u+FKpsQZNY6MTQuVUysk+EtlLIu/wO9ER2MafVo+6zojDD4vsfPnOIwFNzaquxQwWtLGw+WSla9Xei8a1ZcRWG8ZEcfYb9SDp6m/XvbC2sPHRrDIwUIPhMZqe2uDeNk2rLoPQYjtOKaN8F9+mk7Z+JeGb8G2e+p/Iu2f/kqwhFkknrdyUA4wQd6KOPnPjgcssUsTSZ/+VKFlk9TtZ+TaBYVNpgMGbmkqsW+nEKkoaEhtLueRZVwwaaWimyTfrsxeJzbJ1XMt6xfAGX5uHPH/4ocVh1e7X6mSVxGWhedbGA6niH0QPsneEvP/+gQXJJXSIf8OEdeF4h2XTafWo64xCDhw8Eb4yYX34p+8sCsxgqjpEZqg7S5nLMGRLK5vAixwoZ+P97HWTwwOzWxql9ht0Sdn1N2a8aes0ZbDQaTa52Vmnq8sgtDEjuH3KsC1MKaN8F9+mM9oHiFqmKe2ijC9lsbTH0pCwUl7tM/iCGRMvVt9p6Uua/Lv8w2Xz1TR0+77vmROqyFxSSVJ5AN9aN0hnTsSR8ADFleVI79llu5OOQ5QNUH9lViT5p/nvv2dusgaUlX6Rbyw0v++e1oJ6rLNFtR4Ve6Hj3Xe8GrjkWfz/e2ZV2Pf6qSJZNhImq2OQOpCMwPi3vjYjofmWyRvbSiuxOmKBG4YdMzVjTcD871Mrw54jJyWbTB+aBCt8LAYsGjiUWJxOW3BOK6OUz6ZJurFvWtyXSWTOR50fa2+swTXhdLq6DJK23ZcYa6eEtemQVpNMVOgR364jkl/ZK1ZfaWlIWMlf+y1rKVOT/GOafTFsyEfSxPI52nuxvCWMzq8X7/lf+nrmZCtHVwydL52wDaOfMfJIh88PNGfzUKIyzImWjN73HDnVViEGSOk0mZnIqZTsacE2mE4zdg+DaMJckm60sR9Zf4cO1k302onQVlZ7rW7jTrOPCD26zsgHFVx+WL596rHlYWDoeII3dcQlCgMwCUwxUYcwMXkvtGIdmo5eygzDow6LOIvjn9w5O2A3kQ4BUTEiMwwS0y7EoXn3ZSVSlXylfDZNXXb7TeJI2nk+dGha7IzeqiHnpZf13dL6pRfXBm2ncsWu1xLVcCk/jD22B8emQ/gmmagtwyvrBgP1KHRV8aE5S6Sm08yqQ1t2G9Z+l3Ql3CPzdwS08+S99iWMLX8Tz8yKGeAx80sbpBXNh/bqzCljhMQsRGYiqAzT6bCA/KnHlwdG2mwURDzIKFzEZShfoB2I2zB4NHy0AHNi3wuHmdV1utHGTOjr7zRYGnAnGzEMAhq4NLPAIjlrKfonknvC4tgX8+jCnSOUBhC93jp5Q2Ax2oannlhPkffW9pidRRJO8orVg+7gCSfpxnxmwljKR5NUHJpUaFTZ8JJnLM20b/Je0s7yMTR8/6vbAuf/rL4kOrazFzaFYmQV0SSMq46z5bADr5dW7Q3vun3YaCn76n6wcMcItXnyt+mAW1MShlj5Yu3B1lXeM4f/sUaUtrFfx8+qQ1t2G9Z+l3TZ3sA2h7TvhLNpxbCo+g57iHdO25yIJOtqBY5r5lRU5CYVj//B++Ynl7xDaYKRod3IKw0A237Y+JPwWb7EqdowiKcbpbW1RWUzs8iiQX9rgh5dFitquHHC+vboasuBY+HjESsf0AMd0P7owh2BA980jdyzEM0l74VujQXfbMdmZ06Ekbh00mhPIg7knkGInpnZtCVv61/3wpq28gLGPjGpZcOgTs5om9md/Sb02PyYneWNTBEtc0mnqy2mYAoIk0CS349dOSFZf2PtDA1CPXDQdVjk3tJKHlIO4n937kD4hS+90s6b7y2DwyPXD2PpUAaYLO2haRfLT/Ap6qPBx0BJa4GmxSU/ZtN04lPWDbZnlzGrNRo/yp1GK1b9YY6xtiR0NKVQwyAG+mm74p5ZtjtccUnkLoxSvpX1nTnliPWkQtN8DJVaY6WEpfPgzJXvzd8+ouNMS4f3tgGWrUzC60aLaf9dh4fXUKymXhYtTdGjy4BlBC1GEy0xRAHMSGEeMZrYCoDNsKsylFd0PDCgU0asqd/bMmHgVq9HyndmcYj3MIaLqrU2oyNhNM42D/2MWrKcnJoWh9kUHVRMOYc4tl5JXzTXKCedAx0FG4EJP2fLweSi/FxaPV1MU7WO+L58Fie02w6MPDbsOxqeX74nPLd8TyK2od5iLlZOKQfhkSogXZC8xNdhYmWWcJ94dFlyEGUs7zrvYnRLnmV82rWesafFJT/EzoSFOYtYP2a1pig25HXls6uTKy1f3Sar4sU6LvQipmaflygDaQz5b+vMwsc1c2piATStAdDgOAwMUV+MecXi2QZYpeHoxiEdmKRjNfViNOh3dUc+kq/4mjbJh1nlrI1Dia25X7nh8lkF4f7im3MDRi0xwSLxsnxmOGg+sgZkw2mMY/TwTu91YZ+cWJGQtGLv5FvMlzxj+REehv1/T6+Mrk2mxWV0ygzihRV7kuNemO0gdiY9Rs/6XCxNk6gbo4WKSFR/0/fSgSXan5uGkjw++sjS8Du3zAi/fcuMhDly1hZiHOti5ZRyEDb2nbx1GPJlrVDTJPfMnhHvwhxReGlqFpVGl+Rb1H/HV6YFrrzwMhOXcFL+GB3yTbCOhZF0MIdmz3qSb+Lb9CTdor5WvML+ITNu0tQDIfq/OodEjjvmRIOQxkwHhgq3VFi3/boNRpvUoSx6Dw2N7jtzBsLPKwWAvPLaheyiDTcWLsssDAxc1uvyaCryndEcZ2XpWZrE0xhzL+/F551+z6zGrhOxrsAlcfJ8yVOna+Mwcuay77Pism6j125s3LRn0ozNGm14/hVERLLmar+zRQMGaY+yiJWTd4iA2E+l1fd1mlJW2o/u/HQYuUcD9rllu5N6RkuyCRejW/Ir47/l6omBKy+Obffkb/9hSUNjQ1nr0qr7wSrYFcmftUbaGYa5q7hxx5xoEFQMMnVG7O/7ZlyUJI2ik75tgFkVuue1UwH5LifXDh07nTBcqwXF6I1D02T9QGu5FSkXm3NjI+MsutK+sT6StuHZqvsXoS0rjN14rcPqnzL2g4koTOL8yo1TA5c842cpkehwci/1GstPwvzUNRMDlzyLL3WQFVfCFvVJq0h6RZhwzGhxLG1G1Awa3nPn7OQcsxitxBMXS0PHYQbHxVoZ2n5Yl6/j6AhpGzqPTt+DEdKK2KxXY9OybJKvAZxF//88uTLsViL/otihdYk4T8+QsvL55RumJGuMsa0ceXmOeeZUxhaWBhFNNkQbv31p8U5/69Z90TNrkP8/vmhnsvD4rttmJQvbbMpEI4tNnZZ+OgVGrXk/vI2HaIcFfTa6YlyXNQcM2VZxTO+Z5ts8RuP5nV+dFrhiacvgBCxiP9hf3Tc/cMXiVn0n1j/K4k9+zE4wRIqB1Kr523jQUYQWFve5bHz7TFraFUnbpsEzYliUN1Ai0pt0Y2H1O5gUFjv2vVadQTGAi7UHnU837wVjxJ3fmrX1MoWSsrTRrjj9uowDI0ydxfZFZuWPFRLWbsu6Mc2c4OJoQOXJV2PAIZ9H0+4tX7h8tBoL34l3RU/Fje3P4rDF2IGL0M36FwvuVTsN9kFh9Z1ZGEyqits6dDx84rFhde9O4NkredB5okhQFX+rjVi3XFgOSLMeUCXtLOO1ZdJDE4+LdciiGq6SPoPMR+Zvr2zVBDEwxmUlvV7zRUTPVoDYWmoVeoXhFfmfETfGFIyK5lsmL6EnYU6oLrI7/MLFi+0FRj4kC46XNu/xXOYibpnwRcKybgGNaCgRnunlu9UJrkWB6uVwjN44hwWZOx0a2jzI6VGjRn7LjAn/D9Q+EcrDaCZtRIPoAzVtDNnWKftPXT0xWQhndEtjK3IxOuPMpCufWZUspNfJfyzHpV57ZWT+nrtmB66m8ISRIBJjnxT7/f75O8XX45qigXQoEx0o7ZO9NrRPbM2hCfqDBTvC3dO3XNZmUaxANJ5mTaFJ+uqkxSAaBsWGfvZE1klL4lJPaKVOXb8/sCSAjUcGn2ygZdsHRmTZI4dm51NLd0XFjZJWnl+ZOaG6yM5rKhYRAg2Ni6k1lzyX8RlNlQlfJCy0yZoA4ZtcRM8Dt5PfOSCMRWhG3CySI6dHQ4m1maKaQJbet10/JXDZ92WfZXRbNB7igytuntHTo9KiZfFw2TMLtPiQYjCI6RZWrNvRRhmQQQPaiWxRQBP0xy9ZFdG08V+967aZUeUZHa4f76mn3/ra9ISpc5gjzA8JCVq+MGusnDNLY+2Ruq2DQWXm9I2pm2tlXIdoj5v9wzs+jo+3AW8DY70NOHPqYZnxWG9cTr93kN4GvA1UbQOVmRNaGEQea1evyPCrVlhaPMqVVRexciO+4MpKMxYvLXzsPcZWOWIji7a0b4gMekn5JFa+0XwH9nXxH0366qZN2aj7bovbhY60dhh7322ai2LP2h5LG00tZ5TBipOz5bDLovTqcOBe1qFXMGYNv2KPKrZxUYOSdc/CYlOLi1n5lPkWO7vFViqad9Y8CtbVsyysy09ZhhYJS17sUWKf1OKK2npslEQ7UtIcb34d/JvGis6tqQ4O2nSbpUOhs2+a5rz03nrdpGR9RE4DsP9M1nO3aM4rk/7OWhrq8iiFNYVvGYbBPiUYlKapzH2ZvKSuxjRzYu8Oe3jKgCRhMYnzpRfWJqZx5F0v+Ch8oI2Y5djQ+tDc7UmngPWCa3+4JtlHkLY3BFVw9irRQKqUsYiR0Sx6+cbeLKyCV8m/bBxU8rnKxhvN8L3EnOjcmurgwMy22artTPCPbXyWbzH/zVe+nJx2jZo1HVoVV5fmGF1NvkNhAY06XBO0vvOmaQHzU2WcNutVpmxFt8hYWsY0c6IwZe3FCagYJeQ4A05TlXe94NPwijgMurLxlmMYDp84mzC0tEYrRjzTvqeVG8vRWFcWCxNF6EoLA8OlE4vlhSZVml29WPi8dxi85coL16nvMrMoi/9o0QcdTdJCWtrVSZtzxO6duTV3TxwzPzTJfvFLryRaZpxqXMehTt2ken2VusvShNUY18FX6PrkY8uTI2jKYIZBZLYKsJ8ybduKpK/9osYFLC1jnjlRgLKjQDlZsmWZeXSYE3bdUKt9R4qlAl15co/6OPubqro0e2ngA05lGzVqpVU33doyZDEnDEdyCQ51fc7SSTtPB/EIo1CwiK0BVVXVz6JZZhZl8c9Ks8436ChCC9ZGYhZHbN6kpV1a2rLGEcOdNBEfY/Gco0rS0pC8adPMlB6aOxAWDRxO9mRqGsreZx1rLnk27XO4pZzoTNpiISOGj8Y4z2hvETpjZ70VwYx+hLPAsLuZlw9936efWFF5cDvmmROA5jVkC+Lff3tBWDxwOGncTe22tnmwT4BRBpVjv6U9Y4UZ8yRVHSZC7KIli6iYg8E9uXhXqlmfGE3XPr8mHD5+tio5I+JlGX5FWYIrRgPvsEZe1CI54RFzcsXSIx82G+Ji7ebTj68IXLG48o4N0HYTtHyL+dKxxPKLhbfvmE1w2fdVn6GjCC0ffmhRcoxH7AwqnbeUTyo8ljYzHVkPin0nPX2+F5toZa+SzkvubZ6Sdx0/jS7Js6jP3imuvPCfe3pl4JJwWYNIXV6kJnUlAzq9KphZrDB1hpkulkukPPR92w+dqJJ8EmfcMSdGJfwkFDztZFIBt44vlW8rMStNiVO1Nu3oj2MVnl66qz2qLFtepu+Mkppw4B2b4bLh+IHZ25JN4GnYYPyUK+27fc86ZNpaJIewiRHKWN3wTr9nEzGXzoMzkWJnL+kw+l7qNUt0lLbOQnvlvBxsmuk0mf2zMVJoo/OHIUMXa3ux0TfxOSaDkbc9W0unLffM+LAWcM+MLYF1S3lvfSmftBONn4SVjpcwse+E0+lg2SFL+1SHlXzr+ml0SRmK+phGk+NLsuKQn54FSZlidMg3KWMsTFZe9ptNT9It6tv8WTrg8FaObpG86uYx7piTBsyezCqgNuFLPrYSs9KWOEUbiA2HySgsc0gerBdhwVhc1lHoEkf7TTInaIhh8flnVyWNmkMZ046LRyEjzaK5plfuEVmw2KtFJvJNRGxp9ECjpvNjjy4LXBIfn/VKLv0u617q1Q4edBzWO2JrHhJX00Q8Zm4YAKVzQxGG9VPWHvcfPZ0on9jwkhfnYnFwIyalrjBMV8KITxq0KcybYS37rRGjwljQ5nBD7WJ5805c7Dt56jBZZ62hYfvwvO2SXGN+Gl2CR1E/yyq+ToP8mAUxOGNdBjNLuBgdGpu0MJI2lmW45Nn6rCVzGnEdp2nEJiG2CS1dluay+Y1r5tQyPb8ktRJtpfLMiJUr9k3eYajzicUtTRhdifI9za9bmbZx2JNws9Z9YjTVPcnSNkaLhf5JmB2kia4Q93x/wY7CFuTJJ61z0xhbesCAd/o9BlLvnr65bQUacQ2MFAYYwyz2Li9P4nzg3rnJZeNLXE0TYTj4Dyvx/MBix1LjjRILB8Axg5RRPMxIZtKs7WSZpGENkBOAxWFnDXM2mr4rvjY9GQRgFFQ7SytxpByEi323YdJm2oTDvtzGweFBl867zn0aXbrMRe6LKuSQH+VEOjF07Ez7uPOYSFPjl4Uh9FlxoaXZDlqrYKbP29JLBw/O2dY2BWVpLpvPuGZOGwaPho+WNIaK+AQRBT89C+v2rB8aQuvnaR2wVabB161M22j/96mVYY85qbQMPVoUU7ZhxcK/uHLvCBVv1vswLIlDfIRNL/sj8YyoYODg8RHyeR3OGr2ljGmdm8Y4hgXv9DHZzLTW7nk9OaiRE3ARh20bOh7tYBmU0D6w5cb+O8pHO9HajrE8KQtlj5Vf6LXx5Lj1GM7yjqOz2W4xZ/NQoinJbHLPkdaxEi2jycOiOk5rZt1ARtwwNjl6W9LT++t+5tpJAVEO54pZZ2mlfFIOwsa+2zBZ4Zpul0J/Gl26reXdI04F2yIKAxoToQGfGRRtSOdlw6bRilIJ+z/ZrKvj6/sm8GNtfPqGA+HmiRsSJS7Z/sKARpSbLM26jEXuxzVz2jh4LHo0tq5Iey9aLvz07Dtg8Zx9FhKOc4S+N297OH2updiQ1ogkvPho9zHqqOt0fnSM0Kmd/i55p/l1G5fOl3tGh4gvJD/Bkm9Z+6D40Wj8iK5gFqhmSxr4dARYcGcEx0bfouKRGGKp3J8AAAwwSURBVBa8Q4yF8gjGkEV7ktnJybPn2x12LC5nLrGeSf5Yk4fxFsGfGSP5cXaWLhf3Ugc2P9aVwKyI4ycXa/4S3oq0f/H6V8LNE9cnR9CAp2Ao4fHZX4eSDyNzmBcnScecpVWXg/CxmYENQ7hYOu/+xqth8prBWLa138Xys/WR90waRSUUhI05+g4rNrZh02hlpo/4OO17DOcYDUXeUc4z5y6MOOONwQ+D4ibyGdfMadP+Y+G/flDuGAnbSNhfIcdOM2JAFr7z0Ml23XLEBerJeY36z+6anZy51I5Y8UY3ytgISX/PoultX56SiK8qkpEajVkE62JcekZBhDTaBHPpZGFQmna+nzp7PtFKRK1YOm0YlswEJLyklZaffIepcIxMmvYk4SRN8SVuauFTynj9i+sCZ3TF1tUkTZtfrG6z8rXfWuuPw8yQETczI2ZLnJMmGNp4dJyITDk8kvqIOUsrZy1xpLo4zmCLaQBKWSWcTQec2Tj/+smRAy4JX9cve1K01Lv2oRlcqB/9PnZvy6vpt2W3Ye13SV/aRdp3wtm0dL5171E2mrRmXzIIZWZVx41r5pQlSpLKRi4vsnktWxXQUZGet+VgUuFMaa0oZM7mg22Zv6QZ8zFLz76ruk6LzmKNcObGAyPUPWO08E6LJuvSZOMzC+GyLu2HsuXQ4RB/xEb5pM3R3ai3ShkRtTGjEcc61ttvGD5GRK+BSZg0X9NA+uwHYmE7z9l4xOUd6zYoHQit4vMNZ+PJ+7z80r5zorFeN6u6UTKWvqWVASADQXGx/YWxf8umI1hJOk37rBMjmhXsq/jQ3E3mJO0ihp2UR8I0jZ+kx8xt6NjpRNIg76r445o5bTlwLDmETyot5mOvDs0WOjmYT6xTzQJ+6Y4j4UMZe3gkz088tixwWmxdh+iMA/6QBcu+Ep1mS2TQUvdMsy1Ih484i8bRSZf2Q9mf6a5pm9ui1DzxlsjAf/6LkxNxkhaz6TUU6gEtq3V7iy20W1pbjC9f3ETdiPq31L2UD3pYTNcnO8s3nR/nciE6rut0mjLirpsm8XW6KA+xVqdxRwFAn9rMOg178ey/pdMBqxgDa4JeSaPuac3UG2JPi4HUs/UpX5pDE/Onr5mUMErWA7Grp53FRtKWNNO+s3cMsepYcOOaOR04ejpc9ezwGohUsPgykuZnQodf1pHKVOyOQycCaxGSZpqPRQPWOppwiKKQBacxF8RpjNJZ3P/c06va2jV0mhzFznQ8TazTBH1paaT9UPLDSTyO4xa1c/tNwojPTBYG9Z05A5cxHq1xRL2U6aAtrZ96bHkYKDC42H3kZHKSsezhaa01ttR6WdNBtVhvIJby6fw+eN/8ZLYuZazqS5rSzqumY+NJumAK47HiWztLlDJmpUNaqMxbBmbj1HnmfykijpN/mD1jXDwj0kc9H3V+nMZAwls/rdzEZz0bhSvixCy1pKUvaXLyb8wkGEsQdU091cG4TNy+YE6s86RZF3/7DVMDlzQMqTxAOnv+QqYxUqw8sHBcxyG/L6K509KOOl8nq1Jx6SC4lm4/HD70QMs6Axtdtx88MWKBs1SiNQPn/XCSvFg4h0E9Mn+HvC7tY5tQK1fotpGXmKU1pt2WlgZ7kRABIsplc61tY5I2GnH3v7o1SUbe0Y4ZQFBPdR0WRa58dnUi3ltXs51rWti0K8ejMAiinVmny8N9zOkwlDstXCxu1Xc2T+k3Yj6zXMwnsWbIBmvWPcUVSSerPHTMSD4IQzsVbbis9LHNxxH1OGaizDSFbvajURexGaqk2Wt+XzCnllps3LyL3hDHMefYnxNn5e5SkeKjJcaaUh2HnTC7u1/S137aT1wn7yJxmVm8tGpvuOb5NYH1qG66tB/a/sRgivgEcSvrhlWdXXO0+WSlyzqXqPuy2ffZZbtTZ6qxdBC/svaCqj8/oXZ0RtQHollZh9TYFFEj1+ml3bN4DaNE8aPJGQkzJbFQkYYp+62YqaOpyB63mNNl5oj1u6cP/7ux8E2803nq/zN2zyyL9RXao2UeL6zYk2tyKw2bIuWI0SntkPgo2OgjdLrVvxQpS1qYvmBOszYOhfcpm066IWGvjop8y9UTEzVjtLnE5TGnOo1H8jh6+ly4PuNYD4y9IpO3u+wlfid8xEloX1URWzZJX+yHEy0ymw91R+dqO3YbLuvZWmwoU9+IPWHmrHlhpQENtqYcHR31gZhXygcjRvxG227iCJOmaI2lAzbstUGtmT1WMYd4E9xQC6dzjzm9tlj12IVYulnvYm1Q9yf6Pqu9pG0CLxo/i0a+xejkIFA5b83assyiNS+vbn3vC+aUpXRApSzbeSTcM3PLZdNjOgGrltxU45EKZSGY/UY6XX0P82T/TEz0IWmMFz/2w41mR6zrH3V/1P7LOOLTEeOPtmNP0YcfalloKLM2Ntp0paXPQAfmzyAizdH5CPONhdGGirXB3ljYpt4xA46ZvdL/rNxndfh5A9+YkkOZMsT+lc8+uSLsPDws7pUwo7UtpAy9VcL2BXNCNCIbv6ThiJ/VgCg8IzvksRJefDmgrwqoOg6dF6NrSRefEbCMgrPo0+mMh3v5mTRWo40P+2+wMIGoDMsPveqYJSJKhDFZBYNepbkuXVjm+MjDLfNiaLwyCB1tF1Nz1+1R3+e1zVh7lvicQ8V6VVUXS9uaK0P7E6sjrIduGqwu/q5KY914fcGcrGqqNAD8vAbEjAV5rI7DfZNGT21DwqwNawqsh01V+27qVuZYj29xQlQ7a5TXwfa9dioxN0On1OS6y2jUBT8r13hx+r8uqg1ZF5t1+46Gf3+kmL3NvL4Frdf3ppxTVnc2E7OyYZkT4nrWVRGhjsV20xfMKU3poKioxnaKRZhamZ/Aps/mR0bp7Kk5fnpYw6dMmv0YVoy/omaNFhmMCZV4d+MTgdaevJb1d9ZlEX+PtsvbXqIHsXnMCXonrRlsK87ouFmbx4uUcfqG/ZcxPga8rFX2i+sL5hQTndEQio62Hpy9LfycOg6gqX0k0kg0c3r/PfNSLRpI+PHqM8iAQXGWD1pk7sY3AsxkUTphzRa/EzNb1g85Jl42wGLJPe1okTzmRO3ZvonlAvYWPrdsTy0zTLG1bG2rsh9aTl8wJypCMwAZoRRdOLaH8DWhQq4bh6Ytz6KBjuf3jsB4R4AN5XTEaTYORwMfRLxYaMAa/qMLd1Zaz9Z06f+f5QI0+ZqYBep06fN47ifX18ypaGUBwsQ1+5IjAzj7Bnt4TTrdiIrS1GT+npYj4AiUQ4A+AbEiTJFtHjGlqaL/MpudP3DvvGD3WZaj6PLQul9x5nQ5Pj3zxlZU2crCSjMMCsaUpf5apcCatqINuko+HscRcASaRwAGxZYP+pR33TYrYDmGJQO04Yo4NC1nbDyQzGyWbB/eZ1kkblYYzud6503Dhmr7rW/xmVNW7Tf0TZhTa29DyxxNQ0l7Mo6AIzDKCMBcbrl08jFbDthzNjB0IjnfqmjWaAWTTpPrZjsPnwzsbYJplh2MF6W7m+H6hjlxlDYmTqSieqmy2AWPkgXHUMgO7m5WuuftCDgCxRGAoTBLuvq51YnCTic2XRelTga+vdTfFaU9L1zfMCemy1jv7UXmxOFonPnEQiujJ3eOgCMwthBAgeHgsTOlZkudKKG2ouFivU4gXjEPNGt+9ca4BfKKSXo0R8ARcAR6FgGs08OUsFTfbcPNTYPUNzMngGFjK+b633Pn7PDeu+YkO/+bBszTcwQcAUegVxBA5IhqOkyq24abm8akr5gT4KB1h0mg6ev3B85ScucIOAKOgCMw9hDoO+Y09qrAKXYEHAFHwBGwCDhzsoj4syPgCDgCjkDXEXDm1PUqcAIcAUfAEXAELALOnCwi/uwIOAKOgCPQdQScOXW9CpwAR8ARcAQcAYuAMyeLiD87Ao6AI+AIdB0BZ05drwInwBFwBBwBR8Ai4MzJIuLPjoAj4Ag4Al1HwJlT16vACXAEHAFHwBGwCDhzsoj4syPgCDgCjkDXEXDm1PUqcAIcAUfAEXAELALOnCwi/uwIOAKOgCPQdQScOXW9CpwAR8ARcAQcAYuAMyeLiD87Ao6AI+AIdB0BZ05drwInwBFwBBwBR8Ai4MzJIuLPjoAj4Ag4Al1HoM2cuPHLMfA24G3A24C3gV5pA/8PlOoNuHlGI/kAAAAASUVORK5CYII=;fontFamily=Times New Roman;" vertex="1" parent="1">
          <mxGeometry x="488.48" y="823" width="112.3" height="30" as="geometry" />
        </mxCell>
        <mxCell id="oOy7QrCfU1HmPFGgPFGF-53" value="" style="endArrow=classic;html=1;rounded=0;exitX=0.5;exitY=0;exitDx=0;exitDy=0;" edge="1" parent="1">
          <mxGeometry width="50" height="50" relative="1" as="geometry">
            <mxPoint x="544.6300000000001" y="828" as="sourcePoint" />
            <mxPoint x="544.3899999999999" y="810" as="targetPoint" />
          </mxGeometry>
        </mxCell>
        <mxCell id="oOy7QrCfU1HmPFGgPFGF-54" value="Linear" style="rounded=0;whiteSpace=wrap;html=1;fillColor=#d5e8d4;strokeColor=#82b366;" vertex="1" parent="1">
          <mxGeometry x="484.39" y="585" width="120" height="33" as="geometry" />
        </mxCell>
        <mxCell id="oOy7QrCfU1HmPFGgPFGF-55" value="" style="endArrow=classic;html=1;rounded=0;entryX=0.5;entryY=1;entryDx=0;entryDy=0;" edge="1" parent="1" source="oOy7QrCfU1HmPFGgPFGF-51" target="oOy7QrCfU1HmPFGgPFGF-54">
          <mxGeometry width="50" height="50" relative="1" as="geometry">
            <mxPoint x="520.39" y="756" as="sourcePoint" />
            <mxPoint x="570.39" y="706" as="targetPoint" />
          </mxGeometry>
        </mxCell>
        <mxCell id="oOy7QrCfU1HmPFGgPFGF-56" value="decoder&lt;br&gt;(argmax)" style="rounded=0;whiteSpace=wrap;html=1;fillColor=#d5e8d4;strokeColor=#82b366;" vertex="1" parent="1">
          <mxGeometry x="484.39" y="518" width="120" height="33" as="geometry" />
        </mxCell>
        <mxCell id="oOy7QrCfU1HmPFGgPFGF-57" value="" style="endArrow=classic;html=1;rounded=0;entryX=0.5;entryY=1;entryDx=0;entryDy=0;exitX=0.5;exitY=0;exitDx=0;exitDy=0;" edge="1" parent="1" source="oOy7QrCfU1HmPFGgPFGF-54" target="oOy7QrCfU1HmPFGgPFGF-56">
          <mxGeometry width="50" height="50" relative="1" as="geometry">
            <mxPoint x="520.39" y="626" as="sourcePoint" />
            <mxPoint x="570.39" y="576" as="targetPoint" />
          </mxGeometry>
        </mxCell>
        <mxCell id="oOy7QrCfU1HmPFGgPFGF-58" value="Conv &amp;nbsp;subsampling" style="rounded=0;whiteSpace=wrap;html=1;fillColor=#d5e8d4;strokeColor=#82b366;" vertex="1" parent="1">
          <mxGeometry x="484.39" y="726" width="120" height="33" as="geometry" />
        </mxCell>
        <mxCell id="oOy7QrCfU1HmPFGgPFGF-59" value="feature extraction" style="rounded=0;whiteSpace=wrap;html=1;fillColor=#d5e8d4;strokeColor=#82b366;" vertex="1" parent="1">
          <mxGeometry x="484.39" y="775" width="120" height="33" as="geometry" />
        </mxCell>
        <mxCell id="oOy7QrCfU1HmPFGgPFGF-60" value="" style="endArrow=classic;html=1;rounded=0;exitX=0.5;exitY=0;exitDx=0;exitDy=0;entryX=0.5;entryY=1;entryDx=0;entryDy=0;" edge="1" parent="1" source="oOy7QrCfU1HmPFGgPFGF-59" target="oOy7QrCfU1HmPFGgPFGF-58">
          <mxGeometry width="50" height="50" relative="1" as="geometry">
            <mxPoint x="554.63" y="833" as="sourcePoint" />
            <mxPoint x="554.39" y="815" as="targetPoint" />
          </mxGeometry>
        </mxCell>
        <mxCell id="oOy7QrCfU1HmPFGgPFGF-61" value="" style="endArrow=classic;html=1;rounded=0;exitX=0.5;exitY=0;exitDx=0;exitDy=0;entryX=0.5;entryY=1;entryDx=0;entryDy=0;" edge="1" parent="1" source="oOy7QrCfU1HmPFGgPFGF-58" target="oOy7QrCfU1HmPFGgPFGF-51">
          <mxGeometry width="50" height="50" relative="1" as="geometry">
            <mxPoint x="555.63" y="783" as="sourcePoint" />
            <mxPoint x="555.63" y="767" as="targetPoint" />
          </mxGeometry>
        </mxCell>
        <mxCell id="oOy7QrCfU1HmPFGgPFGF-62" value="基本训练框架" style="text;html=1;strokeColor=none;fillColor=none;align=center;verticalAlign=middle;whiteSpace=wrap;rounded=0;" vertex="1" parent="1">
          <mxGeometry x="192.08999999999997" y="445" width="92.91" height="30" as="geometry" />
        </mxCell>
        <mxCell id="oOy7QrCfU1HmPFGgPFGF-63" value="基本识别框架" style="text;html=1;strokeColor=none;fillColor=none;align=center;verticalAlign=middle;whiteSpace=wrap;rounded=0;" vertex="1" parent="1">
          <mxGeometry x="488.47999999999996" y="445" width="92.91" height="30" as="geometry" />
        </mxCell>
        <mxCell id="oOy7QrCfU1HmPFGgPFGF-64" value="int token_id sequence&lt;br&gt;[T/4, 1]" style="text;html=1;strokeColor=none;fillColor=none;align=center;verticalAlign=middle;whiteSpace=wrap;rounded=0;" vertex="1" parent="1">
          <mxGeometry x="319" y="478" width="119" height="30" as="geometry" />
        </mxCell>
        <mxCell id="oOy7QrCfU1HmPFGgPFGF-65" value="" style="rounded=0;whiteSpace=wrap;html=1;fillColor=#d5e8d4;strokeColor=#82b366;" vertex="1" parent="1">
          <mxGeometry x="781" y="638" width="9" height="105" as="geometry" />
        </mxCell>
        <mxCell id="oOy7QrCfU1HmPFGgPFGF-66" value="" style="rounded=0;whiteSpace=wrap;html=1;fillColor=#d5e8d4;strokeColor=#82b366;" vertex="1" parent="1">
          <mxGeometry x="798" y="638" width="9" height="105" as="geometry" />
        </mxCell>
        <mxCell id="oOy7QrCfU1HmPFGgPFGF-67" value="" style="rounded=0;whiteSpace=wrap;html=1;fillColor=#d5e8d4;strokeColor=#82b366;" vertex="1" parent="1">
          <mxGeometry x="815" y="638" width="9" height="105" as="geometry" />
        </mxCell>
        <mxCell id="oOy7QrCfU1HmPFGgPFGF-68" value="" style="rounded=0;whiteSpace=wrap;html=1;fillColor=#d5e8d4;strokeColor=#82b366;" vertex="1" parent="1">
          <mxGeometry x="833" y="638" width="9" height="105" as="geometry" />
        </mxCell>
        <mxCell id="oOy7QrCfU1HmPFGgPFGF-69" value="" style="rounded=0;whiteSpace=wrap;html=1;fillColor=#d5e8d4;strokeColor=#82b366;" vertex="1" parent="1">
          <mxGeometry x="850" y="638" width="9" height="105" as="geometry" />
        </mxCell>
        <mxCell id="oOy7QrCfU1HmPFGgPFGF-70" value="......" style="text;html=1;strokeColor=none;fillColor=none;align=center;verticalAlign=middle;whiteSpace=wrap;rounded=0;" vertex="1" parent="1">
          <mxGeometry x="846" y="675.5" width="60" height="30" as="geometry" />
        </mxCell>
        <mxCell id="oOy7QrCfU1HmPFGgPFGF-71" value="" style="rounded=0;whiteSpace=wrap;html=1;fillColor=#d5e8d4;strokeColor=#82b366;" vertex="1" parent="1">
          <mxGeometry x="781" y="525" width="9" height="10" as="geometry" />
        </mxCell>
        <mxCell id="oOy7QrCfU1HmPFGgPFGF-72" value="" style="rounded=0;whiteSpace=wrap;html=1;fillColor=#d5e8d4;strokeColor=#82b366;" vertex="1" parent="1">
          <mxGeometry x="798" y="525" width="9" height="10" as="geometry" />
        </mxCell>
        <mxCell id="oOy7QrCfU1HmPFGgPFGF-73" value="" style="rounded=0;whiteSpace=wrap;html=1;fillColor=#d5e8d4;strokeColor=#82b366;" vertex="1" parent="1">
          <mxGeometry x="815" y="525" width="9" height="10" as="geometry" />
        </mxCell>
        <mxCell id="oOy7QrCfU1HmPFGgPFGF-74" value="" style="rounded=0;whiteSpace=wrap;html=1;fillColor=#d5e8d4;strokeColor=#82b366;" vertex="1" parent="1">
          <mxGeometry x="833" y="525" width="9" height="10" as="geometry" />
        </mxCell>
        <mxCell id="oOy7QrCfU1HmPFGgPFGF-75" value="" style="rounded=0;whiteSpace=wrap;html=1;fillColor=#d5e8d4;strokeColor=#82b366;" vertex="1" parent="1">
          <mxGeometry x="850" y="525" width="9" height="10" as="geometry" />
        </mxCell>
        <mxCell id="oOy7QrCfU1HmPFGgPFGF-76" value="......" style="text;html=1;strokeColor=none;fillColor=none;align=center;verticalAlign=middle;whiteSpace=wrap;rounded=0;" vertex="1" parent="1">
          <mxGeometry x="846" y="525" width="60" height="10" as="geometry" />
        </mxCell>
        <mxCell id="oOy7QrCfU1HmPFGgPFGF-78" value="[T, vocab_size]&lt;br&gt;[T, 500]&amp;nbsp;" style="text;html=1;strokeColor=none;fillColor=none;align=center;verticalAlign=middle;whiteSpace=wrap;rounded=0;" vertex="1" parent="1">
          <mxGeometry x="655" y="673" width="104" height="30" as="geometry" />
        </mxCell>
        <mxCell id="oOy7QrCfU1HmPFGgPFGF-79" value="[T, 1]" style="text;html=1;strokeColor=none;fillColor=none;align=center;verticalAlign=middle;whiteSpace=wrap;rounded=0;" vertex="1" parent="1">
          <mxGeometry x="672" y="515" width="84" height="30" as="geometry" />
        </mxCell>
        <mxCell id="oOy7QrCfU1HmPFGgPFGF-80" value="greedy_search&amp;nbsp;&lt;br&gt;取概率最高的位置" style="text;html=1;strokeColor=none;fillColor=none;align=center;verticalAlign=middle;whiteSpace=wrap;rounded=0;" vertex="1" parent="1">
          <mxGeometry x="656" y="575" width="103" height="30" as="geometry" />
        </mxCell>
        <mxCell id="oOy7QrCfU1HmPFGgPFGF-82" value="" style="shape=flexArrow;endArrow=classic;html=1;rounded=0;" edge="1" parent="1">
          <mxGeometry width="50" height="50" relative="1" as="geometry">
            <mxPoint x="821" y="619" as="sourcePoint" />
            <mxPoint x="821" y="546" as="targetPoint" />
          </mxGeometry>
        </mxCell>
        <mxCell id="oOy7QrCfU1HmPFGgPFGF-101" value="" style="rounded=0;whiteSpace=wrap;html=1;fillColor=#d5e8d4;strokeColor=#82b366;" vertex="1" parent="1">
          <mxGeometry x="1103" y="633" width="9" height="105" as="geometry" />
        </mxCell>
        <mxCell id="oOy7QrCfU1HmPFGgPFGF-102" value="" style="rounded=0;whiteSpace=wrap;html=1;fillColor=#d5e8d4;strokeColor=#82b366;" vertex="1" parent="1">
          <mxGeometry x="1120" y="633" width="9" height="105" as="geometry" />
        </mxCell>
        <mxCell id="oOy7QrCfU1HmPFGgPFGF-103" value="" style="rounded=0;whiteSpace=wrap;html=1;fillColor=#d80073;strokeColor=#A50040;fontColor=#ffffff;" vertex="1" parent="1">
          <mxGeometry x="1103" y="670" width="9" height="10" as="geometry" />
        </mxCell>
        <mxCell id="oOy7QrCfU1HmPFGgPFGF-104" value="" style="rounded=0;whiteSpace=wrap;html=1;fillColor=#d80073;strokeColor=#A50040;fontColor=#ffffff;" vertex="1" parent="1">
          <mxGeometry x="1120" y="646" width="9" height="10" as="geometry" />
        </mxCell>
        <mxCell id="oOy7QrCfU1HmPFGgPFGF-105" value="[127， 6]" style="text;html=1;strokeColor=none;fillColor=none;align=center;verticalAlign=middle;whiteSpace=wrap;rounded=0;" vertex="1" parent="1">
          <mxGeometry x="1086" y="569" width="60" height="30" as="geometry" />
        </mxCell>
        <mxCell id="oOy7QrCfU1HmPFGgPFGF-106" value="p(127)=0.9&amp;nbsp;" style="text;html=1;strokeColor=none;fillColor=none;align=center;verticalAlign=middle;whiteSpace=wrap;rounded=0;" vertex="1" parent="1">
          <mxGeometry x="1032" y="660" width="60" height="30" as="geometry" />
        </mxCell>
        <mxCell id="oOy7QrCfU1HmPFGgPFGF-107" value="p(6) = 0.7" style="text;html=1;strokeColor=none;fillColor=none;align=center;verticalAlign=middle;whiteSpace=wrap;rounded=0;" vertex="1" parent="1">
          <mxGeometry x="1129" y="636" width="60" height="30" as="geometry" />
        </mxCell>
        <mxCell id="oOy7QrCfU1HmPFGgPFGF-108" value="[27977]" style="text;html=1;strokeColor=none;fillColor=none;align=center;verticalAlign=middle;whiteSpace=wrap;rounded=0;" vertex="1" parent="1">
          <mxGeometry x="1088" y="515" width="60" height="30" as="geometry" />
        </mxCell>
      </root>
    </mxGraphModel>
  </diagram>
</mxfile>
